<?xml version="1.0" encoding="utf-8" ?>
<svg xmlns="http://www.w3.org/2000/svg" xmlns:xlink="http://www.w3.org/1999/xlink" width="287" height="287">
	<path fill="#FEFEFF" transform="scale(0.279862 0.279862)" d="M0 0L1024 0L1024 1024L0 1024L0 0Z"/>
	<path fill="#080717" transform="scale(0.279862 0.279862)" d="M169.834 170.572C173.244 170.314 176.253 170.372 179.48 171.647Q179.899 171.812 180.309 171.998Q180.719 172.183 181.119 172.39Q181.519 172.597 181.908 172.824Q182.296 173.05 182.673 173.297Q183.05 173.543 183.413 173.809Q183.777 174.074 184.126 174.357Q184.476 174.641 184.811 174.942Q185.145 175.243 185.464 175.561Q185.783 175.879 186.085 176.213Q186.387 176.546 186.671 176.895Q186.956 177.244 187.222 177.607Q187.489 177.97 187.736 178.346Q187.984 178.722 188.212 179.11Q188.44 179.498 188.647 179.897Q188.855 180.297 189.042 180.706Q189.229 181.116 189.395 181.534Q189.725 182.348 189.972 183.191Q190.218 184.034 190.379 184.898Q190.539 185.762 190.611 186.637Q190.684 187.512 190.668 188.391Q190.652 189.269 190.547 190.141Q190.443 191.013 190.251 191.87Q190.059 192.728 189.782 193.561Q189.505 194.395 189.145 195.196C186.675 200.579 182.26 203.266 176.936 205.231C173.154 205.75 169.448 205.709 165.887 204.145Q165.127 203.812 164.404 203.405Q163.682 202.997 163.003 202.519Q162.325 202.041 161.698 201.498Q161.071 200.955 160.502 200.351Q159.932 199.748 159.426 199.09Q158.92 198.432 158.483 197.728Q158.045 197.023 157.681 196.277Q157.316 195.532 157.028 194.754Q156.859 194.302 156.714 193.842Q156.568 193.382 156.447 192.915Q156.325 192.448 156.227 191.976Q156.129 191.503 156.056 191.027Q155.983 190.55 155.934 190.07Q155.885 189.59 155.86 189.108Q155.836 188.626 155.837 188.144Q155.837 187.661 155.862 187.18Q155.887 186.698 155.937 186.218Q155.987 185.738 156.061 185.261Q156.135 184.785 156.233 184.312Q156.332 183.84 156.454 183.373Q156.577 182.907 156.723 182.447Q156.869 181.987 157.039 181.535Q157.208 181.084 157.401 180.641Q157.593 180.199 157.808 179.767C160.399 174.628 164.547 172.207 169.834 170.572Z"/>
	<path fill="#FEFEFF" transform="scale(0.279862 0.279862)" d="M169.633 173.587C172.469 173.399 175.023 173.261 177.747 174.278C181.498 175.678 184.577 178.403 186.234 182.073Q186.528 182.722 186.756 183.397Q186.984 184.072 187.143 184.767Q187.303 185.461 187.392 186.168Q187.481 186.875 187.499 187.587Q187.517 188.3 187.464 189.01Q187.411 189.721 187.287 190.423Q187.163 191.124 186.969 191.81Q186.776 192.496 186.515 193.159C184.57 198.058 180.889 200.427 176.236 202.301C173.587 202.642 171.04 202.722 168.482 201.863C164.726 200.602 161.848 198 160.157 194.421Q159.825 193.711 159.568 192.969Q159.311 192.228 159.133 191.464Q158.955 190.701 158.857 189.922Q158.76 189.144 158.743 188.36Q158.727 187.576 158.792 186.794Q158.857 186.012 159.003 185.242Q159.15 184.471 159.375 183.72Q159.601 182.969 159.903 182.245C161.818 177.688 165.251 175.379 169.633 173.587Z"/>
	<path fill="#080717" transform="scale(0.279862 0.279862)" d="M846.97 820.056C850.535 819.779 853.585 819.864 856.92 821.299Q857.334 821.48 857.738 821.682Q858.142 821.884 858.535 822.106Q858.929 822.328 859.31 822.57Q859.692 822.812 860.06 823.073Q860.429 823.333 860.784 823.613Q861.139 823.892 861.479 824.189Q861.819 824.486 862.144 824.8Q862.469 825.114 862.777 825.444Q863.085 825.774 863.376 826.12Q863.667 826.465 863.94 826.825Q864.214 827.185 864.468 827.558Q864.723 827.931 864.958 828.316Q865.193 828.702 865.408 829.099Q865.624 829.496 865.818 829.904Q866.013 830.311 866.187 830.728Q866.361 831.145 866.513 831.57Q866.666 831.999 866.797 832.435Q866.928 832.872 867.037 833.314Q867.146 833.756 867.232 834.204Q867.318 834.651 867.382 835.102Q867.445 835.553 867.486 836.007Q867.527 836.461 867.544 836.916Q867.562 837.372 867.556 837.827Q867.55 838.283 867.522 838.737Q867.493 839.192 867.441 839.645Q867.39 840.097 867.315 840.547Q867.24 840.996 867.143 841.441Q867.046 841.886 866.926 842.326Q866.806 842.766 866.665 843.198Q866.523 843.631 866.359 844.057Q866.196 844.482 866.011 844.898Q865.826 845.315 865.62 845.721C863.022 850.788 858.79 853.174 853.551 854.751C849.401 855.262 845.27 854.821 841.559 852.792C837.307 850.467 834.399 846.411 833.21 841.749C832.036 837.144 832.581 832.008 835.092 827.925C837.891 823.375 841.99 821.351 846.97 820.056Z"/>
	<path fill="#FEFEFF" transform="scale(0.279862 0.279862)" d="M847.787 822.601C850.925 822.378 853.913 822.845 856.739 824.291Q857.423 824.635 858.067 825.049Q858.711 825.464 859.308 825.943Q859.905 826.423 860.448 826.962Q860.992 827.502 861.475 828.095Q861.959 828.689 862.378 829.33Q862.796 829.971 863.145 830.652Q863.495 831.334 863.77 832.048Q864.046 832.763 864.245 833.502C865.27 837.262 864.774 841.483 862.812 844.859C860.413 848.989 856.96 850.768 852.519 852.055C849.684 852.22 846.923 851.975 844.303 850.8Q843.583 850.481 842.901 850.088Q842.218 849.695 841.581 849.233Q840.943 848.771 840.357 848.245Q839.771 847.718 839.244 847.134Q838.716 846.549 838.253 845.913Q837.789 845.276 837.395 844.594Q837 843.913 836.679 843.194Q836.358 842.475 836.114 841.726Q835.87 841.004 835.704 840.26Q835.537 839.516 835.449 838.759Q835.362 838.001 835.354 837.239Q835.346 836.477 835.418 835.718Q835.49 834.959 835.641 834.212Q835.792 833.465 836.021 832.737Q836.25 832.01 836.553 831.311Q836.857 830.612 837.232 829.948C839.618 825.755 843.357 823.898 847.787 822.601Z"/>
	<path fill="#080717" transform="scale(0.279862 0.279862)" d="M798.207 863.269C804.677 860.47 811.458 858.75 818.353 861.323C824.152 863.486 828.812 868.278 831.231 873.931Q831.465 874.472 831.672 875.024Q831.879 875.577 832.059 876.138Q832.238 876.7 832.389 877.27Q832.541 877.84 832.663 878.417Q832.786 878.994 832.88 879.576Q832.974 880.158 833.038 880.745Q833.103 881.331 833.139 881.919Q833.174 882.508 833.181 883.098Q833.187 883.688 833.164 884.277Q833.141 884.866 833.089 885.453Q833.036 886.041 832.955 886.625Q832.874 887.209 832.763 887.788Q832.653 888.368 832.514 888.941Q832.375 889.514 832.207 890.079Q832.04 890.645 831.845 891.201Q831.65 891.758 831.427 892.304C829.102 898.05 824.536 902.833 818.707 905.053C812.898 907.266 805.995 906.986 800.381 904.323C794.73 901.643 790.6 896.709 788.674 890.795C787.548 887.338 787.396 883.985 787.463 880.395C789.013 872.557 791.884 868.127 798.207 863.269Z"/>
	<path fill="#FEFEFF" transform="scale(0.279862 0.279862)" d="M806.287 863.137C810.496 862.599 814.278 862.782 818.199 864.546C823.12 866.761 826.96 871.087 828.843 876.116Q829.03 876.609 829.192 877.11Q829.354 877.612 829.49 878.121Q829.625 878.63 829.735 879.146Q829.844 879.661 829.927 880.182Q830.009 880.702 830.065 881.226Q830.12 881.75 830.149 882.277Q830.178 882.803 830.179 883.33Q830.18 883.857 830.155 884.383Q830.129 884.91 830.076 885.434Q830.023 885.958 829.943 886.479Q829.864 887 829.757 887.516Q829.65 888.032 829.517 888.542Q829.384 889.052 829.225 889.555Q829.066 890.057 828.881 890.551Q828.697 891.044 828.487 891.528Q828.277 892.011 828.042 892.483C825.085 898.369 820.161 901.546 814.052 903.421C809.948 904.041 806.115 903.863 802.291 902.118C797.059 899.731 792.956 894.906 791.191 889.461Q791.031 888.963 790.897 888.456Q790.763 887.95 790.655 887.438Q790.547 886.926 790.465 886.409Q790.383 885.892 790.328 885.371Q790.273 884.851 790.244 884.328Q790.215 883.805 790.213 883.281Q790.211 882.758 790.236 882.235Q790.261 881.712 790.312 881.191Q790.363 880.67 790.441 880.152Q790.519 879.635 790.623 879.122Q790.728 878.609 790.858 878.102Q790.988 877.594 791.144 877.095Q791.3 876.595 791.481 876.104Q791.662 875.613 791.868 875.131Q792.074 874.65 792.305 874.18Q792.535 873.71 792.789 873.252C795.811 867.77 800.441 864.812 806.287 863.137Z"/>
	<path fill="#080717" transform="scale(0.279862 0.279862)" d="M223.52 164.673C221.111 165.562 218.825 166.257 216.246 166.511C209.766 167.149 203.603 165.378 198.641 161.118Q198.194 160.73 197.767 160.319Q197.341 159.909 196.935 159.478Q196.53 159.046 196.147 158.595Q195.764 158.144 195.404 157.674Q195.044 157.204 194.708 156.716Q194.373 156.229 194.062 155.725Q193.751 155.221 193.467 154.702Q193.182 154.183 192.924 153.65Q192.666 153.117 192.435 152.572Q192.204 152.027 192.001 151.471Q191.798 150.915 191.623 150.349Q191.448 149.784 191.302 149.21Q191.156 148.636 191.039 148.056Q190.923 147.476 190.835 146.89Q190.748 146.305 190.69 145.715Q190.633 145.126 190.605 144.535C190.275 138.33 192.269 132.091 196.487 127.48Q196.899 127.038 197.332 126.617Q197.766 126.196 198.22 125.798Q198.675 125.4 199.149 125.026Q199.623 124.652 200.116 124.302Q200.608 123.952 201.118 123.628Q201.628 123.304 202.154 123.007Q202.68 122.709 203.22 122.439Q203.76 122.169 204.314 121.926Q204.867 121.684 205.432 121.47Q205.997 121.256 206.572 121.072Q207.148 120.887 207.732 120.732Q208.316 120.577 208.907 120.452Q209.498 120.327 210.094 120.232Q210.691 120.137 211.292 120.073Q211.892 120.009 212.496 119.976Q213.099 119.943 213.703 119.94C220.525 119.848 226.471 122.197 231.267 127.058C236.21 132.067 237.095 138 236.999 144.703C234.894 153.05 231.008 160.043 223.52 164.673Z"/>
	<path fill="#FEFEFF" transform="scale(0.279862 0.279862)" d="M209.771 123.124C214.023 122.791 217.944 122.99 221.966 124.615C226.81 126.572 230.779 130.34 232.691 135.234C234.549 139.987 233.998 144.552 231.895 149.11C229.098 155.17 224.503 160.891 218.15 163.207C213.298 163.812 208.584 163.39 204.198 161.082Q203.758 160.85 203.33 160.596Q202.903 160.342 202.488 160.067Q202.073 159.793 201.673 159.498Q201.272 159.203 200.886 158.889Q200.501 158.574 200.131 158.241Q199.762 157.908 199.409 157.557Q199.057 157.206 198.722 156.838Q198.387 156.47 198.071 156.086Q197.755 155.702 197.458 155.303Q197.162 154.904 196.885 154.49Q196.609 154.077 196.353 153.65Q196.097 153.223 195.863 152.785Q195.628 152.346 195.416 151.896Q195.204 151.446 195.014 150.986Q194.824 150.527 194.657 150.058Q194.49 149.589 194.347 149.113Q194.204 148.63 194.085 148.141Q193.967 147.652 193.872 147.158Q193.777 146.664 193.707 146.165Q193.636 145.667 193.591 145.166Q193.545 144.664 193.524 144.161Q193.503 143.659 193.506 143.155Q193.51 142.652 193.538 142.149Q193.566 141.647 193.619 141.146Q193.672 140.646 193.75 140.148Q193.827 139.651 193.929 139.158Q194.031 138.665 194.156 138.178Q194.282 137.691 194.432 137.21Q194.581 136.729 194.754 136.257Q194.927 135.784 195.123 135.321Q195.319 134.857 195.538 134.404Q195.756 133.95 195.997 133.508C199.034 127.945 203.867 124.91 209.771 123.124Z"/>
	<path fill="#A5A5FB" transform="scale(0.279862 0.279862)" d="M329.868 895.749C334.967 897.305 339.959 900.031 344.863 902.15Q357.535 907.655 370.581 912.202Q378.972 915.106 387.478 917.656Q395.984 920.205 404.59 922.395Q413.195 924.585 421.885 926.412Q430.575 928.238 439.334 929.699Q448.093 931.159 456.906 932.25Q465.718 933.341 474.569 934.061Q483.419 934.781 492.292 935.129Q501.165 935.477 510.045 935.452C571.289 935.296 633.714 924.057 689.427 897.943C702.422 891.851 714.942 884.606 727.247 877.24Q744.503 866.872 760.777 855.021Q777.052 843.171 792.217 829.931C802.158 821.126 811.947 811.829 820.925 802.039C827.599 794.762 833.806 786.971 840.772 779.978C839.11 787.111 834.651 794.533 831.438 801.12C824.756 814.82 818.083 828.575 810.534 841.826C808.163 845.989 798.776 859.331 798.207 863.269C791.884 868.127 789.013 872.557 787.463 880.395C787.362 880.508 787.259 880.62 787.158 880.735C783.813 884.543 781.192 889.078 778.158 893.147C773.156 899.854 767.475 906.363 761.746 912.462C720.945 955.898 666.899 982.555 607.343 986.808C526.953 992.548 448.928 960.416 379.021 924.077C367.475 918.076 356.177 911.732 344.889 905.261C340.488 902.738 335.232 900.317 331.258 897.228C330.699 896.794 330.304 896.3 329.868 895.749Z"/>
	<path fill="#A5A5FB" transform="scale(0.279862 0.279862)" d="M277.919 866.298C273.14 865.611 262.896 859.275 258.193 856.884C241.072 848.179 224.724 838.364 208.474 828.141C173.735 806.287 140.746 782.333 111.437 753.481C65.8044 708.559 36.8151 653.917 36.363 588.904C35.9494 529.441 53.4058 472.274 79.1272 419.119C86.7375 403.392 95.2932 388.098 103.719 372.801C109.628 362.073 116.004 351.653 122.394 341.207C125.109 336.769 127.744 331.169 131.354 327.502C131.312 327.664 131.272 327.826 131.227 327.986C128.891 336.381 123.682 345.173 120.352 353.407Q110.378 378.316 103.486 404.248Q102.206 409.134 101.041 414.05Q99.8763 418.965 98.828 423.907Q97.7798 428.848 96.8485 433.813Q95.9173 438.778 95.1035 443.763Q94.2897 448.749 93.5939 453.752Q92.8981 458.755 92.3207 463.774Q91.7432 468.792 91.2844 473.823Q90.8257 478.853 90.4858 483.893Q90.1459 488.933 89.9252 493.98Q89.7045 499.026 89.603 504.077Q89.5014 509.127 89.5192 514.179Q89.537 519.23 89.6741 524.28Q89.8112 529.329 90.0675 534.374Q90.3238 539.419 90.6991 544.456Q91.0745 549.494 91.5687 554.521Q92.0629 559.548 92.6757 564.562Q93.2885 569.577 94.0195 574.575Q94.7505 579.573 95.5994 584.553Q96.4482 589.532 97.4144 594.49Q98.3806 599.449 99.4637 604.383Q100.547 609.317 101.746 614.224Q102.945 619.131 104.26 624.008Q105.575 628.885 107.004 633.73Q108.434 638.575 109.978 643.385Q111.521 648.195 113.178 652.967Q114.835 657.739 116.604 662.47Q118.373 667.202 120.253 671.89Q122.133 676.579 124.124 681.221Q126.114 685.864 128.214 690.459Q130.313 695.053 132.521 699.597Q134.728 704.14 137.042 708.631Q139.356 713.121 141.776 717.555Q144.153 721.877 146.63 726.143Q149.106 730.409 151.682 734.616Q154.257 738.823 156.93 742.968Q159.602 747.114 162.371 751.197Q165.139 755.279 168.002 759.296Q170.864 763.313 173.82 767.263Q176.775 771.212 179.821 775.091Q182.868 778.971 186.004 782.778Q189.14 786.586 192.363 790.319Q195.587 794.053 198.897 797.71Q202.206 801.367 205.6 804.947Q208.994 808.526 212.471 812.026Q215.947 815.525 219.504 818.943Q223.061 822.36 226.696 825.694Q230.331 829.028 234.043 832.276Q237.755 835.525 241.542 838.686Q252.385 847.763 263.854 856.036C268.446 859.354 273.753 862.493 277.919 866.298Z"/>
	<path fill="#A5A5FB" transform="scale(0.279862 0.279862)" d="M748.121 161.692C753.828 162.502 772.544 173.874 778.499 177.208C831.188 206.701 904.008 252.257 940.11 300.366C979.679 353.096 995.721 415.23 986.368 480.604C978.279 537.143 942.983 613.116 914.35 662.681C911.619 667.409 902.463 684.321 898.677 687.227C898.329 687.494 897.964 687.737 897.601 687.984C899.59 682.071 902.469 676.351 904.75 670.533C908.406 661.205 911.595 651.637 914.631 642.092Q916.276 636.876 917.786 631.619Q919.297 626.362 920.672 621.068Q922.047 615.774 923.285 610.447Q924.524 605.119 925.625 599.762Q926.726 594.404 927.69 589.02Q928.653 583.636 929.478 578.229Q930.302 572.822 930.988 567.395Q931.673 561.969 932.219 556.527Q932.765 551.085 933.171 545.63Q933.577 540.176 933.843 534.713Q934.109 529.249 934.234 523.781Q934.359 518.313 934.344 512.844Q934.329 507.374 934.173 501.907Q934.018 496.439 933.722 490.978Q933.426 485.516 932.989 480.064Q932.553 474.612 931.977 469.173Q931.543 464.758 931.015 460.354Q930.487 455.95 929.865 451.558Q929.244 447.166 928.529 442.788Q927.814 438.41 927.007 434.049Q926.199 429.687 925.299 425.343Q924.399 421 923.406 416.677Q922.414 412.353 921.33 408.052Q920.246 403.751 919.071 399.473Q917.895 395.196 916.63 390.945Q915.364 386.693 914.007 382.47Q912.651 378.247 911.206 374.053Q909.76 369.859 908.226 365.697Q906.692 361.535 905.069 357.407Q903.447 353.279 901.737 349.186Q900.027 345.093 898.23 341.037Q896.434 336.981 894.551 332.965Q892.669 328.948 890.701 324.972Q888.734 320.997 886.683 317.064Q884.631 313.131 882.497 309.242Q880.362 305.354 878.145 301.512Q875.928 297.67 873.63 293.876Q871.332 290.081 868.954 286.337Q866.576 282.593 864.119 278.9Q861.662 275.207 859.126 271.567Q856.591 267.927 853.979 264.342Q851.367 260.756 848.68 257.227Q845.992 253.699 843.23 250.228Q840.468 246.757 837.633 243.345Q834.797 239.934 831.89 236.584Q828.983 233.233 826.005 229.945Q823.028 226.658 819.981 223.434Q816.934 220.21 813.819 217.052C798.836 202.138 783.13 188.77 766.56 175.663C760.512 170.879 754.075 166.578 748.121 161.692Z"/>
	<path fill="#A5A5FB" transform="scale(0.279862 0.279862)" d="M236.999 144.703C240.801 140.066 244.183 135.052 247.987 130.391C263.598 111.264 281.124 92.5122 301.263 78.0791C354.182 40.1539 409.94 27.3785 474.157 38.1168C540.882 49.2747 610.66 80.2414 668.502 114.706C673.329 117.582 688.713 125.492 691.609 129.557C682.663 126.038 674.058 121.699 665.126 118.118C651.25 112.554 636.75 108.106 622.355 104.097Q618.057 102.915 613.734 101.825Q609.411 100.734 605.066 99.7357Q600.722 98.7374 596.357 97.8317Q591.991 96.9259 587.608 96.1131Q583.225 95.3003 578.825 94.5809Q574.426 93.8615 570.012 93.2357Q565.598 92.6099 561.172 92.0781Q556.745 91.5463 552.309 91.1086Q547.872 90.671 543.428 90.3278Q538.983 89.9845 534.532 89.7358Q530.081 89.4871 525.625 89.333Q521.17 89.179 516.712 89.1197Q512.255 89.0603 507.797 89.0958Q503.339 89.1312 498.883 89.2614Q494.426 89.3915 489.974 89.6164Q485.522 89.8412 481.075 90.1606Q476.629 90.48 472.19 90.8939Q467.751 91.3077 463.322 91.8158Q458.893 92.3239 454.476 92.926Q450.059 93.5281 445.655 94.224Q441.252 94.9198 436.864 95.7091Q432.477 96.4984 428.107 97.3807Q423.737 98.263 419.387 99.2381Q415.037 100.213 410.708 101.28Q406.38 102.348 402.075 103.507Q397.771 104.666 393.491 105.916Q389.212 107.166 384.961 108.507Q380.709 109.848 376.487 111.279Q372.265 112.71 368.074 114.23Q363.883 115.75 359.726 117.359Q355.568 118.969 351.446 120.666Q347.323 122.363 343.238 124.147C289.915 147.389 243.057 182.637 203.146 224.672C196.08 232.115 189.452 239.929 182.833 247.768C179.827 251.327 176.957 255.264 173.72 258.587C173.067 251.826 206.718 191.499 212.035 182.449C215.619 176.347 219.903 170.728 223.52 164.673C231.008 160.043 234.894 153.05 236.999 144.703Z"/>
	<path fill="#080717" transform="scale(0.279862 0.279862)" d="M173.72 258.587C176.957 255.264 179.827 251.327 182.833 247.768C189.452 239.929 196.08 232.115 203.146 224.672C243.057 182.637 289.915 147.389 343.238 124.147Q347.323 122.363 351.446 120.666Q355.568 118.969 359.726 117.359Q363.883 115.75 368.074 114.23Q372.265 112.71 376.487 111.279Q380.709 109.848 384.961 108.507Q389.212 107.166 393.491 105.916Q397.771 104.666 402.075 103.507Q406.38 102.348 410.708 101.28Q415.037 100.213 419.387 99.2381Q423.737 98.263 428.107 97.3807Q432.477 96.4983 436.864 95.7091Q441.252 94.9198 445.655 94.224Q450.059 93.5281 454.476 92.926Q458.893 92.3239 463.322 91.8158Q467.751 91.3077 472.19 90.8939Q476.629 90.48 481.075 90.1606Q485.522 89.8412 489.974 89.6164Q494.426 89.3915 498.883 89.2614Q503.339 89.1312 507.797 89.0958Q512.255 89.0603 516.712 89.1197Q521.17 89.179 525.625 89.3331Q530.081 89.4871 534.532 89.7358Q538.983 89.9845 543.428 90.3278Q547.872 90.671 552.309 91.1086Q556.745 91.5463 561.172 92.0781Q565.598 92.6099 570.012 93.2357Q574.426 93.8615 578.825 94.5809Q583.225 95.3003 587.608 96.1131Q591.991 96.9259 596.357 97.8317Q600.722 98.7374 605.066 99.7357Q609.411 100.734 613.734 101.825Q618.057 102.915 622.355 104.097C636.75 108.106 651.25 112.554 665.126 118.118C674.058 121.699 682.663 126.038 691.609 129.557C703.282 135.821 715.248 141.581 726.664 148.314C733.789 152.516 740.685 158.219 748.121 161.692C754.075 166.578 760.512 170.879 766.56 175.663C783.13 188.77 798.836 202.138 813.819 217.052Q816.934 220.21 819.981 223.434Q823.028 226.658 826.005 229.945Q828.983 233.233 831.89 236.584Q834.797 239.934 837.632 243.345Q840.468 246.757 843.23 250.228Q845.992 253.699 848.68 257.227Q851.367 260.756 853.979 264.342Q856.591 267.927 859.126 271.567Q861.662 275.207 864.119 278.9Q866.576 282.593 868.954 286.337Q871.332 290.081 873.63 293.876Q875.928 297.67 878.145 301.512Q880.362 305.354 882.496 309.242Q884.631 313.131 886.683 317.064Q888.734 320.997 890.701 324.972Q892.669 328.948 894.551 332.965Q896.434 336.981 898.23 341.037Q900.027 345.093 901.737 349.186Q903.447 353.279 905.069 357.407Q906.692 361.535 908.226 365.697Q909.76 369.859 911.206 374.053Q912.651 378.247 914.007 382.47Q915.363 386.693 916.629 390.945Q917.895 395.196 919.071 399.473Q920.246 403.751 921.33 408.052Q922.414 412.353 923.406 416.677Q924.399 421 925.299 425.343Q926.199 429.687 927.007 434.049Q927.814 438.41 928.529 442.788Q929.244 447.166 929.865 451.558Q930.487 455.95 931.015 460.354Q931.543 464.758 931.977 469.173Q932.553 474.612 932.989 480.064Q933.426 485.516 933.722 490.978Q934.018 496.439 934.173 501.907Q934.329 507.374 934.344 512.844Q934.359 518.313 934.234 523.781Q934.109 529.249 933.843 534.713Q933.577 540.176 933.171 545.63Q932.765 551.085 932.219 556.527Q931.673 561.969 930.988 567.395Q930.302 572.822 929.478 578.229Q928.653 583.636 927.69 589.02Q926.726 594.404 925.625 599.762Q924.524 605.119 923.285 610.447Q922.047 615.774 920.672 621.068Q919.297 626.362 917.786 631.619Q916.276 636.876 914.631 642.092C911.595 651.637 908.406 661.205 904.75 670.533C902.469 676.351 899.59 682.071 897.601 687.984Q889.711 704.914 880.459 721.14Q871.208 737.365 860.657 752.778Q854.35 761.882 847.59 770.655C845.325 773.651 842.541 776.699 840.772 779.978C833.806 786.971 827.599 794.762 820.925 802.039C811.947 811.829 802.158 821.126 792.217 829.931Q777.052 843.171 760.778 855.021Q744.503 866.872 727.247 877.24C714.942 884.606 702.422 891.851 689.427 897.943C633.714 924.057 571.289 935.296 510.045 935.452Q501.165 935.477 492.292 935.129Q483.419 934.781 474.569 934.061Q465.718 933.341 456.906 932.25Q448.093 931.159 439.334 929.698Q430.575 928.238 421.885 926.412Q413.195 924.585 404.59 922.395Q395.984 920.205 387.478 917.656Q378.972 915.106 370.581 912.202Q357.535 907.655 344.863 902.15C339.959 900.031 334.967 897.305 329.868 895.749C311.96 886.717 294.886 877 277.919 866.298C273.753 862.493 268.446 859.354 263.854 856.036Q252.385 847.763 241.542 838.686Q237.755 835.525 234.043 832.276Q230.331 829.028 226.696 825.694Q223.061 822.36 219.504 818.943Q215.947 815.525 212.471 812.026Q208.994 808.526 205.6 804.947Q202.206 801.367 198.897 797.71Q195.587 794.053 192.363 790.319Q189.14 786.586 186.004 782.778Q182.868 778.971 179.821 775.091Q176.775 771.212 173.82 767.263Q170.864 763.313 168.002 759.296Q165.139 755.279 162.371 751.197Q159.602 747.114 156.93 742.968Q154.257 738.823 151.682 734.616Q149.106 730.409 146.63 726.143Q144.153 721.877 141.776 717.555Q139.356 713.121 137.042 708.631Q134.728 704.14 132.521 699.597Q130.313 695.053 128.214 690.459Q126.114 685.864 124.124 681.221Q122.133 676.579 120.253 671.89Q118.373 667.202 116.604 662.47Q114.835 657.739 113.178 652.967Q111.521 648.195 109.978 643.385Q108.434 638.575 107.004 633.73Q105.575 628.885 104.26 624.008Q102.945 619.131 101.746 614.224Q100.547 609.317 99.4637 604.383Q98.3807 599.449 97.4145 594.49Q96.4482 589.532 95.5994 584.553Q94.7505 579.573 94.0195 574.575Q93.2885 569.577 92.6757 564.562Q92.0629 559.548 91.5687 554.521Q91.0745 549.494 90.6991 544.456Q90.3238 539.419 90.0675 534.374Q89.8112 529.329 89.6741 524.279Q89.537 519.23 89.5193 514.179Q89.5015 509.127 89.603 504.077Q89.7045 499.026 89.9252 493.98Q90.1459 488.933 90.4858 483.893Q90.8257 478.853 91.2844 473.823Q91.7432 468.792 92.3207 463.774Q92.8981 458.755 93.5939 453.752Q94.2897 448.749 95.1035 443.763Q95.9173 438.778 96.8485 433.813Q97.7798 428.848 98.828 423.907Q99.8763 418.965 101.041 414.05Q102.206 409.134 103.486 404.248Q110.378 378.316 120.352 353.407C123.682 345.173 128.891 336.381 131.227 327.986C131.272 327.826 131.312 327.664 131.354 327.502C138.715 313.576 145.952 299.451 154.484 286.196C160.555 276.767 167.583 267.965 173.72 258.587Z"/>
	<path fill="#FEFEFF" transform="scale(0.279862 0.279862)" d="M502.618 93.254Q504.064 93.1693 505.512 93.1269C523.835 92.6086 542.281 94.1187 560.46 96.3067C652.271 107.357 734.246 147.325 801.303 210.667Q805.006 214.19 808.62 217.802Q812.235 221.415 815.76 225.116Q819.284 228.817 822.716 232.604Q826.148 236.391 829.485 240.262Q832.823 244.132 836.063 248.084Q839.304 252.036 842.446 256.067Q845.589 260.097 848.63 264.204Q851.672 268.311 854.611 272.492Q857.551 276.673 860.386 280.925Q863.221 285.177 865.95 289.498Q868.68 293.819 871.301 298.206Q873.923 302.593 876.436 307.043Q878.948 311.494 881.35 316.005Q883.752 320.516 886.042 325.085Q888.332 329.654 890.508 334.278Q892.685 338.902 894.746 343.579Q896.808 348.255 898.753 352.981Q900.698 357.707 902.526 362.48Q904.354 367.252 906.064 372.068Q907.774 376.885 909.364 381.742Q910.954 386.599 912.424 391.494Q913.893 396.388 915.242 401.318Q916.59 406.248 917.817 411.209Q919.043 416.17 920.146 421.161Q921.25 426.151 922.229 431.167Q923.209 436.182 924.065 441.221Q924.92 446.26 925.651 451.318Q926.382 456.376 926.988 461.451Q927.594 466.525 928.074 471.613Q928.555 476.701 928.909 481.8Q929.264 486.898 929.492 492.004Q929.721 497.109 929.823 502.219Q930.001 507.326 930.052 512.435Q930.104 517.545 930.028 522.654Q929.953 527.763 929.751 532.869Q929.549 537.974 929.221 543.074Q928.892 548.173 928.437 553.262Q927.983 558.352 927.402 563.428Q926.821 568.505 926.114 573.566Q925.408 578.626 924.576 583.668Q923.744 588.709 922.788 593.729Q921.831 598.748 920.751 603.742Q919.67 608.737 918.466 613.703Q917.262 618.668 915.935 623.603Q914.608 628.537 913.16 633.437Q911.711 638.337 910.141 643.2Q908.571 648.062 906.881 652.885Q905.192 657.707 903.383 662.486Q901.574 667.265 899.647 671.997Q897.72 676.73 895.677 681.413Q893.633 686.096 891.474 690.728Q889.315 695.359 887.042 699.935Q884.769 704.511 882.383 709.03Q879.997 713.548 877.5 718.006Q875.003 722.464 872.396 726.859Q869.789 731.254 867.074 735.582Q864.359 739.911 861.537 744.171Q858.716 748.431 855.789 752.62Q852.863 756.809 849.834 760.924Q846.804 765.039 843.674 769.077Q840.544 773.116 837.314 777.076Q834.085 781.036 830.758 784.914Q827.431 788.792 824.01 792.587Q820.588 796.382 817.073 800.091C737.137 884.491 636.252 927.987 520.375 931.107L519.763 931.127Q514.669 931.264 509.572 931.276Q504.476 931.287 499.381 931.173Q494.286 931.059 489.195 930.819Q484.105 930.579 479.021 930.214Q473.938 929.848 468.866 929.357Q463.793 928.867 458.734 928.251Q453.675 927.635 448.633 926.895Q443.591 926.155 438.568 925.29Q433.546 924.426 428.546 923.438Q423.546 922.45 418.573 921.339Q413.599 920.227 408.654 918.994Q403.709 917.76 398.797 916.405Q393.884 915.05 389.006 913.574Q384.128 912.099 379.288 910.503Q374.448 908.907 369.649 907.193Q364.849 905.478 360.094 903.645Q355.339 901.813 350.63 899.863Q345.921 897.914 341.262 895.849Q336.602 893.784 331.996 891.605Q327.389 889.426 322.837 887.134Q318.285 884.842 313.791 882.438Q309.298 880.034 304.864 877.521Q300.431 875.007 296.061 872.384Q291.692 869.762 287.388 867.032Q283.084 864.303 278.849 861.468Q274.614 858.633 270.45 855.695Q266.286 852.756 262.196 849.716Q258.106 846.676 254.092 843.536Q250.078 840.396 246.143 837.157Q242.208 833.919 238.354 830.585Q234.499 827.25 230.729 823.822Q226.958 820.393 223.273 816.873Q219.562 813.318 215.938 809.673Q212.315 806.029 208.782 802.297Q205.248 798.565 201.807 794.748Q198.366 790.931 195.018 787.031Q191.671 783.131 188.42 779.151Q185.169 775.171 182.016 771.112Q178.863 767.054 175.81 762.919Q172.757 758.785 169.806 754.578Q166.855 750.37 164.007 746.092Q161.16 741.814 158.417 737.468Q155.675 733.121 153.039 728.709Q150.403 724.297 147.876 719.822Q145.349 715.348 142.932 710.812Q140.514 706.277 138.208 701.684Q135.903 697.091 133.709 692.443Q131.516 687.795 129.437 683.095Q127.358 678.395 125.394 673.646Q123.43 668.897 121.583 664.101Q119.735 659.305 118.006 654.466Q116.276 649.627 114.665 644.747Q113.053 639.866 111.562 634.948Q110.07 630.03 108.699 625.077Q107.327 620.124 106.077 615.139Q104.827 610.155 103.699 605.141Q102.571 600.127 101.566 595.087Q100.56 590.047 99.678 584.984Q98.7959 579.921 98.0375 574.838Q97.2792 569.755 96.6451 564.655Q96.0109 559.555 95.5014 554.441Q94.9919 549.327 94.6073 544.202Q94.2227 539.077 93.9632 533.944Q93.7038 528.812 93.5696 523.674Q93.4228 518.569 93.4016 513.461Q93.3805 508.354 93.4851 503.248Q93.5896 498.141 93.8198 493.039Q94.05 487.937 94.4056 482.842Q94.7613 477.747 95.2422 472.662Q95.7232 467.577 96.3291 462.506Q96.935 457.435 97.6656 452.38Q98.3961 447.325 99.2508 442.289Q100.106 437.254 101.084 432.241Q102.062 427.228 103.164 422.241Q104.265 417.254 105.489 412.295Q106.713 407.336 108.058 402.409Q109.404 397.482 110.87 392.59Q112.336 387.698 113.923 382.843Q115.509 377.988 117.214 373.174Q118.919 368.359 120.743 363.588Q122.566 358.817 124.506 354.093Q126.446 349.368 128.502 344.693Q130.557 340.017 132.728 335.394Q134.898 330.77 137.181 326.202Q139.464 321.633 141.859 317.122Q144.254 312.611 146.76 308.16Q149.265 303.71 151.879 299.322Q154.493 294.934 157.214 290.612Q159.936 286.29 162.762 282.036Q165.589 277.782 168.52 273.599Q171.45 269.416 174.483 265.307Q177.516 261.197 180.649 257.163Q183.782 253.13 187.013 249.174Q190.244 245.219 193.571 241.344Q196.899 237.469 200.321 233.678Q203.743 229.886 207.257 226.18C285.827 143.126 388.267 96.4166 502.618 93.254Z"/>
	<path fill="#080717" transform="scale(0.279862 0.279862)" d="M511.996 154.483C512.044 152.782 511.973 151.53 512.992 150.074L513.806 149.972C515.132 151.419 514.979 152.458 515.263 154.365C574.584 154.573 626.247 184.976 669.275 223.527C675.872 230.028 686.697 232.833 694.905 237.175C705.783 242.93 716.722 249.003 727.046 255.697C800.7 303.455 857.32 380.271 858.056 470.609C858.148 481.854 857.101 492.833 856.265 504.023C861.49 503.872 880.282 501.753 884.079 503.417L884.1 504.213C880.019 507.664 860.061 504.577 855.754 507.425C855.214 507.782 854.992 508.688 854.734 509.26C855.041 514.123 852.675 520.796 852.344 526.196C850.417 557.614 839.153 586.548 821.331 612.349C816.252 619.703 809.545 626.419 805.254 634.196C799.49 648.565 790.383 662.836 781.577 675.528Q779.854 678.012 778.088 680.465Q776.321 682.918 774.512 685.34Q772.703 687.761 770.851 690.151Q768.999 692.54 767.105 694.896Q765.211 697.252 763.276 699.575Q761.341 701.897 759.365 704.185Q757.39 706.473 755.374 708.725Q753.358 710.978 751.303 713.195Q749.248 715.412 747.154 717.592Q745.06 719.772 742.927 721.915Q740.795 724.057 738.625 726.162Q736.456 728.267 734.249 730.333Q732.043 732.4 729.8 734.427Q727.557 736.454 725.279 738.441Q723.001 740.428 720.689 742.374Q718.376 744.321 716.029 746.226Q713.682 748.132 711.302 749.995Q708.922 751.859 706.51 753.681Q704.097 755.502 701.653 757.281Q699.209 759.059 696.733 760.794Q694.258 762.53 691.752 764.221Q689.247 765.912 686.712 767.559Q684.177 769.205 681.613 770.807Q679.049 772.409 676.458 773.965Q673.866 775.521 671.248 777.032Q668.629 778.542 665.984 780.006Q663.339 781.469 660.669 782.886Q657.999 784.303 655.304 785.673Q652.609 787.042 649.891 788.364Q647.172 789.686 644.43 790.959Q641.689 792.233 638.925 793.458Q636.162 794.683 633.377 795.859C626.787 798.666 619.984 801.363 613.062 803.223L610.86 804.128L608.717 805.962C581.738 831.408 551.566 846.365 513.987 847.79C514.042 851.757 514.245 855.786 512.962 859.598L512.148 859.609C511.019 855.544 510.99 851.897 510.97 847.716C474.126 846.512 447.642 830.759 420.708 807.469C419.471 806.194 418.139 805.006 416.557 804.171C412.336 801.941 407.442 800.481 402.99 798.748Q392.317 794.551 381.981 789.582Q376.931 787.111 371.967 784.473Q367.002 781.836 362.128 779.034Q357.254 776.233 352.475 773.271Q347.697 770.309 343.02 767.19Q338.343 764.071 333.772 760.798Q329.201 757.525 324.741 754.102Q320.282 750.679 315.939 747.109Q311.596 743.54 307.374 739.828Q303.152 736.116 299.055 732.265Q294.959 728.415 290.993 724.43Q287.027 720.446 283.196 716.331Q279.365 712.217 275.673 707.978Q271.98 703.739 268.431 699.379Q264.882 695.019 261.48 690.543Q258.077 686.068 254.826 681.482Q251.574 676.896 248.477 672.204C242.354 663.407 233.001 656.27 225.691 648.328C202.197 622.805 183.55 591.322 177.802 556.75Q175.994 545.999 176.031 535.097C176.077 527.237 176.837 519.863 175.517 512.037L174.232 505.515C169.565 505.207 164.988 505.339 160.323 505.279C157.981 505.248 155.564 505.428 153.835 503.66L154.158 502.569C157.388 501.08 169.905 502.38 173.995 502.526C172.055 489.29 171.251 475.265 171.667 461.892C174.4 373.999 233.731 299.841 305.22 253.825Q319.223 244.92 333.982 237.336C341.611 233.41 354.488 229.445 360.408 223.767C360.585 223.598 360.757 223.425 360.931 223.253C402.804 184.831 453.928 155.778 511.996 154.483Z"/>
	<path fill="#FEFEFF" transform="scale(0.279862 0.279862)" d="M611.549 433.408C613.006 433.411 614.286 433.428 615.367 434.511C616.705 435.853 617.027 438.006 617.17 439.818C617.449 443.339 616.955 447.03 616.943 450.575L616.991 478.996C617.021 503.766 617.758 528.789 616.945 553.531C616.825 557.197 616.831 559.46 613.994 562.094C612.895 561.844 611.637 561.592 610.815 560.756C609.33 559.246 609.464 556.501 609.368 554.536C608.121 529.129 609.309 503.324 609.369 477.875Q609.424 464.987 609.207 452.1C609.136 447.267 608.683 442.079 609.231 437.288C609.415 435.672 610.504 434.562 611.549 433.408Z"/>
	<path fill="#FEFEFF" transform="scale(0.279862 0.279862)" d="M363.236 434.042C375.401 433.47 387.777 433.957 399.961 433.993C407.336 434.014 414.949 433.408 422.279 433.871C424.031 433.982 425.878 434.178 427.487 434.935C428.921 435.61 429.752 436.791 430.089 438.324C430.341 439.468 430.168 440.399 429.356 441.271C425.699 445.2 405.99 443.761 400.072 443.727L400.084 536.25C400.135 540.951 401.338 557.951 398.368 561.007C397.896 561.492 397.354 561.965 396.646 561.971C395.453 561.98 394.303 561.249 393.534 560.372C392.652 559.365 392.3 558.182 392.207 556.88C391.448 546.199 392.262 532.622 392.245 521.671L392.304 443.667C384.573 443.707 376.792 444.181 369.067 443.973C366.392 443.9 362.787 443.624 360.907 441.437C360.11 440.51 359.908 439.371 360.094 438.16C360.411 436.098 361.664 435.161 363.236 434.042Z"/>
	<path fill="#FEFEFF" transform="scale(0.279862 0.279862)" d="M321.173 432.092C329.906 431.302 338.415 432.581 345.942 437.243C349.159 439.236 352.958 442.157 353.713 446.089C354.023 447.7 353.693 448.832 352.799 450.204C347.939 452.756 342.049 445.578 337.557 443.57C333.772 441.878 329.695 441.357 325.584 441.471C319.636 441.637 313.855 443.825 309.787 448.267C304.825 453.683 303.533 460.758 303.937 467.851C305.252 490.94 331.388 492.275 345.322 504.741C352.281 510.966 355.589 518.925 356.009 528.169C356.438 537.625 353.681 547.64 347.077 554.655C340.418 561.727 332.123 563.929 322.763 564.049C319.067 563.776 315.45 563.183 311.938 561.981C305.946 559.931 296.393 553.921 293.779 547.951Q293.665 547.688 293.583 547.415Q293.5 547.141 293.449 546.859Q293.398 546.578 293.379 546.292Q293.361 546.007 293.375 545.721Q293.39 545.436 293.437 545.153Q293.483 544.871 293.562 544.596Q293.641 544.321 293.751 544.057Q293.861 543.793 294 543.543C294.707 542.244 295.601 541.816 296.928 541.337C301.52 541.4 304.031 546.449 307.435 548.944C313.589 553.454 322.419 555.316 329.808 553.798C335.663 552.595 340.514 549.454 343.64 544.312Q343.974 543.754 344.281 543.18Q344.587 542.607 344.865 542.019Q345.143 541.43 345.392 540.829Q345.64 540.228 345.859 539.616Q346.077 539.003 346.266 538.381Q346.454 537.758 346.611 537.127Q346.769 536.496 346.895 535.858Q347.021 535.22 347.115 534.576Q347.21 533.933 347.273 533.285Q347.335 532.638 347.366 531.988Q347.397 531.338 347.396 530.688Q347.395 530.038 347.361 529.388Q347.328 528.738 347.263 528.091Q347.198 527.444 347.101 526.801Q347.004 526.158 346.875 525.52Q346.747 524.883 346.587 524.252C342.384 507.544 324.641 504.847 311.952 496.969C303.944 491.997 298.078 485.291 296.016 475.919C293.901 466.303 295.163 454.326 300.546 445.983C305.4 438.461 312.521 434.011 321.173 432.092Z"/>
	<path fill="#FEFEFF" transform="scale(0.279862 0.279862)" d="M253.03 674.171C260.501 678.35 267.141 684.833 274.363 689.553C299.983 706.3 326.431 722.705 350.463 741.695C365.192 753.334 378.789 766.202 392.132 779.381C398.522 785.692 406.434 792.222 411.805 799.36Q406.691 797.434 401.642 795.341Q396.594 793.248 391.617 790.991Q386.64 788.733 381.74 786.313Q376.84 783.893 372.022 781.314Q367.204 778.734 362.473 775.998Q357.743 773.262 353.105 770.372Q348.466 767.481 343.926 764.44Q339.385 761.399 334.946 758.211Q330.508 755.022 326.177 751.69Q321.845 748.357 317.626 744.884Q313.406 741.411 309.303 737.801Q305.2 734.192 301.218 730.449Q297.235 726.706 293.378 722.835Q289.521 718.964 285.792 714.968Q282.064 710.972 278.47 706.855Q274.875 702.739 271.417 698.507C265.075 690.754 258.26 682.722 253.03 674.171Z"/>
	<path fill="#FEFEFF" transform="scale(0.279862 0.279862)" d="M466.544 433.42C467.952 433.379 469.48 433.266 470.579 434.315C471.425 435.124 471.843 436.298 472.199 437.385C475.89 448.641 508.202 555.864 507.972 557.915C507.818 559.288 507.124 560.217 505.972 560.96C504.81 561.71 504.053 561.808 502.72 561.61C500.991 560.636 500.213 559.556 499.415 557.737C497.754 553.948 497.17 549.567 496.039 545.579L488.21 518.95C482.427 518.8 476.613 518.901 470.827 518.89L448.233 519.015C445.287 527.99 442.803 537.071 440.13 546.127C439.065 549.734 437.31 559.614 433.625 561.178C432.445 561.679 431.405 561.628 430.304 560.994C429.351 560.445 428.818 559.338 428.635 558.281C428.098 555.175 460.836 447.533 464.463 437.058C464.954 435.64 465.58 434.563 466.544 433.42Z"/>
	<path fill="#080717" transform="scale(0.279862 0.279862)" d="M467.899 452.703C470.582 456.393 483.179 502.196 485.585 510.411L468.75 510.471L451.04 510.501C453.907 497.696 458.247 484.889 462.114 472.337C464.12 465.828 465.699 459.137 467.899 452.703Z"/>
	<path fill="#FEFEFF" transform="scale(0.279862 0.279862)" d="M615.754 799.667C616.604 796.636 627.4 787.598 630.084 784.98C649.032 766.499 667.615 747.238 688.574 730.991C695.772 725.412 703.618 720.45 711.055 715.172C727.492 703.506 743.698 691.633 759.011 678.502C767.439 671.274 775.891 663.892 783.588 655.875C789.192 650.037 794.461 642.574 800.815 637.624C775.218 691.954 723.897 743.315 672.404 773.447C654.361 784.005 635.231 792.221 615.754 799.667Z"/>
	<path fill="#FEFEFF" transform="scale(0.279862 0.279862)" d="M679.707 233.202C689.433 236.968 698.696 242.397 707.76 247.515C761.008 277.58 810.696 324.74 835.632 381.324Q837.012 384.409 838.298 387.534Q839.585 390.659 840.778 393.821Q841.971 396.983 843.069 400.179Q844.166 403.375 845.168 406.603Q846.17 409.83 847.074 413.086Q847.979 416.342 848.786 419.624Q849.593 422.906 850.302 426.21Q851.01 429.514 851.62 432.838Q852.229 436.162 852.739 439.503Q853.249 442.844 853.658 446.198Q854.068 449.553 854.377 452.918Q854.686 456.284 854.895 459.657Q855.103 463.03 855.21 466.407Q855.318 469.785 855.324 473.164Q855.331 476.544 855.236 479.922Q855.141 483.3 854.946 486.674C854.645 491.237 854.899 498.311 853.417 502.546C853.131 503.363 852.994 503.524 852.267 503.923C851.099 502.252 846.526 477.797 844.81 472.115C838.904 452.571 829.488 434.213 818.964 416.81C805.609 394.725 789.819 374.169 774.876 353.158C756.867 327.839 739.336 302.007 719.718 277.893Q707.487 262.673 694.098 248.461C690.197 244.327 683.604 238.885 680.445 234.543C679.991 233.921 679.975 233.813 679.707 233.202Z"/>
	<path fill="#FEFEFF" transform="scale(0.279862 0.279862)" d="M524.296 433.614C529.504 433.388 534.761 433.515 539.976 433.54C552.175 433.6 563.299 433.516 573.157 441.704C585.288 451.78 589.699 469.086 591.022 484.1C592.966 506.165 590.815 531.991 576.054 549.625C574.707 550.914 573.297 552.178 571.85 553.352C562.243 561.144 550.965 561.285 539.2 561.463C535.115 561.524 530.758 561.844 526.706 561.318C524.55 561.038 522.724 560.554 521.377 558.729C520.839 556.216 520.584 553.706 520.487 551.141C520.191 543.261 520.479 535.278 520.476 527.389L520.411 479.304C520.388 471.703 519.316 442.842 520.635 437.949C521.219 435.778 522.495 434.814 524.296 433.614Z"/>
	<path fill="#080717" transform="scale(0.279862 0.279862)" d="M528.433 442.995C540.58 442.891 555.868 440.726 566.259 448.025C575.591 454.581 580.199 465.837 582.075 476.738C585.568 497.041 584.632 523 572.357 540.371C571.771 541.049 571.167 541.69 570.537 542.327C558.772 554.239 543.701 552.084 528.352 552.162L528.433 442.995Z"/>
	<path fill="#FEFEFF" transform="scale(0.279862 0.279862)" d="M351.252 232.35C350.093 235.493 344.522 239.995 342.159 242.547C314.047 272.89 289.883 305.503 265.926 339.146C234.054 383.904 201.924 428.845 185.195 481.838C184.083 485.36 180.834 500.033 179.5 501.925C179.459 501.984 178.597 502.46 178.58 502.466C178.368 502.544 178.139 502.565 177.918 502.615C177.301 502.385 176.987 502.462 176.718 501.802C175.026 497.653 175.526 490.782 175.254 486.199C173.397 454.922 176.283 424.425 187.661 394.996C215.873 322.021 280.759 263.59 351.252 232.35Z"/>
	<path fill="#FEFEFF" transform="scale(0.279862 0.279862)" d="M671.836 432.149C679.352 431.419 686.183 432.354 692.69 436.477C705.461 444.567 712.304 459.307 715.545 473.579C720.659 496.1 718.792 525.026 706.19 544.941C699.743 555.129 692.597 560.216 680.86 562.856C681.584 564.587 682.337 566.242 683.342 567.831C686.452 572.744 691.242 576.555 697.012 577.731C703.204 578.993 710.48 576.688 714.748 571.977C716.773 569.742 718.768 565.851 721.485 564.485C722.664 563.893 723.728 563.807 724.986 564.235C726.356 564.7 727.067 565.444 727.592 566.77C728.416 568.848 727.568 570.766 726.763 572.671C721.662 579.791 716.318 585.221 707.383 587.178C699.753 588.849 691.589 587.785 685.029 583.377C678.198 578.787 673.21 570.986 671.632 562.962C666.28 562.124 661.329 560.565 656.886 557.356C644.43 548.36 637.712 531.252 635.29 516.61C631.653 494.62 633.399 466.404 646.888 447.733C653.139 439.081 661.303 433.813 671.836 432.149Z"/>
	<path fill="#080717" transform="scale(0.279862 0.279862)" d="M672.95 442.147Q673.96 442.044 674.975 442.021Q675.989 441.999 677.003 442.056Q678.016 442.114 679.022 442.251Q680.027 442.389 681.019 442.605Q682.011 442.822 682.982 443.116Q683.954 443.411 684.899 443.781Q685.844 444.151 686.756 444.595Q687.669 445.039 688.544 445.554C698.053 451.122 703.47 462.04 706.162 472.343C711.19 491.588 710.589 519.364 700.159 536.874C695.149 545.284 689.14 550.574 679.517 552.955C673.028 553.82 667.184 552.541 661.776 548.758C650.927 541.168 645.808 526.596 643.704 514.092C640.635 495.847 641.833 470.931 653.002 455.349C658.103 448.232 664.201 443.646 672.95 442.147Z"/>
</svg>
