<?xml version="1.0" encoding="UTF-8" standalone="no"?>
<svg
   width="1024"
   height="1024"
   version="1.1"
   id="svg42"
   sodipodi:docname="logo.svg"
   inkscape:version="1.4 (e7c3feb1, 2024-10-09)"
   xmlns:inkscape="http://www.inkscape.org/namespaces/inkscape"
   xmlns:sodipodi="http://sodipodi.sourceforge.net/DTD/sodipodi-0.dtd"
   xmlns="http://www.w3.org/2000/svg"
   xmlns:svg="http://www.w3.org/2000/svg">
  <sodipodi:namedview
     id="namedview42"
     pagecolor="#ffffff"
     bordercolor="#000000"
     borderopacity="0.25"
     inkscape:showpageshadow="2"
     inkscape:pageopacity="0.0"
     inkscape:pagecheckerboard="0"
     inkscape:deskcolor="#d1d1d1"
     inkscape:zoom="0.2917693"
     inkscape:cx="724.88778"
     inkscape:cy="442.13013"
     inkscape:window-width="1472"
     inkscape:window-height="891"
     inkscape:window-x="0"
     inkscape:window-y="1117"
     inkscape:window-maximized="1"
     inkscape:current-layer="svg42" />
  <defs
     id="defs2">
    <linearGradient
       id="gradient_0"
       gradientUnits="userSpaceOnUse"
       x1="74.56076"
       y1="240.06506"
       x2="73.00602"
       y2="236.10503">
      <stop
         offset="0"
         stop-color="black"
         stop-opacity="0.94901961"
         id="stop1" />
      <stop
         offset="1"
         stop-color="black"
         stop-opacity="0.98431373"
         id="stop2" />
    </linearGradient>
  </defs>
  <defs
     id="defs5">
    <linearGradient
       id="gradient_1"
       gradientUnits="userSpaceOnUse"
       x1="979.29742"
       y1="750.95715"
       x2="979.71808"
       y2="748.96942">
      <stop
         offset="0"
         stop-color="black"
         stop-opacity="0.96862745"
         id="stop4" />
      <stop
         offset="1"
         stop-color="black"
         id="stop5" />
    </linearGradient>
  </defs>
  <path
     fill="#8C93FD"
     d="M85.6373 720.279C81.2395 707.242 75.5958 694.672 70.9417 681.723Q63.2559 660.765 57.3809 639.229Q51.5058 617.693 47.4841 595.735C36.3797 533.699 37.4644 470.326 53.9695 409.325C59.6511 388.327 67.2706 367.842 74.3857 347.299C81.5591 326.588 91.685 295.273 104.082 277.495C102.591 287.228 99.4033 296.644 98.7196 306.505C97.9916 317.006 98.9993 327.547 99.7398 338.018L102.357 375.246L109.323 484.305C110.729 505.249 113.097 526.468 113.549 547.43C114.01 568.862 110.079 590.614 107.829 611.916L97.9316 709.637C93.7768 713.115 89.5595 716.537 85.6373 720.279Z"
     id="path12" />
  <path
     fill="#8c93fd"
     d="m 894.489,785.27 c 0.11,-10.933 0.01,-35.719 2.578,-45.338 1.234,-4.623 4.375,-9.003 6.163,-13.493 5.297,-13.297 7.997,-26.949 8.852,-41.204 1.255,-20.91 -0.806,-41.958 -2.252,-62.813 -0.643,-9.279 -1.6,-18.691 -1.245,-27.996 0.731,-19.158 2.993,-38.304 4.788,-57.386 l 6.099,-70.525 9.566,-110.093 c 1.571,-18.042 2.422,-36.094 4.609,-54.081 9.623,18.263 17.39,38.087 24.098,57.599 1.01,2.93133 1.991,5.87233 2.943,8.823 0.952,2.95 1.87433,5.90967 2.767,8.879 0.89267,2.96867 1.756,5.94633 2.59,8.933 0.83333,2.986 1.637,5.98 2.411,8.982 0.774,3.002 1.518,6.01167 2.232,9.029 0.714,3.01667 1.398,6.04033 2.052,9.071 0.654,3.03067 1.278,6.06733 1.872,9.11 0.59333,3.04267 1.15633,6.09133 1.689,9.146 0.53333,3.054 1.036,6.113 1.508,9.177 0.472,3.064 0.91333,6.13267 1.324,9.206 0.41133,3.07267 0.79167,6.14933 1.141,9.23 0.35,3.08067 0.669,6.16433 0.957,9.251 0.28867,3.08667 0.54633,6.176 0.773,9.268 0.22667,3.092 0.423,6.186 0.589,9.282 0.16467,3.096 0.299,6.19333 0.403,9.292 0.10333,3.09867 0.17633,6.198 0.219,9.298 0.042,3.1 0.053,6.2 0.033,9.3 -0.0193,3.1 -0.0697,6.19967 -0.151,9.299 -0.0813,3.09933 -0.19367,6.19767 -0.337,9.295 -0.14267,3.09667 -0.31633,6.19167 -0.521,9.285 -0.20467,3.094 -0.44,6.18533 -0.706,9.274 -0.266,3.08867 -0.56267,6.17467 -0.89,9.258 -0.328,3.08267 -0.68633,6.162 -1.075,9.238 -0.38867,3.076 -0.808,6.14767 -1.258,9.215 -0.45,3.06733 -0.93033,6.13 -1.441,9.188 -0.51067,3.058 -1.05167,6.11067 -1.623,9.158 -0.572,3.04667 -1.174,6.08767 -1.806,9.123 -0.632,3.03533 -1.29433,6.064 -1.987,9.086 -0.692,3.022 -1.41433,6.03667 -2.167,9.044 -0.752,3.008 -1.534,6.008 -2.346,9 -0.812,2.992 -1.65367,5.97567 -2.525,8.951 -0.87133,2.97533 -1.77233,5.94167 -2.703,8.899 l -0.556,1.768 c -2.88984,8.64767 -8.119,22.57 -11.27,30.263 -14.634,35.733 -31.752,70.007 -55.397,100.709 z"
     id="path14"
     sodipodi:nodetypes="cscccscccccsscsssccscccsccccscsscssscsccsscccc" />
  <path
     fill="#8C93FD"
     d="M213.698 148.398C222.476 139.814 233.942 132.802 244.064 125.843C297.811 88.8918 356.746 62.8619 420.783 49.9317Q425.615 48.9685 430.466 48.1079Q435.317 47.2473 440.186 46.4898Q445.054 45.7322 449.938 45.078Q454.821 44.4237 459.717 43.8731Q464.613 43.3226 469.52 42.8759Q474.427 42.4292 479.342 42.0866Q484.257 41.744 489.178 41.5056Q494.099 41.2672 499.024 41.1332Q503.95 40.9992 508.877 40.9696Q513.803 40.94 518.73 41.0149Q523.656 41.0897 528.58 41.2689Q533.504 41.4481 538.423 41.7316Q543.341 42.0152 548.253 42.4029Q553.165 42.7906 558.067 43.2823Q562.97 43.774 567.861 44.3695Q572.751 44.965 577.629 45.664Q582.506 46.3631 587.367 47.1653Q592.228 47.9675 597.071 48.8726Q601.915 49.7777 606.737 50.7852Q611.56 51.7927 616.361 52.9022Q621.161 54.0117 625.937 55.2227Q630.713 56.4337 635.462 57.7456Q640.211 59.0576 644.931 60.4699Q649.652 61.8822 654.341 63.3942Q659.03 64.9062 663.686 66.5172Q668.342 68.1283 672.963 69.8377Q677.584 71.547 682.168 73.354Q686.752 75.1609 691.296 77.0645Q695.84 78.9682 700.343 80.9677Q704.846 82.9673 709.306 85.0618Q713.766 87.1563 718.18 89.3449Q722.594 91.5335 726.961 93.8151C743.42 102.37 759.097 112.147 774.55 122.389C760.421 134.846 749.6 148.522 741.1 165.371C721.038 166.04 700.952 167.51 680.905 168.619L568.41 174.882L523.22 177.452C513.928 177.985 504.416 178.982 495.118 178.489C486.039 178.007 476.828 176.516 467.791 175.454L417.604 169.665L283.132 155.539Q258.339 152.772 233.518 150.267C227.013 149.637 220.212 148.45 213.698 148.398Z"
     id="path16" />
  <path
     d="M774.55 122.389C796.495 105.766 823.129 96.6406 850.75 100.512Q852.019 100.69 853.282 100.9Q854.546 101.109 855.804 101.35Q857.062 101.591 858.314 101.863Q859.566 102.135 860.811 102.438Q862.055 102.741 863.292 103.074Q864.529 103.408 865.757 103.772Q866.985 104.136 868.204 104.53Q869.423 104.925 870.632 105.349Q871.84 105.774 873.038 106.228Q874.236 106.682 875.422 107.166Q876.608 107.65 877.782 108.163Q878.956 108.676 880.116 109.218Q881.277 109.759 882.424 110.33Q883.571 110.9 884.703 111.499Q885.836 112.098 886.953 112.724Q888.071 113.351 889.172 114.005Q890.273 114.659 891.358 115.34Q892.443 116.021 893.511 116.729Q894.579 117.437 895.628 118.171Q896.678 118.905 897.71 119.665Q898.741 120.425 899.753 121.21Q900.765 121.995 901.758 122.805Q902.75 123.615 903.722 124.449Q904.694 125.283 905.646 126.141Q906.597 126.999 907.526 127.881Q908.456 128.762 909.363 129.666Q910.271 130.57 911.156 131.497Q912.041 132.423 912.902 133.371Q913.764 134.319 914.602 135.288Q915.439 136.257 916.253 137.246Q917.067 138.236 917.856 139.245Q918.644 140.254 919.408 141.283Q920.166 142.303 920.899 143.341Q921.631 144.38 922.338 145.436Q923.045 146.492 923.726 147.565Q924.407 148.638 925.061 149.728Q925.715 150.817 926.342 151.923Q926.969 153.028 927.569 154.149Q928.169 155.269 928.74 156.404Q929.312 157.539 929.856 158.687Q930.4 159.836 930.915 160.998Q931.431 162.159 931.917 163.333Q932.404 164.507 932.862 165.693Q933.319 166.878 933.748 168.075Q934.176 169.271 934.575 170.478Q934.973 171.685 935.342 172.901Q935.711 174.117 936.05 175.342Q936.389 176.567 936.697 177.8Q937.006 179.032 937.284 180.272Q937.562 181.512 937.81 182.759Q938.057 184.005 938.274 185.258Q938.491 186.51 938.677 187.767Q938.862 189.024 939.017 190.286Q939.172 191.547 939.296 192.812Q939.42 194.077 939.512 195.344Q939.605 196.612 939.666 197.881Q939.728 199.15 939.758 200.421Q939.788 201.691 939.787 202.962Q939.786 204.233 939.753 205.503Q939.721 206.774 939.657 208.043Q939.594 209.312 939.499 210.58Q939.404 211.847 939.278 213.111Q939.151 214.376 938.994 215.637Q938.837 216.898 938.649 218.155C936.463 233.124 930.562 252.236 919.211 262.912C918.019 264.371 916.87 265.852 915.482 267.133C917.982 272.741 921.274 278.04 924.137 283.476C927.415 289.702 930.302 296.154 933.647 302.341C931.46 320.328 930.609 338.38 929.038 356.422L919.472 466.515L913.373 537.04C911.578 556.122 909.316 575.268 908.585 594.426C908.23 603.731 909.187 613.143 909.83 622.422C911.276 643.277 913.337 664.325 912.082 685.235C911.227 699.49 908.527 713.142 903.23 726.439C901.442 730.929 898.301 735.309 897.067 739.932C894.499 749.551 894.599 774.337 894.489 785.27Q887.313 794.912 879.727 804.234Q872.141 813.556 864.158 822.541Q856.175 831.526 847.811 840.157Q839.446 848.788 830.716 857.049C823.751 863.714 816.747 870.764 808.991 876.519C709.596 956.837 589.197 994.129 461.884 980.587Q452.755 979.678 443.673 978.381Q434.59 977.084 425.572 975.402Q416.553 973.721 407.614 971.657Q398.674 969.594 389.831 967.152Q380.988 964.71 372.256 961.895Q363.524 959.079 354.92 955.895Q346.316 952.711 337.855 949.164Q329.394 945.617 321.092 941.714C313.934 938.359 306.551 935.053 299.64 931.231C293.825 928.016 288.025 924.016 281.996 921.289C256.399 944.993 224.443 959.053 189.402 960.222Q187.744 960.279 186.086 960.294Q184.427 960.31 182.769 960.285Q181.111 960.26 179.453 960.194Q177.796 960.128 176.141 960.022Q174.486 959.915 172.834 959.768Q171.182 959.62 169.534 959.432Q167.886 959.244 166.243 959.015Q164.6 958.787 162.964 958.518Q161.327 958.248 159.698 957.939Q158.068 957.63 156.447 957.281Q154.825 956.931 153.213 956.542Q151.601 956.153 149.998 955.724Q148.396 955.295 146.805 954.827Q145.214 954.359 143.635 953.852Q142.056 953.344 140.49 952.798Q138.923 952.252 137.371 951.668Q135.819 951.084 134.282 950.461Q132.744 949.839 131.223 949.179Q129.701 948.518 128.196 947.821Q126.691 947.124 125.204 946.389Q123.717 945.655 122.248 944.884Q120.78 944.114 119.331 943.307Q117.881 942.5 116.452 941.658Q115.024 940.816 113.616 939.939Q112.208 939.062 110.822 938.15Q109.437 937.239 108.074 936.293Q106.711 935.348 105.372 934.369Q104.033 933.391 102.718 932.379Q101.404 931.368 100.115 930.324Q98.8253 929.281 97.5622 928.206Q96.299 927.131 95.0627 926.026Q93.8265 924.92 92.6178 923.784Q91.3021 922.565 90.0174 921.312Q88.7328 920.06 87.4799 918.777Q86.2271 917.493 85.0069 916.178Q83.7867 914.863 82.5999 913.518Q81.4131 912.172 80.2604 910.798Q79.1077 909.423 77.9899 908.02Q76.8721 906.617 75.7899 905.187Q74.7077 903.756 73.6617 902.299Q72.6158 900.841 71.6067 899.358Q70.5977 897.875 69.6262 896.367Q68.6547 894.859 67.7213 893.327Q66.788 891.795 65.8934 890.24Q64.9988 888.685 64.1436 887.108Q63.2883 885.531 62.4729 883.934Q61.6575 882.336 60.8825 880.718Q60.1074 879.1 59.3732 877.464Q58.6391 875.827 57.9462 874.172Q57.2533 872.517 56.6022 870.846Q55.9511 869.174 55.3422 867.487Q54.7333 865.799 54.1669 864.097Q53.6005 862.395 53.077 860.68Q52.5535 858.964 52.0733 857.235Q51.5931 855.507 51.1564 853.767Q50.7197 852.027 50.3268 850.277Q49.9339 848.526 49.5851 846.767Q49.2363 845.007 48.9318 843.239Q48.6273 841.472 48.3672 839.697Q48.1072 837.922 47.8917 836.141Q47.6763 834.36 47.5057 832.574Q47.3351 830.788 47.2093 828.999Q47.0835 827.21 47.0028 825.417Q46.922 823.625 46.8862 821.832Q46.8435 820.09 46.8431 818.348Q46.8428 816.606 46.8848 814.865Q46.9268 813.123 47.0111 811.383Q47.0954 809.643 47.222 807.906Q47.3487 806.168 47.5175 804.434Q47.6863 802.701 47.8972 800.971Q48.1081 799.242 48.361 797.518Q48.614 795.795 48.9087 794.078Q49.2034 792.361 49.5398 790.652Q49.8762 788.942 50.2541 787.242Q50.6319 785.541 51.051 783.85Q51.4701 782.159 51.9302 780.479Q52.3902 778.799 52.891 777.13Q53.3918 775.462 53.933 773.806Q54.4742 772.15 55.0555 770.508Q55.6369 768.866 56.2579 767.238Q56.879 765.611 57.5394 763.999Q58.1999 762.386 58.8993 760.791Q59.5988 759.196 60.3368 757.618Q61.0749 756.04 61.8511 754.48Q62.6272 752.92 63.4411 751.38Q64.255 749.84 65.1061 748.32Q65.9571 746.8 66.8449 745.301Q67.7327 743.802 68.6567 742.325Q69.5807 740.849 70.5403 739.395Q71.4999 737.941 72.4945 736.51Q73.4892 735.08 74.5183 733.675Q75.5475 732.269 76.6105 730.889Q77.6735 729.509 78.7698 728.155Q79.866 726.801 80.9949 725.474Q82.1237 724.147 83.2845 722.848Q84.4453 721.549 85.6373 720.279C89.5595 716.537 93.7768 713.115 97.9316 709.637L107.829 611.916C110.079 590.614 114.01 568.862 113.549 547.43C113.097 526.468 110.729 505.249 109.323 484.305L102.357 375.246L99.7398 338.018C98.9993 327.547 97.9916 317.006 98.7196 306.505C99.4033 296.644 102.591 287.228 104.082 277.495C109.387 265.752 114.455 253.537 122.1 243.083C130.5 231.598 141.997 224.284 151.595 214.142C157.508 207.894 162.299 200.347 167.806 193.694C181.294 177.397 196.871 161.258 213.698 148.398C220.212 148.45 227.013 149.637 233.518 150.267Q258.339 152.772 283.132 155.539L417.604 169.665L467.791 175.454C476.828 176.516 486.039 178.007 495.118 178.489C504.416 178.982 513.928 177.985 523.22 177.452L568.41 174.882L680.905 168.619C700.952 167.51 721.038 166.04 741.1 165.371C749.6 148.522 760.421 134.846 774.55 122.389Z"
     id="path17" />
  <path
     fill="#8C93FD"
     d="M96.912 715.232C97.143 721.118 97.4191 726.236 99.4096 731.847C94.6055 730.258 90.3558 728.092 85.9897 725.552C89.5271 721.961 93.0824 718.519 96.912 715.232Z"
     id="path18" />
  <path
     fill="#8C93FD"
     d="M778.57 124.332C782.238 127.859 786.888 130.384 791.2 133.04C780.108 140.991 769.782 151.622 763.691 163.969L745.725 164.503C754.48 149.29 764.888 135.492 778.57 124.332Z"
     id="path19" />
  <path
     fill="#8C93FD"
     d="M298.141 833.555Q307.434 833.151 316.71 832.466C315.205 863.47 302.27 897.269 279.234 918.698C279.11 918.813 278.981 918.922 278.854 919.034Q270.561 913.711 262.067 908.715C283.829 885.169 293.601 865.443 298.141 833.555Z"
     id="path20" />
  <path
     fill="#FEFEFE"
     d="M778.57 124.332Q779.492 123.591 780.432 122.874Q781.371 122.156 782.328 121.461Q783.286 120.767 784.26 120.097Q785.234 119.426 786.224 118.78Q787.214 118.134 788.22 117.512Q789.226 116.89 790.247 116.294Q791.268 115.697 792.303 115.126Q793.339 114.554 794.388 114.009Q795.437 113.463 796.5 112.944Q797.562 112.424 798.637 111.931Q799.711 111.438 800.798 110.972Q801.885 110.505 802.982 110.066Q804.08 109.626 805.188 109.214Q806.297 108.802 807.415 108.417Q808.533 108.032 809.66 107.675Q810.788 107.318 811.924 106.989Q813.059 106.66 814.203 106.359Q815.346 106.058 816.497 105.785Q817.648 105.512 818.805 105.268Q819.962 105.024 821.124 104.808Q822.287 104.592 823.455 104.406Q824.622 104.219 825.794 104.061Q826.966 103.903 828.142 103.774Q829.317 103.645 830.495 103.545Q831.674 103.445 832.854 103.374Q834.034 103.303 835.216 103.261Q836.398 103.219 837.58 103.207Q838.763 103.194 839.945 103.211Q841.128 103.227 842.309 103.273Q843.491 103.319 844.671 103.394Q845.851 103.469 847.029 103.573Q848.207 103.677 849.382 103.81C875.178 106.882 899.651 121.278 915.492 141.748Q916.248 142.725 916.98 143.72Q917.712 144.714 918.419 145.727Q919.127 146.739 919.809 147.769Q920.491 148.799 921.148 149.845Q921.805 150.891 922.436 151.952Q923.066 153.014 923.671 154.091Q924.276 155.168 924.854 156.26Q925.432 157.351 925.983 158.456Q926.534 159.562 927.058 160.68Q927.582 161.799 928.078 162.93Q928.575 164.061 929.043 165.204Q929.511 166.347 929.952 167.501Q930.392 168.655 930.803 169.819Q931.215 170.983 931.598 172.158Q931.981 173.332 932.336 174.515Q932.69 175.698 933.015 176.89Q933.34 178.082 933.635 179.281Q933.931 180.48 934.197 181.686Q934.463 182.892 934.7 184.104Q934.936 185.317 935.143 186.534Q935.35 187.752 935.527 188.974Q935.703 190.197 935.85 191.423Q935.997 192.649 936.114 193.879Q936.23 195.109 936.317 196.341Q936.403 197.573 936.459 198.807Q936.515 200.04 936.541 201.275Q936.567 202.51 936.563 203.745Q936.558 204.98 936.524 206.215Q936.489 207.45 936.424 208.683Q936.359 209.916 936.264 211.148Q936.168 212.379 936.043 213.608Q935.917 214.837 935.762 216.062Q934.88 222.575 933.156 228.918Q931.431 235.26 928.894 241.323C926.065 247.94 919.546 255.654 919.211 262.912C918.019 264.371 916.87 265.852 915.482 267.133C909.198 273.013 901.973 280.175 894.064 283.778C892.679 284.409 891.535 284.784 890.042 284.231C889.298 283.135 889.32 282.94 889.287 281.6C891.931 276.534 900.016 273.675 904.472 269.947C907.9 267.08 911.014 263.779 914.147 260.594C914.118 260.53 914.089 260.467 914.061 260.402C911.937 255.425 909.044 250.802 906.33 246.129C912.683 237.51 917.22 226.983 919.363 216.508C923.697 195.328 919.407 171.467 907.437 153.404C895.217 134.966 875.872 122.786 854.243 118.624C832.114 114.365 809.596 120.474 791.2 133.04C786.888 130.384 782.238 127.859 778.57 124.332Z"
     id="path21" />
  <path
     fill="#FEFEFE"
     d="M278.854 919.034C255.665 941.878 223.583 954.601 191.306 956.302Q189.693 956.382 188.078 956.422Q186.464 956.462 184.849 956.463Q183.234 956.463 181.619 956.423Q180.005 956.384 178.392 956.305Q176.778 956.226 175.168 956.107Q173.557 955.988 171.95 955.83Q170.343 955.671 168.74 955.474Q167.137 955.276 165.539 955.038Q163.942 954.801 162.351 954.524Q160.76 954.248 159.176 953.932Q157.592 953.616 156.016 953.262Q154.441 952.907 152.874 952.514Q151.308 952.121 149.751 951.689Q148.195 951.257 146.65 950.787Q145.105 950.317 143.572 949.81Q142.039 949.302 140.518 948.757Q138.998 948.211 137.492 947.628Q135.986 947.046 134.494 946.426Q133.003 945.807 131.527 945.151Q130.051 944.494 128.592 943.802Q127.133 943.11 125.691 942.382Q124.25 941.654 122.826 940.891Q121.403 940.128 119.999 939.33Q118.595 938.532 117.211 937.7Q115.827 936.867 114.463 936.001Q113.1 935.135 111.759 934.235Q110.418 933.336 109.099 932.404Q107.78 931.471 106.484 930.507Q105.189 929.543 103.918 928.547Q102.646 927.551 101.4 926.524Q100.153 925.497 98.9326 924.439Q97.7118 923.382 96.5174 922.295Q95.243 921.138 93.9974 919.95Q92.7518 918.761 91.5356 917.543Q90.3195 916.325 89.1335 915.077Q87.9476 913.829 86.7925 912.553Q85.6375 911.277 84.5141 909.972Q83.3907 908.668 82.2995 907.337Q81.2084 906.005 80.1502 904.648Q79.092 903.29 78.0673 901.907Q77.0427 900.524 76.0523 899.116Q75.0618 897.708 74.1062 896.276Q73.1505 894.844 72.2302 893.39Q71.3099 891.935 70.4255 890.458Q69.5411 888.981 68.6931 887.483Q67.8452 885.985 67.0342 884.467Q66.2232 882.948 65.4496 881.411Q64.676 879.873 63.9403 878.317Q63.2046 876.76 62.5073 875.186Q61.81 873.613 61.1514 872.022Q60.4928 870.432 59.8734 868.826Q59.2539 867.219 58.674 865.599Q58.0941 863.978 57.5541 862.343Q57.0141 860.709 56.5142 859.062Q56.0144 857.415 55.5551 855.756Q55.0957 854.097 54.6771 852.427Q54.2586 850.757 53.881 849.078Q53.5035 847.398 53.1672 845.71Q52.8309 844.022 52.5361 842.326Q52.2412 840.63 51.988 838.927Q51.7348 837.224 51.5234 835.516Q51.3119 833.808 51.1424 832.095Q50.9729 830.382 50.8453 828.665Q50.7178 826.948 50.6324 825.229Q50.5416 823.535 50.4925 821.84Q50.4434 820.144 50.4362 818.448Q50.4289 816.752 50.4635 815.056Q50.4981 813.36 50.5744 811.665Q50.6508 809.971 50.7689 808.279Q50.887 806.586 51.0468 804.898Q51.2066 803.209 51.4079 801.525Q51.6093 799.84 51.8521 798.162Q52.0949 796.483 52.3791 794.811Q52.6632 793.138 52.9885 791.473Q53.3137 789.809 53.68 788.152Q54.0462 786.496 54.4531 784.849Q54.86 783.203 55.3074 781.566Q55.7548 779.93 56.2424 778.306Q56.73 776.681 57.2575 775.069Q57.785 773.457 58.3521 771.858Q58.9192 770.259 59.5255 768.675Q60.1318 767.091 60.777 765.522Q61.4221 763.953 62.1058 762.401Q62.7895 760.848 63.5112 759.313Q64.2329 757.778 64.9922 756.262Q65.7516 754.745 66.5481 753.247Q67.3446 751.749 68.1777 750.272Q69.0109 748.794 69.8803 747.338Q70.7496 745.881 71.6546 744.447Q72.5596 743.012 73.4997 741.6Q74.4397 740.188 75.4143 738.8Q76.3889 737.411 77.3975 736.047Q78.406 734.684 79.4478 733.345Q80.4897 732.006 81.5642 730.694Q82.6387 729.381 83.7453 728.096Q84.8518 726.81 85.9897 725.552C90.3558 728.092 94.6055 730.258 99.4096 731.847C100.25 733.05 101.14 734.243 101.909 735.492C97.1278 741.93 91.1915 747.445 86.7408 754.109C70.9093 777.811 65.1274 809.541 69.3607 837.509Q69.5952 839.003 69.8661 840.492Q70.137 841.98 70.4443 843.461Q70.7515 844.942 71.0949 846.415Q71.4382 847.889 71.8175 849.353Q72.1967 850.817 72.6116 852.272Q73.0266 853.727 73.477 855.171Q73.9273 856.615 74.4129 858.047Q74.8984 859.48 75.4188 860.901Q75.9392 862.321 76.4942 863.728Q77.0492 865.135 77.6384 866.529Q78.2276 867.922 78.8507 869.3Q79.4738 870.679 80.1304 872.041Q80.787 873.404 81.4767 874.75Q82.1664 876.097 82.8888 877.426Q83.6112 878.755 84.3659 880.066Q85.1206 881.377 85.9071 882.669Q86.6936 883.961 87.5115 885.234Q88.3293 886.506 89.1781 887.758Q90.0268 889.011 90.9058 890.242Q91.7849 891.473 92.6938 892.682Q93.6027 893.891 94.5409 895.078Q95.4791 896.264 96.446 897.428Q97.4129 898.591 98.408 899.73Q99.4031 900.87 100.426 901.984Q101.448 903.099 102.498 904.188Q103.547 905.278 104.623 906.341Q105.699 907.404 106.801 908.441Q107.902 909.478 109.029 910.487Q110.155 911.497 111.306 912.478Q112.457 913.46 113.632 914.413Q114.806 915.367 116.004 916.291Q117.201 917.215 118.421 918.11Q119.533 918.935 120.664 919.732Q121.796 920.528 122.948 921.296Q124.099 922.065 125.269 922.804Q126.44 923.543 127.628 924.252Q128.817 924.962 130.022 925.642Q131.228 926.321 132.451 926.971Q133.673 927.62 134.911 928.238Q136.15 928.857 137.403 929.444Q138.656 930.031 139.924 930.587Q141.192 931.143 142.473 931.667Q143.754 932.191 145.048 932.682Q146.342 933.174 147.648 933.633Q148.954 934.092 150.271 934.518Q151.587 934.945 152.915 935.338Q154.242 935.731 155.578 936.091Q156.915 936.451 158.26 936.777Q159.605 937.103 160.958 937.396Q162.311 937.688 163.671 937.947Q165.03 938.205 166.396 938.43Q167.762 938.654 169.133 938.845Q170.504 939.035 171.88 939.191Q173.255 939.346 174.634 939.468Q176.013 939.589 177.394 939.676Q178.775 939.763 180.159 939.815Q181.542 939.868 182.926 939.885Q184.31 939.903 185.694 939.886Q187.078 939.869 188.461 939.817Q189.844 939.766 191.226 939.679Q192.607 939.593 193.986 939.472Q195.365 939.352 196.74 939.196Q198.116 939.041 199.487 938.851Q200.858 938.662 202.224 938.438C225.381 934.81 244.657 924.071 262.067 908.715Q270.561 913.711 278.854 919.034Z"
     id="path22" />
  <path
     fill="#FE766A"
     d="M791.2 133.04C809.596 120.474 832.114 114.365 854.243 118.624C875.872 122.786 895.217 134.966 907.437 153.404C919.407 171.467 923.697 195.328 919.363 216.508C917.22 226.983 912.683 237.51 906.33 246.129C900.36 251.899 893.772 256.227 886.67 260.443C883.988 254.854 882.512 248.738 880.374 242.929Q879.396 240.337 878.297 237.795Q877.198 235.252 875.98 232.765Q874.761 230.277 873.427 227.85Q872.092 225.423 870.644 223.061Q869.197 220.7 867.639 218.41Q866.081 216.119 864.416 213.905Q862.751 211.691 860.984 209.559Q859.216 207.426 857.35 205.379C831.717 177.158 801.145 165.666 763.691 163.969C769.782 151.622 780.108 140.991 791.2 133.04Z"
     id="path23" />
  <path
     fill="#FE766A"
     d="M101.909 735.492C109.7 730.424 116.038 724.117 124.416 719.778C126.78 754.534 140.417 786.244 166.882 809.452Q169.664 811.87 172.6 814.1Q175.535 816.331 178.611 818.363Q181.686 820.396 184.888 822.222Q188.091 824.048 191.406 825.66C215.812 837.632 237.46 837.241 263.706 835.713C274.052 835.111 284.416 834.623 294.753 833.9Q296.452 833.772 298.141 833.555C293.601 865.443 283.829 885.169 262.067 908.715C244.657 924.071 225.381 934.81 202.224 938.438Q200.858 938.662 199.487 938.851Q198.116 939.041 196.74 939.196Q195.365 939.352 193.986 939.472Q192.607 939.593 191.226 939.679Q189.844 939.766 188.461 939.817Q187.078 939.869 185.694 939.886Q184.31 939.903 182.926 939.885Q181.542 939.868 180.159 939.815Q178.775 939.763 177.394 939.676Q176.013 939.589 174.634 939.468Q173.255 939.346 171.88 939.191Q170.504 939.035 169.133 938.844Q167.762 938.654 166.396 938.43Q165.03 938.205 163.671 937.947Q162.311 937.688 160.958 937.396Q159.605 937.103 158.26 936.777Q156.915 936.451 155.578 936.091Q154.242 935.731 152.915 935.338Q151.587 934.944 150.271 934.518Q148.954 934.092 147.648 933.633Q146.342 933.174 145.048 932.682Q143.754 932.19 142.473 931.667Q141.192 931.143 139.924 930.587Q138.656 930.031 137.403 929.444Q136.15 928.857 134.911 928.238Q133.673 927.62 132.451 926.971Q131.228 926.321 130.022 925.642Q128.817 924.962 127.628 924.252Q126.44 923.543 125.269 922.804Q124.099 922.065 122.948 921.296Q121.796 920.528 120.664 919.732Q119.533 918.935 118.421 918.11Q117.201 917.215 116.004 916.291Q114.806 915.367 113.632 914.413Q112.457 913.46 111.306 912.479Q110.155 911.497 109.029 910.487Q107.902 909.478 106.801 908.441Q105.699 907.404 104.623 906.341Q103.547 905.278 102.498 904.188Q101.448 903.099 100.426 901.984Q99.4031 900.87 98.408 899.73Q97.4129 898.591 96.446 897.428Q95.4791 896.264 94.5409 895.078Q93.6027 893.891 92.6938 892.682Q91.7849 891.473 90.9058 890.242Q90.0268 889.011 89.178 887.758Q88.3293 886.506 87.5115 885.234Q86.6936 883.961 85.9071 882.669Q85.1206 881.377 84.3659 880.066Q83.6112 878.755 82.8888 877.426Q82.1664 876.097 81.4767 874.75Q80.787 873.404 80.1304 872.041Q79.4738 870.679 78.8507 869.3Q78.2276 867.922 77.6384 866.529Q77.0492 865.135 76.4942 863.728Q75.9392 862.321 75.4188 860.901Q74.8984 859.48 74.4129 858.047Q73.9273 856.615 73.477 855.171Q73.0266 853.727 72.6116 852.272Q72.1967 850.817 71.8175 849.353Q71.4382 847.889 71.0949 846.415Q70.7515 844.942 70.4443 843.461Q70.137 841.98 69.8661 840.492Q69.5952 839.003 69.3607 837.509C65.1274 809.541 70.9093 777.811 86.7408 754.109C91.1915 747.445 97.1278 741.93 101.909 735.492Z"
     id="path24" />
  <path
     fill="#8C93FD"
     d="M320.561 832.428C329.585 831.395 338.751 831.114 347.822 830.608C357.678 830.058 367.628 829.231 377.498 829.639C386.59 830.016 395.652 831.224 404.695 832.188L453.583 837.551Q511.395 843.513 569.135 850.14L718.281 866.713C748.49 869.966 778.87 872.572 808.991 876.519C709.596 956.837 589.197 994.129 461.884 980.587Q452.755 979.678 443.673 978.381Q434.59 977.084 425.572 975.402Q416.553 973.721 407.614 971.657Q398.674 969.594 389.831 967.152Q380.988 964.71 372.256 961.895Q363.524 959.079 354.92 955.895Q346.316 952.711 337.855 949.164Q329.394 945.617 321.092 941.714C313.934 938.359 306.551 935.053 299.64 931.231C293.825 928.016 288.025 924.016 281.996 921.289C305.474 899.093 319.105 864.295 320.561 832.428Z"
     id="path25" />
  <path
     fill="#FEFEFE"
     d="M750.385 168.71C750.544 168.692 750.703 168.668 750.863 168.656C784.413 166.125 816.78 174.513 842.621 196.686C872.06 221.945 882.983 252.885 885.774 290.486C887.119 308.594 887.71 326.753 888.878 344.857L901.467 552.573L906.394 634.006C907.586 654.339 910.008 675.457 907.199 695.727C904.083 718.216 893.579 739.896 878.747 756.98C863.838 774.153 843.715 787.629 821.484 793.059C811.218 795.567 800.753 796.108 790.257 796.847Q771.559 798.201 752.834 799.126L654.071 805.036L261.623 831.911C225.952 834.804 197.899 830.365 169.641 806.349C144.791 785.229 131.268 754.676 128.699 722.531C125.704 685.074 124.32 647.347 121.983 609.832L110.163 428.556L105.433 357.076C104.091 338.159 101.514 318.699 103.842 299.777Q104.103 297.711 104.439 295.657Q104.775 293.602 105.185 291.561Q105.596 289.52 106.081 287.495Q106.565 285.47 107.123 283.464Q107.681 281.458 108.311 279.474Q108.942 277.49 109.644 275.53Q110.346 273.57 111.12 271.636Q111.893 269.703 112.736 267.799Q113.579 265.896 114.49 264.024Q115.402 262.152 116.381 260.315Q117.361 258.477 118.406 256.677Q119.451 254.876 120.562 253.115Q121.672 251.354 122.845 249.634Q124.019 247.914 125.254 246.238Q126.49 244.562 127.785 242.932Q129.081 241.303 130.435 239.721Q131.836 238.066 133.3 236.468Q134.765 234.869 136.29 233.328Q137.816 231.788 139.4 230.308Q140.985 228.828 142.626 227.411Q144.266 225.994 145.961 224.642Q147.656 223.29 149.402 222.005Q151.149 220.721 152.944 219.505Q154.739 218.289 156.58 217.144Q158.421 215.999 160.305 214.927Q162.189 213.854 164.114 212.856Q166.039 211.858 168.001 210.936Q169.963 210.013 171.959 209.168Q173.956 208.323 175.984 207.556Q178.012 206.79 180.068 206.103Q182.124 205.416 184.206 204.809Q186.287 204.203 188.391 203.678C208.497 198.835 231.352 199.31 252.003 198.201L346.238 192.89L607.112 177.497C654.845 174.66 702.72 172.493 750.385 168.71Z"
     id="path26" />
  <path
     d="M660.058 394.478C661.366 394.456 662.714 394.415 664.002 394.671C666.955 395.259 669.574 396.869 671.086 399.51C672.613 402.18 672.744 405.721 673.028 408.727C674.766 427.148 674.842 445.723 675.777 464.198Q678.222 505.307 680.012 546.449C680.258 552.669 681.644 570.991 680.084 576.096C679.012 579.601 675.84 581.385 672.825 583.006C671.643 583.064 670.427 583.107 669.254 582.899C666.415 582.396 663.653 580.659 662.09 578.229C660.503 575.761 660.383 572.347 660.107 569.496C658.375 551.599 658.396 533.466 657.472 515.508Q654.88 472.716 653.16 429.88C652.92 423.507 651.473 407.257 653.041 401.746C654.072 398.124 657.019 396.288 660.058 394.478Z"
     id="path27" />
  <path
     fill="#FEFEFE"
     d="M660.251 398.994C662.677 399.09 665.356 399.186 667.036 401.222C668.772 403.327 668.789 407.647 668.996 410.285C669.932 422.165 670.034 434.194 670.562 446.105L673.601 506.34L675.557 546.261C676.004 554.317 677.018 562.58 676.643 570.643C676.468 574.399 675.623 575.987 672.88 578.514Q672.222 578.538 671.563 578.541C669.481 578.543 667.817 578.309 666.354 576.68C664.388 574.491 664.321 570.301 664.081 567.505C662.977 554.674 662.863 541.723 662.293 528.863L659.125 461.953Q658.468 446.78 657.557 431.621C656.97 422.829 655.682 413.376 656.535 404.595C656.808 401.788 658.188 400.691 660.251 398.994Z"
     id="path28" />
  <path
     d="M371.397 408.711C375.369 408.378 379.344 408.472 383.326 408.516C384.174 409.094 385.03 409.662 385.846 410.285C388.401 412.236 390.125 415.027 390.401 418.258C390.645 421.124 389.946 423.983 387.994 426.15C381.633 433.215 358.694 431.481 349.214 431.975C350.013 468.774 352.338 505.56 353.999 542.33L355.335 572.133C355.565 577.278 356.152 582.644 355.883 587.782C355.706 591.172 354.893 594.535 352.682 597.194C350.974 599.248 348.506 600.77 345.81 600.993C343.595 601.176 341.559 600.417 339.931 598.914C334.597 593.99 335.372 584.967 335.281 578.313L330.809 480.951C330.061 464.937 328.868 448.918 328.439 432.894C319.044 433.705 298.618 436.949 290.949 431.525Q290.608 431.286 290.293 431.014Q289.978 430.741 289.693 430.438Q289.408 430.134 289.156 429.803Q288.904 429.471 288.687 429.116Q288.47 428.76 288.291 428.384Q288.112 428.008 287.973 427.616Q287.834 427.223 287.736 426.818Q287.638 426.414 287.582 426.001C287.144 422.792 287.894 419.271 289.975 416.743C291.961 414.329 294.89 413.049 297.893 412.439C306.038 410.783 315.104 411.574 323.405 411.259Q347.417 410.286 371.397 408.711Z"
     id="path29" />
  <path
     fill="#FEFEFE"
     d="M367.942 413.292C372.036 413.024 379.538 411.575 383.191 413.811C384.785 414.786 385.782 416.38 386.104 418.207C386.384 419.796 385.906 421.537 384.94 422.81C383.755 424.37 382.143 425.147 380.288 425.645C371.408 428.032 355.534 426.39 345.133 427.979C344.923 428.011 344.714 428.047 344.505 428.081Q347.508 480.866 349.269 533.706L350.59 564.528C350.966 571.872 351.679 579.339 351.568 586.693C351.532 589.104 351.248 591.734 350.103 593.899C349.402 595.223 348.334 596.433 346.78 596.688C345.406 596.914 343.98 596.151 343.014 595.224C338.1 590.515 339.089 579.184 338.949 572.825C338.969 555.691 337.701 538.454 336.887 521.339L332.459 428.465C323.669 428.712 301.719 432.138 294.509 428.274C293.129 427.534 291.919 426.361 291.582 424.773C291.173 422.849 292.116 420.415 293.368 418.966C294.559 417.588 296.217 416.892 297.978 416.578C302.063 415.849 306.87 416.559 311.109 416.258Q339.509 414.455 367.942 413.292Z"
     id="path30" />
  <path
     d="M234.954 413.179C237.058 412.929 239.326 412.869 241.442 412.982C253.232 413.609 265.621 419.63 273.414 428.504C277.152 432.762 279.924 438.289 279.362 444.093C279.062 447.187 277.583 451.339 275.024 453.287C267.815 458.775 258.678 445.141 253.788 441.276C249.968 438.257 245.505 435.967 240.646 435.27C234.274 434.356 228.228 436.219 223.226 440.203C217.973 444.386 215.003 450.419 214.27 457.037C211.129 485.428 242.843 490.632 262.138 500.164C270.652 504.37 278.788 510.111 284.762 517.567C294.12 529.247 296.464 544.588 294.874 559.129C293.247 574.012 286.52 588.222 274.6 597.58C262.524 607.061 249.345 607.958 234.572 606.157C231.376 605.358 228.216 604.507 225.147 603.299C213.667 598.778 201.854 588.339 197.093 576.797C195.457 572.832 194.485 568.224 196.274 564.132C197.979 560.23 201.195 558.559 204.985 557.205C215.955 560.622 219.983 572.07 228.513 578.693C234.756 583.541 242.028 584.665 249.68 583.588C256.885 582.575 263.312 578.091 267.565 572.295Q268.06 571.629 268.521 570.939Q268.982 570.249 269.408 569.537Q269.833 568.825 270.223 568.092Q270.612 567.36 270.964 566.608Q271.316 565.857 271.63 565.089Q271.944 564.321 272.219 563.538Q272.494 562.755 272.729 561.96Q272.964 561.164 273.159 560.358Q273.354 559.551 273.508 558.736Q273.662 557.92 273.775 557.099Q273.887 556.276 273.959 555.45Q274.03 554.623 274.06 553.794Q274.09 552.965 274.078 552.135Q274.066 551.306 274.012 550.478Q273.959 549.65 273.864 548.826Q273.768 548.001 273.632 547.183C268.874 518.424 231.339 516.032 211.708 501.638C201.33 494.028 195.309 483.145 193.401 470.507C191.311 456.674 193.824 442.34 202.369 431.038C210.345 420.488 222.068 414.968 234.954 413.179Z"
     id="path31" />
  <path
     fill="#FEFEFE"
     d="M234.602 417.65C237.043 417.35 239.542 417.2 242.002 417.324C252.643 417.86 263.524 424.045 270.604 431.801C273.221 434.668 275.835 438.257 275.489 442.343C275.299 444.594 274.262 447.838 272.321 449.217C270.766 450.321 269.04 450.465 267.424 449.359C265.457 448.011 263.808 445.435 262.284 443.605C256.713 436.916 250.075 432.152 241.247 430.961C233.886 429.968 226.654 432.206 220.833 436.734C214.013 442.039 210.705 449.971 209.779 458.362C206.429 488.743 241.698 494.261 262.055 504.947C269.418 508.812 276.341 514.053 281.504 520.618C290.183 531.655 292.317 546.015 290.562 559.651C288.863 572.848 282.834 586.079 272.049 594.275C261.718 602.126 248.947 603.743 236.389 601.941C232.031 601.043 228.026 599.981 224.002 598.031C214.902 593.621 203.789 583.582 200.603 573.747C199.696 570.949 199.385 567.002 201.078 564.406C201.777 563.334 202.598 562.543 203.906 562.327C210.235 561.281 220.919 578.703 226.772 582.917C233.305 587.622 242.045 589.278 249.94 587.998C258.832 586.557 266.407 581.656 271.562 574.296Q272.11 573.508 272.618 572.693Q273.126 571.878 273.592 571.039Q274.059 570.2 274.483 569.338Q274.906 568.476 275.286 567.595Q275.667 566.713 276.002 565.813Q276.337 564.913 276.627 563.998Q276.917 563.083 277.161 562.154Q277.404 561.225 277.601 560.285Q277.798 559.346 277.947 558.397Q278.096 557.449 278.198 556.494Q278.3 555.539 278.353 554.58Q278.407 553.622 278.413 552.662Q278.418 551.701 278.376 550.742Q278.333 549.783 278.242 548.827Q278.152 547.871 278.013 546.921Q277.875 545.971 277.689 545.029C272.183 515.807 236.166 513.202 215.515 499.049C206.23 492.686 200.113 483.351 198.117 472.245C195.861 459.689 197.076 446.023 204.562 435.364C211.818 425.034 222.393 419.718 234.602 417.65Z"
     id="path32" />
  <path
     d="M492.008 403.501C495.431 403.395 498.832 403.623 501.579 405.919C506.645 410.154 506.226 422.234 506.601 428.384C507.637 445.412 508.041 462.471 508.991 479.503C510.734 510.743 517.489 554.078 494.738 579.454Q493.951 580.347 493.121 581.199Q492.291 582.052 491.419 582.862Q490.548 583.672 489.637 584.437Q488.726 585.203 487.777 585.922Q486.829 586.641 485.846 587.311Q484.863 587.982 483.848 588.603Q482.833 589.224 481.788 589.793Q480.743 590.362 479.671 590.878Q478.599 591.395 477.502 591.857Q476.406 592.319 475.287 592.726Q474.169 593.133 473.032 593.483Q471.895 593.833 470.742 594.127Q469.588 594.42 468.422 594.655Q467.255 594.89 466.079 595.067Q464.902 595.243 463.718 595.361Q462.534 595.479 461.345 595.537C448.154 596.257 435.047 592.315 425.16 583.374C400.573 561.138 403.438 523.951 402.216 493.767Q401.041 467.689 399.581 441.625C399.567 433.082 397.471 424.567 398.904 416.024C399.455 412.736 400.735 409.905 403.558 407.984C405.698 406.53 408.729 405.484 411.326 406.067C415.751 407.062 418.089 412.476 419.092 416.403C421.248 424.849 420.42 434.477 420.747 443.173L423.03 497.644C423.638 513.058 423.244 528.685 426.773 543.807C428.102 549.498 430.613 555.284 433.895 560.13C438.469 566.885 445.538 571.868 453.648 573.254C460.929 574.498 468.504 573.346 474.596 568.966C496.699 553.077 489.979 510.369 488.703 486.631C487.859 470.937 487.321 455.201 486.305 439.519C485.727 430.603 483.858 420.883 485.471 412.056C486.209 408.013 488.091 406.135 491.426 403.888L492.008 403.501Z"
     id="path33" />
  <path
     fill="#FEFEFE"
     d="M494.273 407.401C495.871 407.689 497.578 408.049 498.783 409.214C503.256 413.538 502.437 434.375 502.828 441.176L505.481 492.5C506.411 510.819 508.756 530.778 504.949 548.846C502.825 558.924 498.268 569.065 491.323 576.75Q490.573 577.581 489.783 578.373Q488.992 579.165 488.163 579.917Q487.334 580.669 486.468 581.378Q485.603 582.087 484.703 582.752Q483.802 583.417 482.87 584.036Q481.938 584.656 480.976 585.227Q480.013 585.799 479.024 586.322Q478.034 586.844 477.02 587.317Q476.005 587.79 474.969 588.211Q473.932 588.632 472.875 589.001Q471.818 589.37 470.745 589.685Q469.671 590 468.583 590.262Q467.494 590.523 466.394 590.729Q465.294 590.936 464.186 591.087Q463.077 591.238 461.962 591.333Q460.846 591.429 459.728 591.468Q458.614 591.506 457.499 591.489Q456.384 591.472 455.272 591.401Q454.159 591.329 453.052 591.203Q451.944 591.077 450.844 590.897Q449.743 590.717 448.653 590.483Q447.563 590.249 446.486 589.962Q445.409 589.674 444.347 589.335Q443.285 588.995 442.241 588.603Q441.198 588.212 440.174 587.769Q439.151 587.327 438.15 586.835Q437.15 586.343 436.175 585.803Q435.2 585.262 434.253 584.674Q433.305 584.087 432.388 583.453Q431.47 582.82 430.585 582.142Q429.7 581.464 428.849 580.744Q427.998 580.023 427.184 579.262C418.815 571.515 413.714 560.683 410.884 549.778C406.227 531.829 406.987 513.082 406.234 494.713L403.46 430.375C402.997 426.277 402.318 421.495 402.893 417.415C403.205 415.2 403.918 412.973 405.808 411.614C407.162 410.639 409.138 410.11 410.766 410.584C413.53 411.388 414.708 414.901 415.222 417.406C416.896 425.563 416.076 435.027 416.463 443.378L418.906 496.354C419.456 510.915 419.152 525.803 421.782 540.181C423.111 547.444 425.427 554.661 429.311 560.981C434.209 568.952 441.321 574.528 450.477 576.701C458.99 578.721 468.655 578.012 476.134 573.186C501.182 557.024 494.156 510.355 492.733 485.045Q491.646 461.714 490.321 438.396C489.901 431.949 487.822 418.835 489.281 413.173C490.048 410.199 491.077 409.171 493.707 407.709L494.273 407.401Z"
     id="path34" />
  <path
     d="M555.858 400.777C567.573 400.163 579.442 399.841 590.654 403.845C608.377 410.174 621.262 425.604 629.084 442.218C643.247 472.299 644.865 514.838 633.506 546.013C626.961 563.979 616.281 575.137 599.041 583.088C595.86 584.256 592.747 585.111 589.411 585.721C580.815 587.295 536.608 591.044 531.056 586.435C527.54 583.516 527.179 577.693 526.81 573.465C525.935 563.425 525.801 553.343 525.319 543.281L522.329 479.583L520.312 439.378C519.817 430.649 518.828 421.681 519.19 412.949C519.298 410.329 519.824 407.334 521.672 405.334C526.516 400.091 548.693 400.936 555.858 400.777Z"
     id="path35" />
  <path
     fill="#FEFEFE"
     d="M556.487 405.29C567.883 404.44 579.744 404.294 590.538 408.542C607.215 415.105 619.107 430.229 626.088 446.257C638.94 475.76 640.661 516.514 628.727 546.532C622.587 561.976 613.479 571.959 598.206 578.534Q594.977 579.762 591.62 580.573C583.013 582.708 539 586.139 533.052 582.53C532.042 580.356 531.696 577.938 531.353 575.58C529.587 563.475 529.961 549.864 529.371 537.529L525.694 461.153C525.375 454.106 521.509 412.221 524.522 408.85C528.198 404.738 550.328 405.469 556.487 405.29Z"
     id="path36" />
  <path
     d="M558.776 418.716C565.976 418.382 573.094 418.272 580.146 419.996C593.408 423.239 604.091 432.259 611.047 443.832C625.024 467.084 627.148 502.993 620.702 528.897C616.949 543.98 609.619 555.914 596.215 564.054C581.875 571.554 559.062 569.85 543.033 570.032C541.352 519.812 538.095 469.732 535.924 419.542Q547.358 419.341 558.776 418.716Z"
     id="path37" />
  <path
     fill="#FEFEFE"
     d="M556.405 423.291C562.782 422.731 569.565 422.486 575.894 423.543C587.763 425.525 597.968 432.276 604.893 442.041C620.115 463.506 622.407 495.49 618.111 520.684C615.516 535.906 609.765 549.657 596.874 558.836C582.795 567.23 563.303 565.539 547.478 565.48C545.566 540.574 544.752 515.542 543.47 490.595C542.325 468.305 540.601 445.935 540.496 423.609L556.405 423.291Z"
     id="path38" />
  <path
     d="M746.346 390.167C747.45 390.013 748.541 389.923 749.655 389.877C764.422 389.272 778.967 396.165 789.609 406.073C810.203 425.248 816.51 455.77 817.425 482.832C818.486 514.178 811.531 543.679 789.747 567.042L802.009 585.156C804.898 589.352 808.346 593.555 810.513 598.173C811.713 600.73 812.543 603.516 812.439 606.366C812.354 608.708 811.582 611.085 809.785 612.674C807.809 614.423 805.015 615.012 802.442 614.73C796.889 614.122 793.701 609.62 790.606 605.519Q779.561 591.119 767.687 577.394Q764.136 578.238 760.529 578.794C747.437 580.854 734.371 576.802 723.769 569.078C703.208 554.096 693.438 528.369 689.72 504.05C685.108 473.876 687.643 439.44 706.339 414.213C716.661 400.286 729.28 392.753 746.346 390.167Z"
     id="path39" />
  <path
     d="M748.103 408.156C756.556 407.327 764.69 409.361 771.8 414.009C786.938 423.905 794.538 442.779 798.028 459.807C803.32 485.631 802.618 518.835 787.528 541.343C780.472 551.867 771.473 558.13 759.066 560.563C749.49 561.101 741.277 559.503 733.338 553.871C716.83 542.161 709.49 520.534 706.446 501.387C702.422 476.08 703.935 446.418 719.575 425.054C726.9 415.049 735.966 410.049 748.103 408.156Z"
     id="path41" />
  <path
     fill="#FEFEFE"
     d="M746.093 412.599C753.588 412.17 760.08 412.567 766.845 416.149C779.718 422.964 787.248 437.484 791.374 450.873C799.192 476.238 799.737 510.109 786.947 533.981C780.766 545.518 772.627 552.343 760.157 556.152Q758.755 556.374 757.339 556.475Q755.924 556.575 754.505 556.552Q753.085 556.53 751.674 556.385Q750.262 556.24 748.868 555.973Q747.474 555.706 746.108 555.319Q744.742 554.933 743.415 554.43Q742.088 553.927 740.809 553.31Q739.531 552.694 738.31 551.97C724.478 543.783 716.833 527.348 712.946 512.386C706.515 487.633 706.438 454.832 719.799 432.311C726.132 421.635 734.169 415.701 746.093 412.599Z"
     id="path42" />
  <path
     style="fill:#000000;fill-opacity:1;stroke-width:0.520719"
     d="m 799.03607,613.35251 c -3.01565,-1.59313 -3.86357,-2.48767 -10.80677,-11.40099 -11.70245,-15.02299 -20.29192,-25.02547 -21.23357,-24.7266 -2.43901,0.77411 -10.0465,1.81314 -13.25453,1.81031 -11.17005,-0.01 -22.99368,-4.56061 -32.72823,-12.59658 -17.20032,-14.19905 -27.77961,-37.04542 -31.90097,-68.89135 -1.22525,-9.46755 -1.22568,-28.522 -8.4e-4,-36.97107 3.0163,-20.80668 9.54993,-36.75743 20.3701,-49.73013 10.0524,-12.05219 24.50263,-19.53618 39.83383,-20.63053 10.29477,-0.73485 23.01783,3.32449 33.26608,10.61367 18.84693,13.40509 30.29358,36.88184 33.6304,68.97495 1.03235,9.92908 1.03701,27.78084 0.01,36.56442 -2.58505,22.0989 -10.40776,41.06337 -23.31282,56.51693 l -3.53189,4.22937 6.6174,9.7377 c 3.63957,5.35573 7.47387,10.90931 8.52068,12.34129 6.03507,8.2557 8.40015,14.36582 7.31368,18.89472 -1.33184,5.55174 -7.46777,8.07665 -12.79209,5.26389 z m 7.84217,-3.82689 c 3.10442,-3.10441 0.75643,-9.70899 -8.16489,-22.96683 -2.6921,-4.0007 -6.94102,-10.02569 -9.44204,-13.38888 -2.50102,-3.3632 -4.54731,-6.248 -4.54731,-6.41068 0,-0.16268 2.03836,-2.50373 4.52968,-5.20233 10.34249,-11.20301 16.50415,-22.72146 20.47584,-38.27703 6.22818,-24.39336 4.89093,-58.57844 -3.21358,-82.15161 -7.6502,-22.25171 -21.0092,-37.60955 -38.39511,-44.13996 -11.02315,-4.14046 -21.10258,-4.28415 -32.34291,-0.46106 -22.73065,7.73119 -38.59186,31.57826 -42.96041,64.59028 -1.09593,8.28164 -1.09894,25.2874 -0.006,34.86762 3.1843,27.91674 11.9667,49.50577 25.75114,63.30177 8.60349,8.61073 16.94332,13.19963 27.33341,15.03995 4.56431,0.80843 12.93155,0.66716 18.24493,-0.30806 l 4.67168,-0.85744 3.34252,3.59016 c 4.96165,5.32925 13.53432,15.71045 19.31673,23.39189 6.70383,8.90547 8.64022,10.66034 11.76298,10.66034 1.81712,0 2.66166,-0.29625 3.64353,-1.27813 z"
     id="path49" />
  <path
     style="fill:#000000;fill-opacity:1;stroke:#000000;stroke-width:0.238065;stroke-opacity:1"
     d="m 239.68493,417.0102 c -8.88547,0.29581 -17.73385,3.13212 -25.09118,8.13239 -8.34777,5.77667 -14.43966,14.72359 -16.52208,24.68265 -2.07378,9.54868 -1.49613,19.67859 1.53728,28.95878 3.55859,10.63505 11.98005,19.10176 21.87078,24.09552 12.81619,6.81312 27.09669,10.68481 39.30049,18.65673 6.94882,4.4603 12.83396,10.93494 15.41986,18.88389 4.60633,13.39899 0.78239,29.50513 -9.66258,39.17246 -6.65137,6.35939 -16.19684,9.34751 -25.28341,8.30394 -7.00467,-0.6813 -14.00016,-3.66903 -18.47004,-9.2632 -4.57049,-4.85856 -8.42007,-10.48876 -13.75454,-14.57309 -1.80762,-1.27474 -4.36331,-2.96009 -6.50883,-1.37123 -3.37657,2.35381 -3.38329,7.11137 -2.23548,10.65653 2.60486,7.98061 8.60557,14.37194 15.07144,19.48414 9.5824,7.69597 22.27785,11.02821 34.43956,9.80597 9.23192,-0.61323 18.30924,-4.17551 25.12753,-10.49767 10.38669,-9.46458 15.5943,-23.54787 16.30655,-37.36976 0.36823,-8.19274 -0.44881,-16.5652 -3.66723,-24.17945 -4.76528,-11.54594 -14.631,-20.31281 -25.6235,-25.84442 -11.30285,-5.98019 -23.80309,-9.4229 -34.81908,-15.97001 -7.01283,-4.10566 -13.63712,-10.12183 -16.05686,-18.11947 -2.23626,-7.95306 -1.15289,-16.58129 2.233,-24.01211 4.93112,-10.67215 17.28317,-17.34632 28.89917,-15.2208 7.18535,1.0921 13.51614,5.22773 18.27351,10.5717 2.57615,2.53457 4.33657,5.98781 7.49753,7.87093 2.27149,1.03668 5.06724,-0.13085 6.09764,-2.37135 2.03784,-3.2166 2.27895,-7.46922 0.35663,-10.79711 -3.06197,-5.39431 -7.94813,-9.5371 -13.05221,-12.93643 -6.44086,-4.08787 -13.98853,-6.82257 -21.68395,-6.74953 z"
     id="path52" />
  <path
     style="fill:#000000;fill-opacity:1;stroke:#000000;stroke-width:0.238065;stroke-opacity:1"
     d="m 376.04481,412.39722 c -5.94453,0.2905 -11.82696,0.93484 -17.78747,1.04103 -15.61718,0.65493 -31.23072,1.66765 -46.83195,2.43509 -4.85103,0.32863 -9.80687,-0.3319 -14.58709,0.72675 -3.34886,0.91151 -5.90361,4.48286 -5.5392,7.95055 0.76224,3.45545 4.60241,4.91167 7.74735,5.36159 10.88625,0.85948 21.80245,-0.22092 32.64798,-1.15917 1.10534,0.0131 0.28938,2.12738 0.63557,2.97164 1.91107,40.24988 3.84246,80.51208 5.85125,120.74892 0.47479,11.01963 0.24791,22.0624 0.86951,33.07436 0.38377,3.93129 1.51969,8.38219 4.97657,10.72828 1.98718,1.3688 4.86913,0.45906 5.86981,-1.69761 2.55717,-4.01501 1.73251,-8.97497 1.82547,-13.47339 -0.53115,-12.91752 -1.31667,-25.82498 -1.78639,-38.74624 -1.26583,-32.31311 -2.44758,-64.63537 -4.21352,-96.92822 -0.26412,-5.7056 -0.70752,-11.40511 -0.73706,-17.11156 5.69677,-0.84936 11.49286,-0.6481 17.23996,-0.8929 6.08823,-0.29814 12.30624,-0.0555 18.25458,-1.57657 3.21525,-0.78599 6.32545,-3.64922 5.89304,-7.19915 -0.27213,-3.13252 -2.91579,-5.73036 -6.04509,-6.00418 -1.41355,-0.23801 -2.853,-0.26904 -4.28332,-0.24922 z"
     id="path53" />
  <path
     style="fill:#000000;fill-opacity:1;stroke:#000000;stroke-width:0.238065;stroke-opacity:1"
     d="m 494.47446,407.2551 c -1.91459,0.52121 -3.61466,1.99414 -4.626,3.69606 -1.91393,3.96173 -1.08727,8.5255 -1.06897,12.75835 0.55658,8.35448 1.46317,16.66472 1.81599,25.03255 1.03832,18.43637 1.77278,36.89815 3.15922,55.30854 0.85664,15.52021 1.54004,31.48238 -2.67872,46.57568 -2.62257,9.4698 -8.15071,18.82674 -17.14929,23.48656 -4.32557,2.27033 -9.16134,3.35809 -14.00054,3.18598 -4.86243,0.11095 -9.71246,-0.49196 -14.2007,-2.41962 -8.71954,-3.37919 -15.31008,-10.86094 -18.96554,-19.32196 -6.40127,-14.52644 -6.63471,-30.65446 -7.21515,-46.26053 -0.83738,-28.01662 -2.63098,-55.9952 -3.23106,-84.01954 -0.30509,-4.62204 -0.27026,-9.86775 -3.47058,-13.58299 -2.23117,-2.57855 -6.61454,-1.55561 -8.39692,1.05037 -2.38025,3.16339 -1.9654,7.40657 -1.90871,11.13188 1.05875,13.98005 1.46293,28.00337 2.15623,42.00556 0.82943,17.87564 1.4534,35.76226 2.00206,53.64977 0.70921,15.66518 2.56644,31.80523 9.87735,45.92433 5.72548,11.24169 15.77304,20.38558 27.89736,24.16457 6.62386,2.224 13.73872,2.44469 20.62614,1.61717 10.84352,-1.79966 20.9974,-7.5825 27.89878,-16.16648 9.26886,-11.1505 13.1941,-25.75052 14.01747,-39.99976 0.85338,-15.96269 -0.81043,-31.9124 -1.53412,-47.84747 -1.10138,-20.67169 -2.13911,-41.34621 -2.86768,-62.03196 -0.41764,-4.91481 -0.39947,-10.12159 -2.63229,-14.6367 -1.06426,-2.05555 -3.24141,-3.18833 -5.50433,-3.30036 z"
     id="path54" />
  <path
     style="fill:#000000;fill-opacity:1;stroke:#000000;stroke-width:0.238065;stroke-opacity:1"
     d="m 567.73491,404.59406 c -10.67338,0.33073 -21.36736,0.28993 -32.02374,1.01234 -3.66498,0.49688 -7.68396,0.57582 -10.86244,2.68279 -1.74727,1.53273 -1.36712,4.2048 -1.64957,6.28479 -0.30633,12.84764 0.85359,25.67401 1.65523,38.48559 1.18442,17.23211 1.7598,34.49997 2.66167,51.74842 0.83063,17.80184 1.81474,35.58518 2.22645,53.39915 0.41052,7.58593 0.4657,15.30881 2.45091,22.69065 0.18137,1.34468 1.20946,2.32811 2.54711,2.50062 6.79964,1.4242 13.8169,0.89683 20.71313,0.79917 11.57315,-0.50097 23.19162,-1.11444 34.6236,-3.07474 9.47908,-1.85203 18.21314,-6.81858 25.22562,-13.38327 9.79225,-9.35468 14.9447,-22.4036 18.11076,-35.31583 2.16608,-9.49805 3.59614,-19.21903 3.44587,-28.98134 0.0765,-7.82418 -0.0193,-15.67766 -1.29021,-23.41832 -2.74787,-19.05714 -8.82378,-38.22557 -21.01302,-53.42717 -7.84877,-9.76819 -18.53875,-17.68929 -30.92814,-20.42379 -5.20279,-1.20694 -10.56196,-1.61198 -15.89323,-1.57906 z m -2.0747,14.4476 c 5.10354,-0.0128 10.30257,-0.0535 15.19748,1.43479 12.43808,3.32864 23.06447,11.99469 29.61276,22.99575 8.64773,14.40285 12.30969,31.34716 13.21159,47.99731 0.45554,12.06094 -0.11294,24.15147 -2.89964,35.92288 -2.70712,11.92584 -8.35701,23.57343 -17.88209,31.51853 -5.15746,4.62459 -11.6436,7.58107 -18.40411,8.83128 -7.00845,1.48224 -14.14798,1.86914 -21.3047,1.87243 -6.62616,0.029 -13.26472,0.30221 -19.8848,0.009 -0.67607,-17.3751 -1.32453,-34.8097 -2.23886,-52.19691 -1.58878,-32.50658 -3.41338,-65.00701 -4.83382,-97.51835 9.80644,-0.36479 19.60961,-0.90194 29.42619,-0.86717 z"
     id="path55" />
  <path
     style="fill:#000000;fill-opacity:1;stroke:#000000;stroke-width:0.238065;stroke-opacity:1"
     d="m 659.93087,398.8791 c -1.82863,1.52314 -3.5924,3.458 -3.63674,5.98484 -0.91752,9.77942 0.65791,19.56423 1.10676,29.32371 1.78959,32.87049 3.21971,65.76011 4.71469,98.64521 0.64243,13.00876 0.72433,26.07027 2.13301,39.02961 0.32774,2.93235 1.88948,6.29131 5.13769,6.77047 1.56682,0.24731 3.59227,0.69494 4.60343,-0.92747 2.38575,-2.147 3.01447,-5.44746 2.95214,-8.51845 0.0172,-11.62237 -1.26364,-23.18192 -1.69301,-34.78913 -1.8305,-38.09988 -3.94073,-76.19051 -5.40227,-114.30267 -0.3752,-5.45217 -0.34784,-10.97667 -1.38022,-16.35624 -0.50088,-2.58688 -2.77804,-4.54682 -5.39367,-4.73527 -1.03418,-0.0789 -2.13546,-0.32303 -3.14181,-0.12461 z"
     id="path56" />
  <path
     style="fill:#000000;fill-opacity:1;stroke:#000000;stroke-width:0.238065;stroke-opacity:1"
     d="m 750.73609,393.74814 c -14.7961,0.28376 -28.92949,7.89664 -38.38955,19.09851 -10.59882,12.61779 -16.58705,28.59198 -19.04839,44.75603 -1.69883,10.06213 -1.65502,20.30539 -1.2596,30.47005 1.49589,19.23896 5.40951,38.74377 14.88932,55.75056 7.14365,12.76329 18.14989,24.02707 32.25507,28.76871 9.53686,3.29003 20.03471,3.14633 29.67216,0.34362 7.07698,7.70081 13.82549,15.69928 20.30763,23.90605 3.40276,0.35032 6.9535,0.0512 10.41351,0.15018 1.71239,-0.0985 3.51205,0.19566 5.17095,-0.14367 -0.11613,-1.4227 -1.33978,-2.67689 -1.98087,-3.98488 -5.61834,-9.03774 -12.09771,-17.50287 -18.264,-26.15319 4.46307,-5.2924 9.64562,-10.01775 13.37858,-15.90423 10.40748,-15.61285 14.51367,-34.51129 15.60268,-53.0076 0.254,-11.49036 0.17343,-23.05275 -1.66085,-34.42726 -2.55854,-17.41837 -8.25664,-34.91885 -19.61587,-48.65438 -10.10022,-12.30665 -25.21385,-21.25392 -41.47077,-20.9685 z m 1.32238,14.52896 c 12.06047,-0.0813 23.35577,6.68798 30.54101,16.10669 10.04824,12.89271 14.56088,29.17079 16.783,45.14058 1.33067,9.42044 1.48141,18.98351 1.05523,28.48265 -1.07145,16.19674 -5.2772,32.67254 -15.06264,45.8609 -6.2976,8.53881 -15.90603,14.76034 -26.4721,16.26776 -9.15867,0.92849 -18.77148,-1.35635 -26.12687,-7.03807 -10.43539,-7.74544 -17.15756,-19.50221 -21.16179,-31.67386 -5.30539,-16.09968 -7.38271,-33.24751 -6.5812,-50.16439 0.91478,-17.01965 5.50211,-34.48426 16.26005,-47.99343 5.49534,-6.98833 13.42528,-11.87007 22.03843,-13.84571 2.87544,-0.71013 5.75928,-1.12488 8.72688,-1.14312 z"
     id="path57" />
</svg>
