<?xml version="1.0" encoding="utf-8" ?>
<svg xmlns="http://www.w3.org/2000/svg" xmlns:xlink="http://www.w3.org/1999/xlink" width="1024" height="1024">
	<path fill="#FEFEFE" d="M0 0L1024 0L1024 1024L0 1024L0 0Z"/>
	<path fill="#080717" d="M496.299 67.2768Q499.248 67.1447 502.199 67.0804Q507.658 66.9613 513.118 66.9756Q518.579 66.9899 524.037 67.1377Q529.495 67.2855 534.948 67.5666Q540.402 67.8478 545.846 68.2621Q551.291 68.6765 556.724 69.2238Q562.156 69.7711 567.574 70.451Q572.992 71.131 578.392 71.9431Q583.791 72.7553 589.17 73.6992Q594.548 74.6431 599.901 75.7182Q605.255 76.7932 610.58 77.9988Q615.906 79.2044 621.2 80.5398Q626.495 81.8753 631.755 83.3397Q637.016 84.8041 642.239 86.3967Q647.461 87.9892 652.644 89.709Q657.826 91.4287 662.965 93.2746Q668.104 95.1205 673.196 97.0915Q678.289 99.0624 683.331 101.157Q688.374 103.252 693.363 105.47Q698.353 107.687 703.287 110.026Q708.222 112.365 713.097 114.823Q717.972 117.282 722.786 119.859Q727.6 122.436 732.35 125.13Q737.099 127.824 741.782 130.633Q746.464 133.443 751.076 136.365Q755.688 139.288 760.228 142.323Q764.767 145.358 769.231 148.503Q773.695 151.647 778.08 154.9Q782.466 158.153 786.771 161.512Q791.076 164.872 795.297 168.335Q799.518 171.798 803.654 175.364Q807.789 178.93 811.836 182.595Q815.884 186.261 819.84 190.024C907.097 273.554 953.378 384.389 955.898 504.686Q956.05 510.159 956.065 515.633Q956.081 521.108 955.96 526.582Q955.838 532.055 955.581 537.524Q955.323 542.993 954.929 548.453Q954.534 553.914 954.004 559.363Q953.474 564.812 952.807 570.246Q952.141 575.68 951.339 581.096Q950.538 586.512 949.601 591.906Q948.664 597.3 947.593 602.669Q946.522 608.038 945.318 613.379Q944.113 618.719 942.776 624.028Q941.438 629.337 939.969 634.611Q938.499 639.885 936.898 645.12Q935.297 650.356 933.566 655.55Q931.835 660.744 929.975 665.893Q928.115 671.042 926.127 676.143Q924.139 681.244 922.024 686.294Q919.909 691.344 917.669 696.339Q915.429 701.335 913.065 706.273Q910.7 711.211 908.214 716.089Q905.727 720.966 903.119 725.78Q900.512 730.594 897.785 735.341Q895.058 740.088 892.213 744.766Q889.369 749.444 886.408 754.049Q883.448 758.655 880.373 763.185Q877.299 767.715 874.112 772.166Q870.925 776.618 867.628 780.989Q864.332 785.36 860.927 789.647Q857.522 793.935 854.011 798.136Q850.5 802.336 846.886 806.448Q843.271 810.56 839.555 814.581Q835.839 818.602 832.024 822.528Q828.306 826.36 824.496 830.101Q820.687 833.841 816.788 837.489Q812.889 841.136 808.903 844.689Q804.917 848.241 800.847 851.696Q796.776 855.151 792.623 858.506Q788.47 861.862 784.237 865.116Q780.005 868.37 775.694 871.521Q771.384 874.672 766.999 877.717Q762.614 880.763 758.156 883.702Q753.699 886.641 749.172 889.471Q744.645 892.301 740.05 895.021Q735.456 897.741 730.797 900.349Q726.138 902.957 721.418 905.452Q716.698 907.947 711.918 910.327Q707.139 912.707 702.304 914.971Q697.468 917.234 692.579 919.38Q687.691 921.527 682.751 923.554Q677.812 925.581 672.825 927.489Q667.839 929.396 662.807 931.182Q657.776 932.969 652.703 934.633Q647.63 936.297 642.518 937.838Q637.406 939.379 632.258 940.796Q627.111 942.213 621.93 943.505Q616.75 944.797 611.54 945.964Q606.33 947.131 601.093 948.171Q595.856 949.211 590.596 950.125Q585.335 951.038 580.055 951.824Q574.774 952.61 569.475 953.268Q564.177 953.926 558.864 954.456Q553.551 954.986 548.227 955.387Q542.903 955.789 537.571 956.061Q532.239 956.333 526.902 956.477C512.809 956.715 498.688 957.092 484.608 956.242C376.371 949.708 279.274 904.996 200.739 830.881C192.805 823.394 185.467 815.209 178.209 807.075Q175.036 803.491 171.942 799.84Q168.847 796.188 165.833 792.47Q162.818 788.752 159.885 784.97Q156.952 781.187 154.102 777.342Q151.251 773.497 148.485 769.59Q145.719 765.684 143.038 761.719Q140.357 757.754 137.763 753.731Q135.169 749.708 132.663 745.63Q130.157 741.552 127.74 737.421Q125.323 733.29 122.996 729.107Q120.669 724.924 118.434 720.692Q116.199 716.459 114.055 712.179Q111.912 707.899 109.863 703.574Q107.813 699.248 105.858 694.88Q103.903 690.511 102.043 686.1Q100.183 681.69 98.4187 677.24Q96.6548 672.791 94.988 668.304Q93.3212 663.817 91.7521 659.295Q90.183 654.773 88.7125 650.218Q87.2419 645.663 85.8706 641.077Q84.4992 636.492 83.2277 631.877Q81.9563 627.263 80.7852 622.622Q79.6142 617.98 78.5442 613.315Q77.4741 608.65 76.5056 603.962Q75.5371 599.275 74.6706 594.567Q73.804 589.86 73.0399 585.135Q72.2757 580.41 71.6143 575.669Q70.9529 570.929 70.3945 566.175Q69.8361 561.421 69.381 556.656Q68.9259 551.892 68.5744 547.118Q68.2229 542.344 67.975 537.564Q67.7271 532.784 67.5831 528C64.2585 406.85 105.366 294.347 188.968 206.06Q192.66 202.107 196.448 198.246Q200.237 194.385 204.12 190.619Q208.002 186.853 211.977 183.184Q215.951 179.515 220.015 175.946Q224.079 172.376 228.23 168.908Q232.381 165.44 236.617 162.076Q240.852 158.711 245.169 155.452Q249.487 152.194 253.883 149.043Q258.28 145.892 262.753 142.85Q267.226 139.809 271.772 136.879Q276.319 133.949 280.937 131.132Q285.555 128.315 290.241 125.613Q294.927 122.911 299.678 120.326Q304.429 117.741 309.243 115.274Q314.057 112.807 318.93 110.46Q323.803 108.113 328.733 105.886Q333.663 103.66 338.646 101.557Q343.629 99.4529 348.663 97.473Q353.697 95.4932 358.778 93.6383Q363.859 91.7834 368.984 90.0546Q374.11 88.3258 379.276 86.7242Q384.443 85.1227 389.647 83.6492Q394.852 82.1758 400.091 80.8314Q405.331 79.487 410.602 78.2725Q415.872 77.058 421.172 75.9741Q426.471 74.8902 431.796 73.9376Q437.12 72.985 442.467 72.1642Q447.813 71.3435 453.178 70.6551Q458.543 69.9667 463.924 69.4111Q469.304 68.8555 474.697 68.433Q480.09 68.0105 485.491 67.7215Q490.892 67.4323 496.299 67.2768Z"/>
	<path fill="#FEFEFE" d="M514.941 168.744Q519.019 168.756 523.096 168.867Q527.173 168.978 531.246 169.188Q535.319 169.398 539.385 169.706Q543.452 170.015 547.51 170.422Q551.568 170.829 555.615 171.335Q559.662 171.84 563.695 172.444Q567.729 173.047 571.746 173.748Q575.764 174.449 579.763 175.248Q583.763 176.046 587.741 176.941Q591.72 177.836 595.676 178.828Q599.632 179.819 603.563 180.906Q607.494 181.993 611.397 183.175Q615.3 184.357 619.174 185.633Q623.047 186.91 626.889 188.28Q630.73 189.649 634.537 191.112Q638.344 192.575 642.115 194.129Q645.885 195.684 649.616 197.33Q653.348 198.975 657.039 200.711Q660.729 202.446 664.377 204.271Q668.024 206.096 671.626 208.008Q675.228 209.921 678.783 211.92Q682.337 213.919 685.843 216.004Q689.348 218.089 692.801 220.259Q696.255 222.428 699.654 224.68Q703.054 226.933 706.399 229.267Q709.743 231.602 713.029 234.016Q716.316 236.431 719.543 238.925Q722.77 241.418 725.936 243.99Q729.101 246.561 732.204 249.208Q735.306 251.855 738.344 254.577Q741.381 257.299 744.351 260.094Q747.321 262.888 750.223 265.754C784.247 299.488 812.413 339.831 830.009 384.551C836.105 400.046 840.58 415.62 845.309 431.545C847.556 439.713 849.103 448.056 850.73 456.364L906.911 401.994C914.737 394.312 923.509 386.791 930.656 378.516C943.912 418.945 950.648 466.441 950.507 508.952C908.311 509.111 865.901 509.939 823.725 508.931C822.282 423.977 789.355 345.491 728.102 286.264Q726.082 284.303 724.027 282.378Q721.971 280.454 719.882 278.567Q717.792 276.68 715.668 274.831Q713.544 272.983 711.387 271.173Q709.23 269.363 707.041 267.593Q704.851 265.822 702.63 264.092Q700.409 262.362 698.157 260.672Q695.905 258.982 693.622 257.334Q691.34 255.685 689.028 254.078Q686.716 252.471 684.375 250.906Q682.034 249.342 679.665 247.82Q677.297 246.298 674.901 244.819Q672.504 243.34 670.082 241.905Q667.66 240.47 665.211 239.079Q662.763 237.688 660.29 236.342Q657.817 234.996 655.321 233.694Q652.824 232.393 650.303 231.138Q647.783 229.882 645.241 228.672Q642.698 227.463 640.134 226.299Q637.57 225.136 634.986 224.019Q632.401 222.902 629.796 221.833Q627.192 220.763 624.568 219.741Q621.945 218.719 619.303 217.745Q616.661 216.77 614.003 215.844Q611.344 214.917 608.668 214.04Q605.993 213.162 603.302 212.332Q600.612 211.503 597.906 210.723Q595.201 209.943 592.482 209.211Q589.763 208.48 587.031 207.799Q584.299 207.117 581.555 206.485Q578.812 205.853 576.057 205.271Q573.302 204.689 570.537 204.157C552.096 200.753 533.655 199.463 514.961 198.588L514.941 168.744Z"/>
	<path fill="#FEFEFE" d="M823.779 514.545L853.577 515.035Q853.548 520.054 853.373 525.069Q853.198 530.085 852.878 535.093Q852.558 540.102 852.092 545.099Q851.627 550.096 851.017 555.077Q850.408 560.059 849.654 565.021Q848.9 569.982 848.003 574.92Q847.105 579.858 846.065 584.768Q845.025 589.677 843.843 594.555Q842.661 599.432 841.338 604.274Q840.016 609.115 838.553 613.916Q837.091 618.717 835.49 623.473Q833.889 628.23 832.15 632.938Q830.412 637.646 828.538 642.301Q826.664 646.957 824.656 651.557Q822.648 656.156 820.508 660.695Q818.367 665.235 816.096 669.71Q814.44 672.95 812.717 676.155Q810.994 679.359 809.204 682.527Q807.414 685.694 805.558 688.824Q803.702 691.953 801.781 695.043Q799.86 698.133 797.875 701.182Q795.889 704.231 793.84 707.238Q791.791 710.245 789.68 713.208Q787.568 716.171 785.395 719.089Q783.222 722.007 780.988 724.879Q778.754 727.751 776.461 730.575Q774.167 733.4 771.815 736.176Q769.463 738.952 767.053 741.677Q764.643 744.403 762.176 747.078Q759.71 749.753 757.188 752.375Q754.666 754.998 752.089 757.567Q749.513 760.136 746.883 762.651Q744.254 765.165 741.572 767.624Q738.89 770.083 736.157 772.485Q733.424 774.887 730.642 777.231Q727.859 779.576 725.028 781.861Q722.197 784.146 719.319 786.372Q716.44 788.598 713.516 790.763Q710.592 792.927 707.622 795.03Q704.653 797.133 701.641 799.174Q698.628 801.214 695.574 803.191Q692.519 805.167 689.424 807.08Q686.328 808.992 683.193 810.839Q680.059 812.686 676.886 814.467Q673.713 816.248 670.504 817.962Q667.294 819.676 664.049 821.322Q660.805 822.968 657.526 824.546Q654.248 826.124 650.937 827.633C634.842 834.941 618.115 840.232 601.326 845.672C590.543 848.321 579.652 850.488 568.891 853.126C580.537 863.039 590.814 875.036 601.71 885.793Q616.849 900.557 631.638 915.672C636.516 920.624 642.005 925.546 646.23 931.053C602.523 943.945 560.365 950.823 514.747 951.022C514.425 937.138 514.726 923.182 514.72 909.291L514.341 826.626Q518.042 826.595 521.742 826.477Q525.441 826.358 529.137 826.151Q532.832 825.944 536.522 825.65Q540.211 825.355 543.893 824.972Q547.574 824.59 551.246 824.12Q554.917 823.65 558.576 823.093Q562.235 822.535 565.88 821.891Q569.525 821.247 573.154 820.516Q576.782 819.785 580.392 818.968Q584.002 818.151 587.592 817.248Q591.181 816.346 594.748 815.358Q598.315 814.37 601.858 813.297Q605.4 812.224 608.916 811.068Q612.432 809.911 615.92 808.671Q619.407 807.431 622.864 806.108Q626.321 804.786 629.745 803.381Q633.17 801.977 636.56 800.491Q639.95 799.005 643.304 797.439Q646.657 795.873 649.973 794.227Q653.288 792.582 656.564 790.858Q659.839 789.134 663.072 787.333Q666.306 785.531 669.495 783.653Q672.685 781.776 675.829 779.822Q678.973 777.869 682.07 775.841Q685.166 773.814 688.214 771.713Q691.261 769.612 694.258 767.44Q697.254 765.267 700.198 763.023Q703.142 760.78 706.032 758.467Q708.921 756.154 711.755 753.773Q714.589 751.392 717.365 748.944Q720.142 746.497 722.859 743.983Q725.576 741.47 728.233 738.893C789.949 679.439 822.127 599.728 823.779 514.545Z"/>
	<path fill="#FEFEFE" d="M72.667 515.476L201.295 515.515C202.455 598.421 232.949 673.8 290.715 733.444Q293.375 736.158 296.1 738.806Q298.825 741.455 301.614 744.035Q304.403 746.616 307.255 749.128Q310.106 751.64 313.018 754.081Q315.931 756.522 318.902 758.891Q321.873 761.26 324.901 763.556Q327.929 765.852 331.012 768.073Q334.096 770.294 337.232 772.438Q340.369 774.583 343.558 776.651Q346.746 778.718 349.984 780.707Q353.222 782.696 356.508 784.604Q359.793 786.513 363.125 788.341Q366.456 790.169 369.832 791.915Q373.207 793.661 376.624 795.324Q380.041 796.986 383.497 798.565Q386.954 800.143 390.448 801.637Q393.942 803.13 397.472 804.538Q401.001 805.946 404.565 807.266Q408.128 808.587 411.722 809.82Q415.316 811.053 418.94 812.198Q422.563 813.343 426.214 814.399Q429.864 815.454 433.539 816.421Q437.214 817.387 440.912 818.263Q444.61 819.138 448.328 819.923Q452.046 820.709 455.782 821.402Q459.518 822.096 463.27 822.698Q467.022 823.301 470.787 823.811Q474.553 824.321 478.33 824.739Q482.107 825.157 485.893 825.482Q489.679 825.808 493.472 826.04Q497.264 826.273 501.062 826.413Q504.859 826.552 508.659 826.599Q508.836 840.861 508.652 855.123C450.544 856.094 388.94 838.563 338.938 809.286Q335.95 807.523 332.998 805.699Q330.046 803.875 327.132 801.991Q324.218 800.107 321.343 798.164Q318.468 796.221 315.633 794.22Q312.798 792.219 310.005 790.16Q307.211 788.102 304.461 785.987Q301.71 783.872 299.003 781.701Q296.296 779.53 293.633 777.305Q290.971 775.079 288.355 772.8Q285.739 770.52 283.169 768.188Q280.6 765.856 278.079 763.471Q275.558 761.087 273.086 758.652Q270.614 756.217 268.193 753.732Q265.771 751.247 263.4 748.713Q261.03 746.179 258.711 743.597Q256.393 741.015 254.128 738.386Q251.863 735.758 249.652 733.084Q247.441 730.409 245.284 727.691Q243.128 724.972 241.028 722.21Q238.928 719.447 236.885 716.643Q234.841 713.838 232.856 710.993Q230.87 708.147 228.943 705.262Q227.015 702.376 225.147 699.452Q223.279 696.528 221.471 693.566Q219.663 690.604 217.916 687.606Q216.169 684.608 214.483 681.575Q212.798 678.542 211.174 675.476Q209.551 672.409 207.991 669.31Q206.43 666.21 204.933 663.08Q203.436 659.95 202.003 656.789Q200.571 653.629 199.203 650.44Q197.835 647.251 196.532 644.035C188.961 625.565 183.39 606.725 178.361 587.434C177.142 581.245 175.906 575.02 174.992 568.778Q147.256 596.276 118.822 623.05C110.986 630.515 101.669 640.805 93.5259 647.265C79.3829 605.583 72.8932 559.409 72.667 515.476Z"/>
	<path fill="#FEFEFE" d="M375.879 93.5092C419.42 80.3555 463.364 71.9881 509.043 72.5889L509.182 198.514C490.494 199.237 472.019 200.678 453.627 204.187Q450.615 204.776 447.614 205.424Q444.614 206.072 441.627 206.779Q438.64 207.486 435.668 208.251Q432.695 209.017 429.739 209.841Q426.782 210.665 423.842 211.548Q420.902 212.43 417.98 213.37Q415.058 214.31 412.155 215.307Q409.252 216.305 406.37 217.359Q403.487 218.413 400.626 219.524Q397.764 220.635 394.926 221.802Q392.087 222.97 389.271 224.192Q386.456 225.415 383.665 226.693Q380.875 227.971 378.11 229.304Q375.345 230.637 372.607 232.024Q369.868 233.411 367.158 234.852Q364.448 236.293 361.766 237.787Q359.085 239.28 356.434 240.827Q353.782 242.373 351.162 243.972Q348.541 245.57 345.953 247.22Q343.364 248.869 340.809 250.57Q338.254 252.27 335.732 254.02Q333.211 255.771 330.724 257.57Q328.238 259.37 325.787 261.219Q323.337 263.067 320.923 264.963Q318.51 266.859 316.134 268.803Q313.758 270.746 311.421 272.736Q309.084 274.726 306.787 276.762Q304.489 278.797 302.233 280.878Q299.976 282.958 297.76 285.083Q295.545 287.207 293.372 289.375Q291.199 291.543 289.069 293.753Q286.939 295.963 284.853 298.215Q282.376 300.889 279.963 303.619Q277.549 306.349 275.199 309.135Q272.85 311.921 270.565 314.761Q268.281 317.601 266.064 320.493Q263.846 323.385 261.697 326.328Q259.547 329.27 257.466 332.262Q255.386 335.254 253.375 338.294Q251.365 341.334 249.425 344.419Q247.486 347.505 245.619 350.635Q243.752 353.765 241.958 356.937Q240.165 360.109 238.445 363.323Q236.726 366.536 235.082 369.788Q233.437 373.041 231.869 376.33Q230.301 379.62 228.81 382.945Q227.319 386.271 225.905 389.63Q224.492 392.989 223.157 396.38Q221.822 399.771 220.566 403.192Q219.31 406.614 218.134 410.063Q216.958 413.512 215.863 416.988Q214.768 420.464 213.754 423.965Q212.739 427.465 211.807 430.988Q210.874 434.511 210.024 438.055Q209.174 441.599 208.406 445.161Q207.638 448.724 206.954 452.303Q206.269 455.883 205.668 459.477Q205.067 463.072 204.549 466.679Q204.032 470.287 203.599 473.905Q203.165 477.524 202.816 481.151Q202.467 484.779 202.202 488.414Q201.938 492.049 201.757 495.688Q201.577 499.328 201.482 502.971Q201.387 506.615 201.376 510.259L170.787 510.173C171.516 493.133 172.383 476.265 174.975 459.382Q175.513 455.798 176.126 452.227Q176.74 448.655 177.429 445.098Q178.118 441.54 178.883 437.998Q179.647 434.456 180.487 430.931Q181.327 427.406 182.241 423.899Q183.155 420.392 184.144 416.906Q185.133 413.42 186.195 409.955Q187.257 406.491 188.393 403.05Q189.529 399.608 190.738 396.192Q191.946 392.776 193.227 389.386Q194.508 385.996 195.861 382.634Q197.213 379.273 198.637 375.94Q200.061 372.608 201.555 369.306Q203.049 366.005 204.613 362.736Q206.177 359.467 207.81 356.232Q209.443 352.997 211.144 349.798Q212.846 346.598 214.614 343.435Q216.383 340.273 218.219 337.148Q220.055 334.024 221.956 330.939Q223.858 327.854 225.825 324.811Q227.791 321.767 229.822 318.766Q231.853 315.765 233.947 312.807Q236.042 309.85 238.198 306.938Q240.355 304.026 242.573 301.16Q244.79 298.294 247.069 295.476Q249.347 292.658 251.685 289.889Q254.022 287.12 256.418 284.401Q258.814 281.682 261.267 279.015Q263.72 276.348 266.229 273.734Q268.738 271.119 271.302 268.558Q273.867 265.998 276.485 263.492Q279.102 260.986 281.773 258.537Q287.811 252.971 294.107 247.697Q300.403 242.423 306.942 237.454Q313.48 232.485 320.247 227.832Q327.014 223.179 333.995 218.852Q340.975 214.525 348.152 210.534Q355.33 206.542 362.689 202.896Q370.048 199.25 377.571 195.957Q385.095 192.664 392.766 189.732C404.352 185.362 416.317 181.985 428.168 178.415C433.03 178.329 447.462 174.347 453.143 173.128L401.259 119.703C392.835 111.042 383.607 102.763 375.879 93.5092Z"/>
	<path fill="#6556FE" d="M601.326 845.672C611.379 846.33 632.116 842.169 642.582 839.992Q649.057 838.663 655.485 837.124Q661.914 835.585 668.289 833.838Q674.664 832.091 680.978 830.137Q687.293 828.183 693.541 826.025Q699.789 823.867 705.963 821.507Q712.137 819.147 718.231 816.587Q724.326 814.027 730.333 811.271Q736.341 808.514 742.256 805.563Q748.171 802.613 753.987 799.471Q759.802 796.33 765.513 793.001Q771.223 789.672 776.823 786.159Q782.422 782.646 787.904 778.953Q793.386 775.26 798.745 771.39Q804.104 767.52 809.334 763.478Q814.564 759.436 819.66 755.226Q824.756 751.016 829.712 746.643C881.993 700.769 920.817 643.481 941.634 577.004C945.157 565.752 947.252 554.244 950.138 542.838Q949.808 548.139 949.348 553.43Q948.889 558.721 948.3 564Q947.712 569.278 946.994 574.541Q946.277 579.803 945.432 585.047Q944.587 590.29 943.614 595.512Q942.641 600.733 941.541 605.929Q940.441 611.125 939.214 616.293Q937.988 621.46 936.635 626.596Q935.283 631.732 933.806 636.834Q932.329 641.936 930.728 647Q929.127 652.064 927.402 657.087Q925.678 662.111 923.832 667.091Q921.986 672.071 920.018 677.004Q918.051 681.938 915.964 686.822Q913.877 691.706 911.672 696.537Q909.466 701.369 907.143 706.145Q904.821 710.921 902.382 715.64Q899.944 720.358 897.391 725.015Q894.838 729.673 892.172 734.266Q889.506 738.86 886.729 743.387Q883.952 747.914 881.065 752.373Q878.178 756.831 875.184 761.217Q872.189 765.604 869.088 769.916Q865.988 774.228 862.782 778.463Q859.578 782.698 856.27 786.854Q852.963 791.009 849.555 795.083Q846.147 799.157 842.641 803.146Q839.135 807.135 835.532 811.038Q831.93 814.941 828.233 818.754Q824.536 822.568 820.748 826.29Q816.959 830.013 813.081 833.641Q809.203 837.27 805.237 840.803Q800.931 844.623 796.527 848.328Q792.123 852.034 787.623 855.623Q783.123 859.212 778.531 862.683Q773.939 866.153 769.257 869.502Q764.576 872.85 759.809 876.075Q755.041 879.301 750.191 882.4Q745.341 885.499 740.411 888.47Q735.481 891.441 730.475 894.283Q725.47 897.124 720.391 899.833Q715.313 902.542 710.165 905.118Q705.018 907.693 699.805 910.133Q694.591 912.573 689.316 914.875Q684.041 917.177 678.707 919.341Q673.373 921.505 667.985 923.528Q662.596 925.551 657.157 927.433Q651.717 929.314 646.23 931.053C642.005 925.546 636.516 920.624 631.638 915.672Q616.849 900.557 601.71 885.793C590.814 875.036 580.537 863.039 568.891 853.126C579.652 850.488 590.543 848.321 601.326 845.672Z"/>
	<path fill="#6556FE" d="M74.1488 473.881C76.4843 458.291 77.6996 442.576 80.5293 427.016C87.3934 389.27 101.035 350.874 118.26 316.654Q120.694 311.758 123.248 306.925Q125.802 302.091 128.475 297.321Q131.148 292.552 133.938 287.85Q136.728 283.149 139.633 278.518Q142.538 273.886 145.557 269.328Q148.576 264.77 151.707 260.288Q154.837 255.806 158.078 251.403Q161.319 247 164.667 242.678Q168.015 238.356 171.47 234.118Q174.924 229.881 178.482 225.73Q182.04 221.579 185.699 217.517Q189.359 213.455 193.118 209.485Q196.877 205.515 200.732 201.639Q204.588 197.764 208.539 193.984Q212.489 190.205 216.532 186.524Q220.575 182.844 224.707 179.264Q228.839 175.685 233.059 172.209Q237.279 168.732 241.583 165.362Q245.888 161.991 250.274 158.727Q254.66 155.464 259.126 152.31Q263.592 149.156 268.134 146.114Q272.676 143.071 277.293 140.142Q281.909 137.213 286.596 134.398Q291.283 131.584 296.038 128.886Q300.794 126.189 305.614 123.61Q310.435 121.031 315.318 118.571Q320.2 116.112 325.143 113.775Q330.085 111.437 335.083 109.222Q340.082 107.007 345.133 104.917Q350.185 102.826 355.287 100.861Q360.389 98.8962 365.537 97.0579Q370.686 95.2196 375.879 93.5092C383.607 102.763 392.835 111.042 401.259 119.703L453.143 173.128C447.462 174.347 433.03 178.329 428.168 178.415C422.985 177.168 414.814 178.913 409.438 179.614Q402.071 180.603 394.75 181.891Q387.429 183.179 380.166 184.764Q372.904 186.349 365.712 188.228Q358.52 190.106 351.41 192.276Q344.301 194.446 337.285 196.903Q330.27 199.361 323.36 202.101Q316.45 204.842 309.658 207.861Q302.865 210.881 296.201 214.174C208.967 256.975 135.163 324.659 95.0266 414.161C90.1253 425.091 85.398 436.387 81.7778 447.817C79.0463 456.441 77.0789 465.327 74.1488 473.881Z"/>
	<path fill="#6556FE" d="M174.992 568.778C175.906 575.02 177.142 581.245 178.361 587.434C176.886 596.107 179.889 611.131 181.23 619.904Q182.064 625.495 183.058 631.06Q184.053 636.626 185.207 642.16Q186.361 647.694 187.675 653.192Q188.988 658.691 190.459 664.149Q191.931 669.608 193.559 675.022Q195.186 680.436 196.97 685.8Q198.753 691.165 200.69 696.476Q202.627 701.787 204.716 707.04Q206.805 712.293 209.045 717.484Q211.285 722.674 213.673 727.798Q216.061 732.922 218.596 737.975Q221.131 743.028 223.811 748.006Q226.49 752.984 229.312 757.883Q232.134 762.782 235.096 767.597Q238.057 772.412 241.157 777.14Q244.256 781.868 247.49 786.505C282.257 835.462 322.72 875.625 373.846 907.341Q381.445 912.134 389.287 916.52Q397.128 920.906 405.19 924.872Q413.253 928.838 421.513 932.372Q429.773 935.907 438.208 939.001C451.207 943.624 464.285 946.964 477.739 949.956C463.445 949.976 448.461 947.124 434.397 944.725Q430.296 943.99 426.21 943.178Q422.124 942.366 418.054 941.477Q413.984 940.588 409.931 939.622Q405.878 938.657 401.845 937.615Q397.811 936.572 393.798 935.454Q389.785 934.336 385.793 933.142Q381.802 931.948 377.834 930.679Q373.866 929.41 369.923 928.066Q365.979 926.722 362.062 925.304Q358.145 923.885 354.255 922.394Q350.365 920.902 346.504 919.336Q342.643 917.771 338.813 916.133Q334.982 914.495 331.183 912.785Q327.384 911.076 323.618 909.294Q319.852 907.513 316.12 905.66Q312.389 903.808 308.693 901.885Q304.997 899.963 301.338 897.971Q297.679 895.979 294.058 893.918Q290.438 891.857 286.856 889.728Q283.275 887.599 279.735 885.403Q276.195 883.207 272.697 880.944Q269.199 878.682 265.744 876.353Q262.289 874.025 258.879 871.632Q255.469 869.238 252.105 866.781Q248.741 864.324 245.423 861.803Q242.106 859.283 238.837 856.7Q235.568 854.118 232.349 851.474Q229.129 848.83 225.96 846.125Q222.791 843.421 219.674 840.657Q216.556 837.894 213.492 835.071Q210.427 832.249 207.416 829.37Q204.406 826.49 201.45 823.554Q197.804 819.955 194.246 816.271Q190.687 812.587 187.217 808.818Q183.747 805.05 180.367 801.2Q176.988 797.351 173.702 793.421Q170.415 789.492 167.223 785.486Q164.031 781.479 160.935 777.398Q157.839 773.317 154.842 769.163Q151.844 765.009 148.946 760.785Q146.049 756.561 143.252 752.269Q140.456 747.977 137.763 743.62Q135.069 739.262 132.48 734.842Q129.892 730.422 127.409 725.941Q124.926 721.46 122.551 716.922Q120.176 712.383 117.909 707.79Q115.643 703.196 113.486 698.549Q111.33 693.903 109.285 689.206C103.342 675.42 98.5615 661.384 93.5259 647.265C101.669 640.805 110.986 630.515 118.822 623.05Q147.256 596.276 174.992 568.778Z"/>
	<path fill="#6556FE" d="M845.309 431.545C846.039 426.026 844.91 419.455 844.248 413.917C840.174 379.857 830.718 345.672 817.826 313.924C786.655 237.17 729.772 169.57 661.232 123.421C647.018 113.851 632.821 105.109 617.291 97.8037Q606.052 92.4212 594.398 88.0106Q582.743 83.5999 570.757 80.1929C563.192 77.9804 554.479 76.8473 547.306 73.8132C551.462 72.6058 562.684 75.0382 567.439 75.6927C614.478 82.1665 661.882 95.1702 704.383 116.678C816.61 173.47 891.403 258.699 930.656 378.516C923.509 386.791 914.737 394.312 906.911 401.994L850.73 456.364C849.103 448.056 847.556 439.713 845.309 431.545Z"/>
	<path fill="#FEFEFE" d="M503.757 204.223C503.899 204.211 504.04 204.194 504.182 204.188C580.548 201.005 659.125 231.441 715.483 282.513Q718.348 285.068 721.148 287.695Q723.949 290.321 726.682 293.016Q729.416 295.711 732.082 298.474Q734.748 301.237 737.344 304.065Q739.94 306.894 742.464 309.786Q744.989 312.678 747.44 315.633Q749.892 318.587 752.269 321.602Q754.646 324.617 756.947 327.69Q759.248 330.763 761.471 333.892Q763.695 337.022 765.84 340.206Q767.984 343.39 770.049 346.627Q772.113 349.864 774.096 353.151Q776.079 356.438 777.98 359.774Q779.88 363.11 781.697 366.492Q783.513 369.874 785.245 373.3Q786.977 376.727 788.622 380.196Q790.268 383.664 791.826 387.173Q793.384 390.681 794.854 394.228Q796.325 397.774 797.706 401.356Q799.087 404.938 800.379 408.553Q801.67 412.169 802.871 415.815Q804.072 419.462 805.181 423.137Q806.29 426.812 807.307 430.514Q808.325 434.216 809.249 437.942Q810.174 441.668 811.005 445.417Q811.836 449.165 812.573 452.932Q813.311 456.7 813.954 460.485Q814.597 464.27 815.145 468.069Q815.694 471.869 816.147 475.681Q816.6 479.494 816.958 483.316Q817.316 487.138 817.579 490.968Q817.841 494.798 818.008 498.634Q818.166 502.403 818.232 506.174Q818.299 509.946 818.275 513.718Q818.25 517.49 818.135 521.26Q818.019 525.031 817.812 528.797Q817.606 532.563 817.308 536.324Q817.011 540.084 816.623 543.836Q816.234 547.588 815.756 551.33Q815.277 555.071 814.708 558.8Q814.139 562.529 813.48 566.243Q812.822 569.958 812.073 573.655Q811.325 577.352 810.488 581.03Q809.65 584.708 808.724 588.365Q807.798 592.021 806.784 595.654Q805.77 599.288 804.669 602.895Q803.567 606.503 802.379 610.083Q801.191 613.663 799.917 617.214Q798.642 620.764 797.282 624.282Q795.923 627.801 794.478 631.286Q793.034 634.77 791.506 638.219Q789.978 641.668 788.367 645.078Q786.756 648.489 785.063 651.86Q783.371 655.231 781.597 658.56Q779.823 661.889 777.969 665.175Q776.116 668.46 774.184 671.699Q772.251 674.939 770.241 678.131Q768.231 681.323 766.144 684.465Q764.058 687.608 761.896 690.699Q759.734 693.79 757.498 696.828Q755.262 699.866 752.954 702.849Q750.645 705.832 748.265 708.759Q745.885 711.685 743.435 714.554Q740.985 717.422 738.467 720.23Q735.914 723.054 733.292 725.814Q730.669 728.573 727.979 731.267Q725.289 733.961 722.533 736.587Q719.776 739.213 716.956 741.77Q714.135 744.327 711.252 746.813Q708.369 749.299 705.425 751.712Q702.481 754.126 699.477 756.466Q696.474 758.805 693.414 761.07Q690.354 763.334 687.238 765.522Q684.122 767.71 680.954 769.819Q677.785 771.929 674.564 773.959Q671.344 775.99 668.074 777.939Q664.804 779.889 661.487 781.757Q658.17 783.625 654.807 785.41Q651.444 787.194 648.038 788.895Q644.632 790.596 641.185 792.212Q637.738 793.827 634.252 795.357Q630.766 796.887 627.243 798.329Q623.72 799.772 620.162 801.126Q616.604 802.481 613.014 803.746Q609.423 805.012 605.802 806.188Q602.182 807.365 598.533 808.451Q594.884 809.536 591.209 810.531Q587.535 811.526 583.836 812.43Q580.138 813.333 576.419 814.144Q572.699 814.955 568.961 815.674Q565.222 816.393 561.467 817.018Q557.712 817.644 553.942 818.176Q550.172 818.708 546.391 819.146Q542.609 819.584 538.818 819.928Q535.026 820.273 531.228 820.522Q527.429 820.772 523.625 820.928C439.633 822.986 364.027 794.241 302.385 737.055C243.819 682.722 209.961 603.579 206.983 524.194Q206.838 520.369 206.787 516.541Q206.737 512.713 206.781 508.885Q206.824 505.057 206.963 501.232Q207.101 497.406 207.334 493.585Q207.566 489.764 207.893 485.95Q208.22 482.136 208.641 478.331Q209.061 474.526 209.576 470.732Q210.091 466.939 210.699 463.159Q211.307 459.38 212.008 455.616Q212.709 451.853 213.502 448.108Q214.296 444.363 215.182 440.639Q216.068 436.915 217.045 433.213Q218.023 429.512 219.091 425.836Q220.159 422.16 221.318 418.512Q222.477 414.863 223.726 411.244Q224.974 407.626 226.311 404.039Q227.649 400.452 229.074 396.899Q230.5 393.346 232.012 389.829Q233.525 386.313 235.124 382.835Q236.723 379.356 238.407 375.919Q240.092 372.481 241.86 369.086Q243.629 365.691 245.481 362.341Q247.332 358.99 249.266 355.686Q251.2 352.383 253.215 349.128Q255.23 345.873 257.324 342.668Q259.419 339.464 261.592 336.312Q263.765 333.161 266.015 330.064Q268.265 326.967 270.591 323.926Q272.917 320.885 275.317 317.903Q277.717 314.921 280.19 311.999Q282.662 309.076 285.207 306.216Q287.751 303.356 290.365 300.559Q292.934 297.822 295.57 295.148Q298.206 292.475 300.907 289.867Q303.608 287.259 306.372 284.718Q309.136 282.177 311.961 279.705Q314.787 277.233 317.672 274.831Q320.557 272.429 323.501 270.099Q326.444 267.768 329.444 265.511Q332.444 263.253 335.499 261.07Q338.553 258.887 341.66 256.78Q344.767 254.672 347.925 252.642Q351.083 250.611 354.29 248.659Q357.496 246.707 360.75 244.834Q364.004 242.961 367.303 241.168Q370.602 239.376 373.943 237.665Q377.285 235.954 380.668 234.326Q384.051 232.697 387.473 231.152Q390.895 229.608 394.353 228.147Q397.812 226.687 401.306 225.312Q404.799 223.937 408.325 222.649Q411.852 221.36 415.408 220.158Q418.965 218.957 422.551 217.843Q426.136 216.729 429.747 215.703Q433.359 214.677 436.995 213.741Q440.63 212.804 444.288 211.957Q447.945 211.11 451.623 210.353Q455.3 209.596 458.995 208.93Q462.689 208.263 466.399 207.688Q470.109 207.112 473.832 206.628Q477.555 206.144 481.289 205.751Q485.023 205.359 488.765 205.058Q492.507 204.757 496.256 204.548Q500.004 204.34 503.757 204.223Z"/>
	<path fill="#080717" d="M616.827 442.708C617.382 442.746 618.443 442.734 619.001 442.94C619.733 443.211 620.245 443.507 620.498 444.25C621.601 447.483 621.289 538.076 620.833 548.166C620.753 549.934 620.61 551.15 619.787 552.726C618.813 552.589 617.873 552.371 616.914 552.156C616.306 551.586 615.956 551.43 615.719 550.605C614.434 546.125 615.554 522.486 615.554 516.123L615.51 470.233C615.503 462.626 615.178 454.866 615.556 447.275C615.644 445.495 615.948 444.263 616.827 442.708Z"/>
	<path fill="#080717" d="M340.47 444.666C352.882 444.068 365.541 444.548 377.978 444.539C384.4 444.535 396.341 443.569 402.009 444.955C403.105 445.223 403.445 445.657 403.999 446.61C404.502 447.477 404.39 447.1 404.107 448.146C400.322 451.423 379.075 449.895 373.348 449.846L372.943 521.699C372.934 526.923 374.011 545.891 372.379 549.478C371.818 550.713 371.341 551.094 370.128 551.614L369.005 551.065C368.033 549.613 367.629 548.27 367.483 546.519C366.683 536.943 367.514 526.067 367.507 516.374L367.444 449.959C361.429 450.027 346.052 451.273 341.139 449.417C339.915 448.955 339.653 448.514 339.193 447.344C339.385 446.128 339.698 445.618 340.47 444.666Z"/>
	<path fill="#080717" d="M300.217 443.604C302.161 443.516 304.136 443.393 306.082 443.479C313.403 443.803 319.726 446.986 324.619 452.395C326.307 454.262 327.44 455.225 327.297 457.871C326.464 458.987 326.457 459.017 325.117 459.383C321.047 458.347 318.484 454.567 315.437 451.946C311.7 448.731 307.212 448.15 302.446 448.586C296.377 449.142 291.256 450.952 287.323 455.856C283.634 460.456 282.463 466.927 283.134 472.7C285.338 491.666 309.107 491.318 321.012 501.453C326.185 505.857 329.077 511.597 329.631 518.36C330.371 527.383 328.54 536.624 322.446 543.603C316.425 550.498 308.936 552.421 300.21 552.961Q299.161 552.902 298.115 552.807C290.418 552.105 283.325 548.642 278.463 542.565C276.953 540.678 275.161 537.86 275.571 535.322C275.703 534.508 276.037 534.495 276.649 534.047C280.287 534.409 284.317 541.052 287.425 543.389C292.768 547.406 298.854 548.318 305.316 547.198C311.378 546.147 317.168 542.618 320.535 537.397C324.275 531.597 325.277 523.568 323.553 516.963C319.259 500.515 301.702 500.011 289.602 492.523C283.812 488.94 279.588 483.627 278.151 476.891C276.632 469.764 278.093 460.415 282.114 454.323C286.388 447.846 292.872 444.999 300.217 443.604Z"/>
	<path fill="#080717" d="M419.722 443.868C421.017 443.997 422.936 444.05 423.568 445.413C425.052 448.609 424.085 454.403 424.094 457.921L424.008 493.755C423.987 502.624 423.482 511.889 425.125 520.633C426.343 527.118 428.81 533.903 433.213 538.926C437.818 544.18 444.636 547.279 451.57 547.677C459.375 548.125 466.872 545.959 472.745 540.651C477.758 536.119 480.737 530.067 482.37 523.583C484.723 514.246 484.217 504.401 484.206 494.849C484.187 480.054 483.494 464.939 484.297 450.183C484.41 448.094 484.323 445.315 485.931 443.867C486.753 443.927 487.793 444.612 488.343 445.244C489.59 446.676 489.313 448.092 489.385 449.875L489.447 490.408C489.46 500.754 490.027 511.357 488.254 521.586C487.305 527.064 485.63 532.266 482.643 536.988Q482.202 537.692 481.726 538.372Q481.251 539.053 480.742 539.709Q480.233 540.365 479.692 540.995Q479.151 541.625 478.579 542.227Q478.007 542.829 477.406 543.402Q476.805 543.975 476.176 544.517Q475.547 545.059 474.892 545.569Q474.237 546.08 473.557 546.556Q472.877 547.033 472.174 547.475Q471.471 547.918 470.747 548.324Q470.023 548.731 469.28 549.101Q468.536 549.471 467.775 549.803Q467.014 550.136 466.238 550.43Q465.461 550.724 464.671 550.979Q463.881 551.234 463.079 551.449Q462.277 551.664 461.465 551.839C452.579 553.814 442.666 552.404 435.003 547.386C426.389 541.746 422.054 532.535 420.125 522.688C417.547 509.533 419.031 488.216 418.94 474.06C418.883 465.186 417.991 455.881 418.607 447.064C418.701 445.724 418.977 444.973 419.722 443.868Z"/>
	<path fill="#080717" d="M518.355 444.143C538.36 443.885 560.596 442.285 576.045 457.477C586.752 468.005 590.605 483.219 590.574 497.826C590.542 513.617 586.138 527.689 574.798 538.967C568.899 543.81 562.736 547.131 555.333 549.073C549.387 550.633 521.584 553.345 516.841 550.571C515.987 549.096 516.02 546.944 515.966 545.259C515.318 524.926 515.966 504.36 515.99 484.005L516.039 459.605C516.056 455.701 515.783 451.497 516.239 447.629C516.443 445.904 517.018 445.176 518.355 444.143Z"/>
	<path fill="#FEFEFE" d="M522.657 449.238C539.824 449.056 558.182 447.839 571.578 460.604C581.351 469.917 584.951 483.62 585.176 496.756C585.423 511.169 581.707 523.932 571.587 534.403C557.448 547.607 539.503 546.555 521.494 546.485L521.523 476.748C521.525 470.072 520.599 455.247 521.776 449.697L522.657 449.238Z"/>
	<path fill="#080717" d="M685.348 442.699C691.458 442.379 697.579 442.995 703.372 445.047C714.744 449.076 723.242 458.316 728.363 469.023C735.861 484.702 736.311 505.237 730.489 521.524C725.794 534.657 717.36 543.958 704.801 549.86C710.351 553.156 716.038 556.857 721.992 559.343C724.914 560.562 728.108 560.908 731.007 562.185C732.473 562.832 733.346 563.494 733.969 565.024C733.475 566.164 733.369 566.245 732.237 566.77C729.253 568.153 725.769 566.691 722.868 565.782C713.96 562.732 706.336 557.925 698.392 552.978C685.057 554.456 673.759 553.257 662.828 544.802C651.062 535.702 644.439 520.453 642.691 505.966C640.695 489.425 644.248 471.946 654.806 458.755C662.903 448.64 672.64 444.087 685.348 442.699Z"/>
	<path fill="#FEFEFE" d="M687.431 447.713C695.972 447.712 703.688 450.039 710.375 455.447C721.205 464.208 726.776 478.15 728.129 491.721C729.587 506.353 726.516 522.763 716.906 534.276C709.536 543.106 701.317 547.347 689.911 548.442C681.296 548.518 672.892 545.772 666.264 540.222C655.77 531.434 650.094 516.598 648.893 503.252C647.59 488.773 650.841 471.87 660.5 460.566C667.587 452.274 676.731 448.47 687.431 447.713Z"/>
</svg>
