<svg width="726.0000000000001" height="715" xmlns="http://www.w3.org/2000/svg">
 <defs>
  <linearGradient y2="0.51983" x2="0.9605" y1="0.28885" x1="0.12039" id="gradient_0">
   <stop stop-color="#6E7AD5" offset="0"/>
   <stop stop-color="#96ADF9" offset="1"/>
  </linearGradient>
 </defs>
 <g>
  <title>Layer 1</title>
  <path id="svg_12" d="m423.83785,96.75795c15.051,3.257 30.411,5.886 45.345,9.601q7.83,14.475 16.479,28.476c3.271,5.339 7.176,10.717 9.813,16.374c0.575,1.233 0.939,2.157 0.699,3.537c-2.482,2.651 -25.22,3.236 -30.107,3.525l-0.248,-2.183l0.8,-0.712q13.032,-1.295 26.077,-2.453c-8.428,-14.458 -18.05,-28.622 -25.651,-43.507c-6.216,-1.459 -38.803,-6.759 -40.93,-8.839c-4.942,3.457 -9.459,9.221 -13.701,13.579q-14.744,15.062 -29.253,30.352l0.27,0.565c-0.238,-0.043 -0.473,-0.119 -0.715,-0.129c-0.143,-0.006 -0.28,0.055 -0.421,0.083c-0.729,-1.341 -0.863,-1.61 -0.834,-3.124c2.505,-4.97 8.48,-9.679 12.38,-13.639l18.479,-19.119c3.867,-4.011 8.126,-7.97 11.518,-12.387z"/>
  <path id="svg_24" d="m384.45085,147.85595c6.053,-4.181 39.864,-38.938 44.17,-45.329c3.475,6.837 33.254,51.18 37.998,52.849l-0.8,0.712l0.248,2.183c-16.082,13.987 -29.408,31.172 -45.062,45.694c-12.343,-18.609 -23.71,-37.806 -36.554,-56.109z" fill="#FEAD44"/>
  <path id="svg_25" d="m248.89525,645.65495c0.773,2.03 2.096,3.426 4.119,4.285c2.309,0.981 5.049,1.233 7.539,1.286c21.299,0.459 43.421,-0.154 64.817,-0.172l112.019,0.024l67.629,0.001c9.924,0.039 19.939,0.493 29.85,0.241c1.361,-0.034 2.643,-0.154 3.91,-0.689c1.288,-0.544 2.45,-1.448 3.573,-2.267q39.42,-0.29 78.84,-0.117q15.864,0.117 31.727,-0.123c4.042,-0.054 8.263,0.227 12.279,-0.084c1.403,-0.108 1.818,-0.018 2.851,-1.007c0.043,-0.041 0.073,-0.095 0.11,-0.142c0.855,0.636 1.56,1.463 1.947,2.468c0.629,1.635 0.455,3.88 -0.329,5.431c-0.653,1.289 -1.886,2.374 -3.304,2.713c-6.681,1.598 -20.466,0.567 -27.941,0.575l-62.509,0.067l-276.432,0.042l-148.401,0.043l-51.692,-0.069c-5.469,-0.043 -11.145,0.51 -16.577,0.206c-1.959,-0.109 -4.05,-0.379 -5.687,-1.554c-1.467,-1.054 -2.077,-2.599 -2.357,-4.325c-0.249,-1.537 0.006,-3.116 1.077,-4.312c3.649,-4.078 20.74,-2.527 26.513,-2.524l110.747,0.301c6.482,0.086 13.145,-0.303 19.598,0.21c1.182,0.404 1.717,0.721 2.939,0.189c0.178,-0.077 0.323,-0.215 0.485,-0.323c4.005,-0.646 8.582,-0.302 12.66,-0.374z" fill="#513E2C"/>
  <path id="svg_26" d="m120.26825,563.13995l104.247,-0.054l0.04,40.538l-11.406,0.089l0.064,42.24l-110.747,-0.301l0.183,-42.256c5.861,0.004 11.733,0.083 17.593,-0.004q0.115,-20.126 0.026,-40.252z" fill="#FEAD44"/>
  <path id="svg_27" d="m535.46425,245.74395c19.978,-0.399 40.115,0.382 60.122,0.385c19.33,0.003 38.834,-0.788 58.134,-0.301c3.431,0.087 6.935,-0.186 9.243,2.748c1.007,1.281 1.119,2.484 1.199,4.064c0.44,8.652 0.049,17.508 0.054,26.178l0.034,52.508l0.003,27.097c-0.001,4.436 0.551,9.726 -0.305,14.034c-0.473,2.38 -2.371,3.413 -4.266,4.559c-9.252,0.415 -18.619,0.109 -27.889,0.105l-50.942,-0.024c-8.517,0.002 -39.611,1.022 -46.11,-0.564c-1.504,-0.368 -2.383,-1.305 -3.079,-2.65c-0.954,-1.847 -0.935,-4.414 -1.007,-6.465c-0.367,-10.575 -0.63,-115.671 0.475,-118.254c0.89,-2.081 2.384,-2.642 4.334,-3.42z"/>
  <path id="svg_28" d="m536.27825,247.71395c9.061,-0.149 18.141,0.242 27.203,0.345q23.858,0.193 47.716,0.142l29.977,-0.268c5.585,-0.06 11.63,-0.592 17.154,0.283c0.93,0.147 2.57,0.401 3.048,1.299c0.738,1.384 0.772,3.162 0.819,4.707c0.3,9.669 0.49,116.417 -0.506,118.375c-0.725,1.427 -1.883,1.636 -3.255,2.248c-8.097,0.444 -16.373,0.141 -24.489,0.152l-48.748,-0.066c-8.433,-0.01 -43.8,1.157 -49.21,-0.49c-1.226,-0.374 -2.166,-1.118 -2.682,-2.319c-1.247,-2.908 -0.995,-119.783 -0.168,-121.795c0.593,-1.443 1.834,-1.979 3.141,-2.613z" fill="#FEFEFE"/>
  <path id="svg_29" d="m542.49225,255.16595c5.35,-0.564 10.992,-0.219 16.377,-0.204l29.246,0.078c21.99,0.045 44.549,-0.873 66.469,0.275c0.392,7.032 0.054,14.264 0.04,21.314l-0.011,40.098l0.049,31.408c0.006,5.33 0.411,11.031 -0.129,16.325c-0.228,2.232 -1.446,3.05 -3.054,4.405l-70.842,-0.032c-11.527,-0.004 -23.371,0.661 -34.852,-0.035c-2.039,-0.123 -3.734,-0.205 -5.104,-1.903c-1.351,-1.676 -1.407,-4.091 -1.521,-6.15c-0.953,-17.172 -0.045,-37.074 -0.072,-54.497c-0.022,-13.436 -1.082,-31.089 0.017,-44.006c0.288,-3.39 0.805,-4.856 3.387,-7.076z"/>
  <path id="svg_30" d="m544.43625,257.17395c10.346,-0.716 22.26,0.025 32.806,0.004q37.673,-0.162 75.345,0.253q-0.242,38.349 -0.013,76.698c0.019,5.092 0.961,26.703 -0.143,30.359c-0.427,1.413 -1.263,1.495 -2.496,2.062c-14.835,0.164 -103.037,1.325 -107.356,-1.106c-0.808,-1.29 -0.879,-2.736 -0.959,-4.226c-1.139,-21.055 -0.336,-42.51 -0.405,-63.617c-0.029,-8.875 -1.085,-28.861 0.396,-36.573c0.411,-2.14 1.148,-2.669 2.825,-3.854z" fill="#FEFEFE"/>
  <path id="svg_31" d="m567.15125,332.09395c1.135,-0.072 2.296,-0.152 3.428,-0.001q0.469,0.061 0.928,0.171q0.46,0.111 0.905,0.269q0.445,0.158 0.872,0.363q0.426,0.204 0.828,0.453q0.402,0.248 0.776,0.538q0.373,0.289 0.714,0.617q0.341,0.327 0.645,0.689q0.305,0.361 0.569,0.753c1.245,1.81 1.667,3.964 1.112,6.097c-0.727,2.793 -2.744,4.144 -5.095,5.549c-1.247,0.198 -2.45,0.355 -3.713,0.19c-2.275,-0.299 -4.396,-1.414 -5.739,-3.31c-1.327,-1.874 -1.673,-4.117 -1.165,-6.34c0.671,-2.94 2.506,-4.468 4.935,-6.038z" fill="#FEAD44"/>
  <path id="svg_32" d="m624.75225,331.63495c1.428,0.084 2.833,0.165 4.18,0.691c2.114,0.827 3.753,2.396 4.54,4.544q0.134,0.375 0.23,0.761q0.097,0.386 0.155,0.779q0.058,0.394 0.077,0.791q0.019,0.398 -0.001,0.795q-0.02,0.398 -0.079,0.791q-0.059,0.394 -0.156,0.779q-0.098,0.386 -0.233,0.76q-0.135,0.375 -0.306,0.734c-1.28,2.727 -3.342,3.91 -6.048,4.959c-1.351,-0.139 -2.833,-0.219 -4.126,-0.643c-2.095,-0.688 -3.844,-2.547 -4.741,-4.515q-0.16,-0.352 -0.282,-0.718q-0.121,-0.367 -0.203,-0.744q-0.083,-0.378 -0.125,-0.762q-0.041,-0.384 -0.042,-0.77q-0.001,-0.386 0.039,-0.77q0.04,-0.385 0.12,-0.762q0.08,-0.378 0.2,-0.745q0.12,-0.368 0.278,-0.72c1.285,-2.852 3.676,-4.278 6.523,-5.235z" fill="#FEAD44"/>
  <path id="svg_33" d="m575.50925,290.84395c-0.94,-0.041 -0.624,-0.139 -1.418,0.216c-1.671,0.747 -3.287,1.634 -5.163,1.7c-1.999,0.069 -3.704,-0.918 -5.082,-2.295c-1.672,-1.671 -2.72,-3.95 -2.662,-6.34c0.052,-2.175 1.08,-4.185 2.74,-5.575c1.777,-1.488 4.238,-2.239 6.545,-2.014c2.327,0.226 4.173,1.24 5.527,3.15c2.186,3.081 1.532,6.106 1.025,9.58c7.207,6.661 13.785,13.885 20.888,20.612c2.536,-4.416 15.995,-15.763 20.454,-19.364c0.02,-0.327 0.086,-0.655 0.06,-0.981c-0.015,-0.183 -0.375,-0.994 -0.427,-1.129c-0.86,-2.221 -1.174,-5.475 -0.096,-7.689c0.888,-1.824 2.925,-3.51 4.891,-4.018c2.184,-0.565 4.429,-0.011 6.31,1.172c2.195,1.381 3.876,3.682 4.35,6.248c0.343,1.853 0.019,3.803 -1.142,5.321c-1.519,1.985 -4.393,3.1 -6.825,3.28c-2.181,0.161 -4.188,-1.035 -6.248,-0.959c-4.951,7.35 -13.099,13.99 -19.58,20.047c6.235,6.309 15.698,13.61 19.482,21.607c-8.124,-4.428 -14.605,-12.944 -21.487,-19.1c-3.095,2.779 -15.47,16.045 -18.119,16.719c-0.384,-0.798 -0.386,-0.506 -0.251,-1.383c0.387,-2.519 13.943,-15.786 16.64,-17.785c-5.792,-7.792 -14.186,-13.61 -20.412,-21.02z" fill="#FEAD44"/>
  <path id="svg_34" d="m45.07225,345.67695c14.999,-0.783 30.396,-0.097 45.431,-0.138q44.846,-0.25 89.691,-0.012c8.893,0.05 36.913,-1.076 43.01,0.554c1.545,0.414 2.283,0.994 3.016,2.417c0.793,1.54 1.077,2.745 0.93,4.483c-0.561,6.639 -2.344,13.562 -3.552,20.123l-7.219,39.615l-8.389,47.172c-1.332,7.216 -2.226,15.174 -4.5,22.151c-0.815,2.497 -2.673,3.902 -4.907,5.075c-6.798,1.162 -14.72,0.429 -21.641,0.424l-40.259,-0.036l-75.082,0.092c-11.814,0.002 -23.776,0.445 -35.566,-0.041c-2.06,-0.085 -4.094,-0.313 -6.085,-0.868c-1.203,-0.335 -1.774,-0.655 -2.39,-1.829c-1.052,-2.003 -1.236,-3.819 -0.993,-6.051c0.985,-9.077 3.076,-18.296 4.712,-27.286q4.857,-26.696 9.982,-53.343l5.56,-31.411c0.987,-5.431 1.725,-11.182 3.49,-16.417c0.842,-2.498 2.5,-3.539 4.761,-4.674z"/>
  <path id="svg_35" d="m45.05125,348.68095c7.908,-0.629 16.183,-0.17 24.128,-0.165l45.459,0.027l66.027,-0.03c12.54,-0.04 25.171,-0.41 37.703,-0.085c1.659,0.043 3.379,-0.032 4.758,1.006c0.373,0.579 0.506,0.975 0.512,1.672c0.061,8.296 -2.673,17.949 -4.145,26.174q-4.335,25.477 -9.161,50.865c-2.206,11.947 -4.118,23.94 -6.379,35.881c-0.995,5.252 -1.812,10.698 -3.292,15.834c-0.56,1.943 -1.421,2.942 -2.872,4.33c-9.611,0.555 -19.522,0.052 -29.159,0.049l-58.542,-0.008l-61.069,-0.04c-8.124,0.005 -16.52,0.695 -24.595,0.336c-1.157,-0.052 -2.53,-0.228 -3.429,-1.027c-0.804,-0.715 -1.034,-1.229 -1.158,-2.267c-0.765,-6.409 7.205,-43.383 8.746,-51.873l8.433,-46.224c1.744,-9.667 3.169,-19.535 5.484,-29.082c0.522,-2.152 1.116,-3.659 2.551,-5.373z" fill="#FEFEFE"/>
  <path id="svg_36" d="m51.34225,355.98295c3.894,-1.097 65.56,-1.485 72.64,-0.46c1.533,0.399 3.032,0.845 4.535,1.347c-1.862,0.49 -3.788,0.77 -5.634,1.287c-7.405,0.914 -15.369,0.365 -22.847,0.375c-15.401,0.02 -30.822,-0.136 -46.221,0.109l-2.473,-2.658z" fill="#818CDF"/>
  <path id="svg_37" d="m123.98225,355.52295c13.214,-0.018 82.271,-1.98 89.537,0.655c0.594,1.339 0.44,2.589 0.243,4.004c-1.356,9.721 -3.555,19.468 -5.296,29.143l-9.321,52.19c-1.76,9.508 -2.75,23.389 -6.012,32.112c-0.113,0.303 -0.237,0.603 -0.355,0.905c-1.181,1.103 -1.539,1.553 -3.157,1.636c-8.493,0.435 -17.258,-0.025 -25.774,-0.048l-49.721,-0.01l-54.432,-0.065c-8.273,-0.012 -16.814,0.528 -25.057,0.049c-0.923,-0.054 -1.793,-0.261 -2.679,-0.518c-0.902,-0.434 -1.45,-0.818 -2.146,-1.538c-0.036,-3.176 1.055,-6.882 1.631,-10.024l3.646,-19.919l16.253,-88.112l2.473,2.658c15.399,-0.245 30.82,-0.089 46.221,-0.109c7.478,-0.01 15.442,0.539 22.847,-0.375c1.846,-0.517 3.772,-0.797 5.634,-1.287c-1.503,-0.502 -3.002,-0.948 -4.535,-1.347z" fill="#FEFEFE"/>
  <path id="svg_38" d="m150.22725,400.77595c0.144,-0.024 0.288,-0.053 0.433,-0.071c8.939,-1.12 22.504,1.615 29.504,7.55c0.948,0.804 0.997,1.568 1.035,2.723l-0.885,0.616c-2.851,-0.335 -9.652,-4.833 -12.811,-6.13c-8.526,-2.433 -17.446,-3.437 -25.808,0.17c-2.098,0.904 -5.349,2.861 -7.612,2.725l-0.604,-0.804c0.147,-0.283 0.242,-0.6 0.442,-0.848c2.969,-3.67 11.789,-5.338 16.306,-5.931z" fill="#CAD5FF"/>
  <path id="svg_39" d="m146.39625,421.76195c4.21,-0.688 9.086,-0.402 13.273,0.369c4.479,0.824 15.838,4.154 18.199,8.155c0.401,0.679 0.147,0.949 -0.027,1.652c-0.418,0.178 -0.807,0.456 -1.254,0.533c-0.767,0.134 -10.836,-5.421 -12.814,-6.128q-1.351,-0.396 -2.725,-0.706q-1.374,-0.31 -2.765,-0.531q-1.391,-0.222 -2.793,-0.355q-1.402,-0.133 -2.81,-0.177q-1.408,-0.043 -2.815,0.003q-1.408,0.046 -2.81,0.181q-1.402,0.136 -2.792,0.36q-1.391,0.224 -2.764,0.536c-1.744,0.392 -3.621,0.818 -5.272,1.511c-1.01,0.424 -3.41,2.197 -4.304,2.282c-0.328,0.031 -0.644,-0.137 -0.966,-0.205l-0.43,-1.157c0.162,-0.44 0.203,-0.656 0.565,-1.04c3.206,-3.408 10.855,-4.65 15.304,-5.283z" fill="#CAD5FF"/>
  <path id="svg_40" d="m145.01225,441.77695c9.351,-0.754 19.001,2.388 26.934,7.347c1.342,0.839 2.374,1.716 2.69,3.321l-0.607,0.682c-3.096,0.469 -10.631,-4.705 -14.269,-6.176c-4.88,-1.491 -9.843,-2.427 -14.969,-1.936c-3.95,0.379 -15.116,5.178 -17.289,4.297c-0.08,-0.637 -0.371,-1.266 0.072,-1.804c2.361,-2.87 13.644,-5.275 17.438,-5.731z" fill="#CAD5FF"/>
  <path id="svg_41" d="m157.20225,379.28595c7.726,-0.356 21.521,2.312 27.108,8.104c0.901,0.934 1.146,1.977 1.164,3.242l-0.641,0.592c-3.278,-0.139 -8.352,-4.762 -11.66,-6.115c-2.048,-0.838 -4.306,-1.351 -6.446,-1.909c-5.715,-1.011 -11.237,-1.009 -16.889,0.387c-3.064,0.757 -11.386,5.084 -13.342,4.799l-0.746,-1.141l0.408,-1.002c5.07,-4.267 14.514,-6.429 21.044,-6.957z" fill="#CAD5FF"/>
  <path id="svg_42" d="m123.98225,355.52295c13.214,-0.018 82.271,-1.98 89.537,0.655c0.594,1.339 0.44,2.589 0.243,4.004c-1.356,9.721 -3.555,19.468 -5.296,29.143l-9.321,52.19c-1.76,9.508 -2.75,23.389 -6.012,32.112c-0.113,0.303 -0.237,0.603 -0.355,0.905c-0.902,-0.521 -1.627,-0.879 -2.671,-1.005c-5.794,-0.702 -12.29,-0.133 -18.151,-0.118l-39.674,0.091c-7.136,0.011 -14.602,0.454 -21.689,-0.223c9.332,-0.613 18.878,-0.235 28.235,-0.241l50.991,-0.022c3.386,-11.002 4.135,-23.337 6.222,-34.674c4.909,-26.665 10.251,-53.238 14.472,-80.031q-25.976,0.388 -51.955,0.275c-8.14,-0.012 -17.47,0.883 -25.402,-0.634c-0.779,-0.825 -1.209,-1.245 -2.308,-1.57c-1.163,0.672 -1.01,0.85 -1.377,2.167c-2.035,-0.588 -4.464,-0.361 -6.588,-0.39c1.846,-0.517 3.772,-0.797 5.634,-1.287c-1.503,-0.502 -3.002,-0.948 -4.535,-1.347z" fill="url(#gradient_0)"/>
  <path id="svg_43" d="m129.47125,358.54695c0.367,-1.317 0.214,-1.495 1.377,-2.167c1.099,0.325 1.529,0.745 2.308,1.57c-3.046,11.698 -4.834,23.945 -7.189,35.808l-15.374,79.519c7.087,0.677 14.553,0.234 21.689,0.223l39.674,-0.091c5.861,-0.015 12.357,-0.584 18.151,0.118c1.044,0.126 1.769,0.484 2.671,1.005c-1.181,1.103 -1.539,1.553 -3.157,1.636c-8.493,0.435 -17.258,-0.025 -25.774,-0.048l-49.721,-0.01l-54.432,-0.065c-8.273,-0.012 -16.814,0.528 -25.057,0.049c-0.923,-0.054 -1.793,-0.261 -2.679,-0.518c0.398,-0.648 0.862,-1.238 1.317,-1.846c5.531,-0.97 12.331,-0.278 17.972,-0.28l35.511,0.032c6.817,0.022 13.903,0.448 20.689,-0.157c2.921,-14.185 5.126,-28.543 7.843,-42.774l14.181,-72.004z"/>
  <path id="svg_44" d="m51.34225,355.98295l2.473,2.658c15.399,-0.245 30.82,-0.089 46.221,-0.109c7.478,-0.01 15.442,0.539 22.847,-0.375c2.124,0.029 4.553,-0.198 6.588,0.39l-14.181,72.004c-2.717,14.231 -4.922,28.589 -7.843,42.774c-6.786,0.605 -13.872,0.179 -20.689,0.157l-35.511,-0.032c-5.641,0.002 -12.441,-0.69 -17.972,0.28c-0.455,0.608 -0.919,1.198 -1.317,1.846c-0.902,-0.434 -1.45,-0.818 -2.146,-1.538c-0.036,-3.176 1.055,-6.882 1.631,-10.024l3.646,-19.919l16.253,-88.112z" fill="#FEFEFE"/>
  <path id="svg_45" d="m70.48825,421.25995c6.857,-0.5 13.148,0.234 19.617,2.655c2.921,1.093 8.663,3.421 9.991,6.315l-0.894,0.834c-2.933,0.318 -7.752,-3.692 -10.911,-4.852q-1.146,-0.414 -2.314,-0.757q-1.169,-0.344 -2.357,-0.615q-1.187,-0.271 -2.389,-0.47q-1.202,-0.198 -2.414,-0.322q-1.212,-0.125 -2.429,-0.175q-1.217,-0.05 -2.435,-0.026q-1.218,0.024 -2.432,0.123q-1.214,0.098 -2.42,0.271c-3.412,0.477 -10.073,3.489 -12.811,2.662l0.018,-0.769c3.424,-3.169 9.691,-4.232 14.18,-4.874z" fill="#CAD5FF"/>
  <path id="svg_46" d="m71.37125,400.74495c6.3,-0.707 12.417,-0.388 18.436,1.708c3.137,1.092 9.576,3.302 11.065,6.39c-0.36,1.104 -0.395,1.041 -1.408,1.633c-3.006,-0.797 -5.758,-3.607 -8.945,-4.744c-5.428,-1.716 -10.561,-2.547 -16.275,-2.148c-3.204,0.224 -14.557,3.553 -15.997,3.08l-0.348,-0.739c0.108,-0.152 0.2,-0.317 0.325,-0.456c2.769,-3.083 9.253,-4.132 13.147,-4.724z" fill="#CAD5FF"/>
  <path id="svg_47" d="m77.70625,379.27695c4.065,-0.198 8.052,0.343 12.002,1.266c3.736,0.874 14.56,4.901 16.35,8.531c0.279,0.565 0.112,0.504 -0.183,1.152c-2.848,0.67 -10.351,-4.511 -13.446,-5.788c-5.298,-1.593 -10.517,-2.702 -16.08,-2.249c-3.098,0.252 -13.886,3.686 -14.806,3.442l-0.257,-0.56c0.215,-0.588 0.206,-0.678 0.641,-1.243c2.622,-3.397 11.796,-4.173 15.779,-4.551z" fill="#CAD5FF"/>
  <path id="svg_48" d="m63.48425,441.27495c5.817,-0.526 11.583,-0.235 17.219,1.373c4.134,1.179 12.51,3.957 14.604,8.04c0.528,1.03 0.62,1.073 0.246,2.204c-1.867,0.383 -8.063,-3.946 -9.971,-4.997c-5.314,-2.112 -10.273,-3.438 -16.029,-3.574c-6.036,-0.142 -11.153,2.018 -16.924,2.4c-1.194,0.079 -1.668,-0.028 -2.672,-0.581c0.026,-0.75 -0.107,-0.672 0.387,-1.226c2.317,-2.595 9.798,-3.174 13.14,-3.639z" fill="#CAD5FF"/>
  <path id="svg_49" d="m51.34225,355.98295l2.473,2.658c-1.744,8.285 -2.628,16.776 -4.1,25.117l-9.166,49.686c-2.136,12.055 -6.24,27.84 -7.111,39.624l49.772,-0.072c7.782,-0.008 16.582,-0.838 24.237,0.329c-6.786,0.605 -13.872,0.179 -20.689,0.157l-35.511,-0.032c-5.641,0.002 -12.441,-0.69 -17.972,0.28c-0.455,0.608 -0.919,1.198 -1.317,1.846c-0.902,-0.434 -1.45,-0.818 -2.146,-1.538c-0.036,-3.176 1.055,-6.882 1.631,-10.024l3.646,-19.919l16.253,-88.112z" fill="#CAD5FF"/>
  <path id="svg_50" d="m53.55685,72.20395c54.991,-0.764 110.088,-0.013 165.091,-0.026l54.947,-0.005c9.317,0.001 19.368,-0.737 28.611,0.356c1.981,0.234 5.052,0.345 6.294,1.998c1.66,2.207 2.115,5.167 2.276,7.853c0.532,8.837 -0.019,18.028 0.054,26.916l-0.04,74.974l0.037,37.45c0.026,6.635 0.683,13.981 -0.276,20.527c-0.523,3.563 -1.787,5.101 -4.621,7.238c-7.09,1.89 -20.991,0.695 -28.822,0.66l-44.427,-0.048l-115.2,-0.138c-19.119,0.001 -38.367,0.629 -57.473,0.135c-3.229,-0.084 -6.189,-0.508 -9.244,-1.619c-1.434,-2.346 -1.579,-5.338 -1.681,-8.028c-0.517,-13.582 0.062,-27.361 0.062,-40.965l-0.105,-75.366q0.071,-13.834 -0.011,-27.668c-0.031,-6.101 -0.765,-13.326 0.531,-19.297c0.525,-2.418 2.013,-3.65 3.997,-4.947z"/>
  <path id="svg_51" d="m54.71785,75.26195c20.385,0.544 40.848,0.197 61.243,0.22l118.125,0.019c11.536,0.008 65.151,-1.212 72.552,1.509c0.601,1.513 0.716,3.066 0.767,4.687c0.908,29.067 0.117,58.315 0.025,87.398c-0.073,22.985 0.701,46.197 -0.086,69.15c-0.115,3.37 -0.128,5.721 -2.727,8.159c-7.993,1.785 -18.045,0.698 -26.233,0.679l-44.003,-0.004l-110.929,0.031c-20.914,0.021 -41.886,0.364 -62.794,0.023c-2.407,-0.039 -5.021,-0.01 -7.348,-0.683c-0.955,-1.42 -1.169,-2.614 -1.246,-4.293c-0.491,-10.799 0.077,-21.94 0.085,-32.771l0.009,-68.698l-0.014,-41.75c0.001,-6.407 -0.628,-13.703 0.292,-20.027c0.245,-1.69 0.919,-2.616 2.282,-3.649z" fill="#FEFEFE"/>
  <path id="svg_52" d="m66.90085,85.73895c17.041,-0.457 34.207,-0.061 51.263,-0.067l92.895,-0.116l52.468,0.006c8.748,0.005 18.067,-0.684 26.72,0.326c1.156,0.135 5.03,0.476 5.596,1.392c1.196,1.939 1.161,5.275 1.212,7.536c0.256,11.34 -0.095,22.763 -0.138,34.11l0.013,58.942l0.024,30.495c0.002,5.175 0.604,11.3 -0.441,16.348c-0.816,1.186 -1.355,1.424 -2.698,1.902l-156.99,0.131l-44.542,0.029c-7.746,0.026 -16.254,0.711 -23.931,-0.165c-2.131,-0.243 -3.305,-1.018 -4.647,-2.631c-2.096,-6.91 -0.947,-22.38 -0.944,-30.111l0.114,-50.84c0.054,-19.665 -0.702,-39.545 -0.058,-59.178c0.061,-1.866 0.105,-4.329 0.977,-5.994c0.722,-1.376 1.747,-1.662 3.107,-2.115z"/>
  <path id="svg_53" d="m202.26085,210.79895l35.863,0.143q0.15,11.394 -0.061,22.787q-17.915,0.245 -35.832,0.108q-0.207,-11.519 0.03,-23.038z" fill="#FEFEFE"/>
  <path id="svg_54" d="m202.33885,158.55295l35.32,0.045c-0.042,5.393 1.09,19.831 -0.512,24.196c-11.564,0.438 -23.283,0.075 -34.863,0.079l0.055,-24.32z" fill="#FEFEFE"/>
  <path id="svg_55" d="m81.59385,210.62395l37.67,0.018l0.016,23.317c-12.576,0.178 -25.176,0.023 -37.755,0.027c0.103,-7.785 0.055,-15.576 0.069,-23.362z" fill="#FEFEFE"/>
  <path id="svg_56" d="m202.25985,184.62095l35.694,0.004c0.184,8.209 0.082,16.445 0.111,24.657l-35.864,-0.088c-0.087,-8.187 0.032,-16.385 0.059,-24.573z" fill="#FEFEFE"/>
  <path id="svg_57" d="m121.03785,210.60595l38.044,-0.01l-0.119,23.371c-12.51,0.623 -25.327,0.118 -37.86,-0.042c-0.308,-7.761 -0.136,-15.555 -0.065,-23.319z" fill="#FEFEFE"/>
  <path id="svg_58" d="m161.11785,210.62295l38.696,0.141q0.106,11.598 -0.06,23.195l-38.691,0.052q-0.178,-11.694 0.055,-23.388z" fill="#FEFEFE"/>
  <path id="svg_59" d="m81.67185,157.79795c12.538,-0.18 25.111,0.065 37.652,0.128q0.085,12.327 -0.101,24.653l-37.664,0.048c0.231,-8.261 0.091,-16.563 0.113,-24.829z" fill="#FEFEFE"/>
  <path id="svg_60" d="m81.62385,184.10195l37.586,0.084l0.008,24.965l-37.627,0.011l0.033,-25.06z" fill="#FEFEFE"/>
  <path id="svg_61" d="m120.91185,157.92795c12.697,-0.368 25.502,-0.011 38.208,0.089c0.123,8.188 0.067,16.387 0.097,24.577l-38.145,-0.017c-0.455,-8.172 -0.176,-16.462 -0.16,-24.649z" fill="#FEFEFE"/>
  <path id="svg_62" d="m161.46685,158.37795c12.788,0.267 25.607,0.137 38.399,0.175l-0.1,24.555q-19.192,0.048 -38.383,-0.108l0.084,-24.622z" fill="#4F46FD"/>
  <path id="svg_63" d="m121.06685,184.28895l38.099,0.198q0.061,12.316 -0.072,24.632l-38.184,0.005q-0.089,-12.419 0.157,-24.835z" fill="#FEFEFE"/>
  <path id="svg_64" d="m202.34985,130.57095c5.191,-0.596 31.847,-1.32 35.666,0.305c-0.981,8.392 -0.285,17.569 -0.271,26.047c-11.75,0.323 -23.582,0.063 -35.341,0.074l-0.054,-26.426z" fill="#FEFEFE"/>
  <path id="svg_65" d="m161.25085,184.57395l38.603,-0.005l-0.057,24.608l-38.674,-0.076q-0.009,-12.264 0.128,-24.527z" fill="#FEFEFE"/>
  <path id="svg_66" d="m81.64785,130.08995c7.39,-0.038 31.782,-1.09 37.445,0.302l0.4,1.061c-0.305,8.373 -0.205,16.768 -0.211,25.146l-37.757,0.019l0.074,-12.493c0.278,-4.639 0.063,-9.384 0.049,-14.035z" fill="#FEFEFE"/>
  <path id="svg_67" d="m120.50685,130.16095c12.869,-0.524 25.858,-0.224 38.738,-0.089c-0.613,8.822 -0.329,17.78 -0.273,26.622c-12.69,-0.286 -25.431,-0.07 -38.127,-0.071c-0.027,-8.744 0.43,-17.76 -0.338,-26.462z" fill="#FEFEFE"/>
  <path id="svg_68" d="m160.69785,130.29795c5.958,-0.475 34.907,-1.066 39.461,0.201l0.009,26.795c-12.969,0.312 -26.039,0.048 -39.014,-0.136l-0.456,-26.86z" fill="#FEFEFE"/>
  <path id="svg_69" d="m80.05785,234.09195c-3.673,0.068 -10.614,1.037 -13.605,-1.14c-1.422,-5.515 -1.126,-138.009 -0.309,-142.47c1.176,-1.297 2.351,-1.299 4.041,-1.381c14.687,-0.72 29.672,-0.147 44.392,-0.135l81.272,-0.077l63.816,-0.098c11.167,-0.002 22.895,-0.691 34.003,0.407c0.649,48.059 -0.062,96.146 0.165,144.21l-53.34,0.171q-0.137,-11.259 -0.141,-22.518c6.401,0.007 26.572,0.892 31.62,-0.217c-0.231,-0.707 -0.057,-0.672 -0.754,-0.965c-3.063,-1.288 -25.924,-0.374 -30.961,-0.365l0.014,-24.877c6.436,0.019 26.525,1.229 31.322,-1.05c-5.681,-1.486 -24.343,-0.629 -31.298,-0.644l-0.025,-24.318c5.134,0.042 27.133,1.276 30.391,-0.634c-0.727,-0.819 -1.567,-0.608 -2.641,-0.677c-9.139,-0.58 -18.594,-0.122 -27.765,-0.197l0.004,-26.447l-2.243,0.206c-3.819,-1.625 -30.475,-0.901 -35.666,-0.305l-2.191,-0.072c-4.554,-1.267 -33.503,-0.676 -39.461,-0.201l-1.453,-0.226c-12.88,-0.135 -25.869,-0.435 -38.738,0.089l-0.773,0.429l-0.241,0.863l-0.4,-1.061c-5.663,-1.392 -30.055,-0.34 -37.445,-0.302c0.014,4.651 0.229,9.396 -0.049,14.035c-0.282,-4.445 0.338,-9.169 -0.434,-13.547l-0.545,-0.177c-1.453,8.619 -0.375,21.53 -0.363,30.675c0.032,24.279 0.56,48.757 -0.199,73.016z" fill="#FEFEFE"/>
  <path id="svg_70" d="m80.61985,130.40095c-1.33,-0.591 -2.621,-0.873 -3.274,-2.327c-0.947,-2.106 -0.568,-23.12 0.662,-24.966c0.815,-1.223 1.1,-1.364 2.518,-1.516c8.208,-0.877 17.146,-0.251 25.44,-0.28l51.63,-0.092l79.639,-0.11c13.1,-0.01 26.338,-0.395 39.426,0.059c1.923,0.067 3.724,0.157 5.278,1.423c2.534,2.066 3.151,5.919 3.29,8.979c0.277,6.113 -0.274,12.339 -0.285,18.464l-5.771,0.116c0.383,18.527 0.074,37.036 0.352,55.556c0.079,5.308 -0.534,10.273 -0.094,15.64l-0.368,0.379c-0.399,-23.838 -0.183,-47.721 -0.179,-71.564c-7.924,-0.017 -32.346,-1.045 -38.625,0.508l-2.243,0.206c-3.819,-1.625 -30.475,-0.901 -35.666,-0.305l-2.191,-0.072c-4.554,-1.267 -33.503,-0.676 -39.461,-0.201l-1.453,-0.226c-12.88,-0.135 -25.869,-0.435 -38.738,0.089l-0.773,0.429l-0.241,0.863l-0.4,-1.061c-5.663,-1.392 -30.055,-0.34 -37.445,-0.302c0.014,4.651 0.229,9.396 -0.049,14.035c-0.282,-4.445 0.338,-9.169 -0.434,-13.547l-0.545,-0.177z" fill="#FEAD44"/>
  <path id="svg_71" d="m298.91125,337.43095c6.124,-5.257 12.016,-10.564 17.298,-16.687c16.51,-19.137 26.384,-38.72 52.919,-45.772q3.176,-0.832 6.408,-1.404q3.233,-0.573 6.501,-0.884q3.268,-0.31 6.551,-0.356q3.282,-0.046 6.558,0.173c14.541,1.114 32.285,6.824 42.083,18.219c0.953,1.109 1.85,2.233 2.619,3.479c12.885,0.324 24.206,0.577 33.622,10.647c7.519,8.041 9.473,19.573 9.043,30.216c-0.47,11.638 -3.658,26.058 -10.24,35.857c3.195,7.892 3.176,15.326 -0.095,23.2c-2.755,6.631 -7.808,12.522 -14.596,15.179c-2.623,1.027 -5.284,0.939 -8.054,0.895c-3.526,12.588 -7.941,24.145 -14.465,35.521c3.795,2.396 5.592,4.009 7.224,8.296c19.636,-0.102 44.082,-2.141 59.213,12.849c2.841,2.815 5.557,6.195 7.186,9.867c2.737,6.171 4.577,12.83 6.602,19.26q4.136,13.205 8.495,26.339l32.935,100.999c2.399,7.35 4.307,14.881 6.793,22.194c5.629,-0.025 11.295,0.075 16.919,-0.16c-1.354,-9.484 -9.994,-66.713 -7.457,-71.286c3.757,-2.329 11.477,-1.231 15.834,-1.164c-2.154,-22.978 -10.883,-72.87 4.878,-91.545c1.888,-2.237 4.822,-4.392 7.834,-4.653c2.737,-0.237 5.344,1.421 7.288,3.179c10.059,9.099 11.692,25.915 15.385,38.184c2.563,-2.008 5.411,-4.57 8.934,-3.993c2.264,0.371 4.152,2.165 5.387,4c5.728,8.512 2.414,23.83 0.327,33.019c-1.698,7.477 -4.225,14.607 -7.11,21.7c3.776,-0.105 7.851,-0.854 11.093,1.426c0.646,0.94 0.731,1.608 0.757,2.717c0.154,6.506 -0.875,13.472 -1.416,19.983c-1.348,16.226 -3.192,32.465 -4.098,48.718c6.987,-0.021 24.162,-1.425 30.092,1.248c-0.037,0.047 -0.067,0.101 -0.11,0.142c-1.033,0.989 -1.448,0.899 -2.851,1.007c-4.016,0.311 -8.237,0.03 -12.279,0.084q-15.863,0.24 -31.727,0.123q-39.42,-0.173 -78.84,0.117c-1.123,0.819 -2.285,1.723 -3.573,2.267c-1.267,0.535 -2.549,0.655 -3.91,0.689c-9.911,0.252 -19.926,-0.202 -29.85,-0.241l-67.629,-0.001l-112.019,-0.024c-21.396,0.018 -43.518,0.631 -64.817,0.172c-2.49,-0.053 -5.23,-0.305 -7.539,-1.286c-2.023,-0.859 -3.346,-2.255 -4.119,-4.285c-4.078,0.072 -8.655,-0.272 -12.66,0.374c-0.162,0.108 -0.307,0.246 -0.485,0.323c-1.222,0.532 -1.757,0.215 -2.939,-0.189c5.428,-24.715 12.767,-49.238 19.777,-73.539c5.809,-20.14 11.253,-40.35 17.46,-60.376c3.595,-11.597 5.738,-24.744 11.27,-35.534c3.416,-6.664 10.028,-12.404 16.274,-16.359c16.237,-10.282 41.687,-7.308 60.408,-7.15c2.594,-1.786 5.15,-3.555 7.57,-5.575c-9.225,-10.671 -15.061,-22.835 -19.621,-36.097c-7.209,-1.288 -11.949,-5.029 -16.12,-10.93c-4.488,-6.349 -7.348,-14.277 -5.906,-22.115c0.576,-3.132 1.801,-5.734 3.975,-8.054c-1.624,-6.348 -2.485,-12.076 -2.708,-18.618c-9.784,-3.239 -19.461,-6.148 -26.279,-14.385z"/>
  <path id="svg_72" d="m328.30625,375.38095c2.777,2.614 4.56,10.234 6.57,13.925c2.778,5.105 7.978,10.366 9.63,15.863c0.409,1.358 0.597,1.679 -0.085,2.892c-0.756,-0.215 -1.501,-0.424 -2.231,-0.718c-5.768,-2.322 -10.213,-7.99 -12.718,-13.554c-2.65,-5.888 -3.53,-12.277 -1.166,-18.408z" fill="#FEFEFE"/>
  <path id="svg_73" d="m464.40725,370.83195c0.257,0.035 0.516,0.06 0.771,0.106c2.208,0.391 3.639,1.643 4.785,3.527c2.245,3.691 1.551,9.188 0.583,13.237c-1.949,8.148 -6.668,14.389 -13.817,18.69c-1.654,0.52 -4.359,1.17 -5.976,0.399c-0.585,-2.803 8.391,-20.208 9.832,-23.983c1.499,-3.924 2.669,-7.941 3.822,-11.976z" fill="#FEFEFE"/>
  <path id="svg_74" d="m370.10325,634.66095c-6.365,-3.045 -12.774,-5.275 -19.785,-6.27c-9.258,-1.313 -18.985,-1.075 -28.329,-1.147l-37.97,-0.118c-5.84,0.018 -11.869,0.36 -17.681,-0.069c-1.384,-0.102 -2.597,-0.198 -3.702,-1.106c-0.015,-0.904 -0.115,-1.066 0.351,-1.905c2.588,-4.665 9.703,-7.508 14.657,-8.916c26.706,-7.594 69.08,5.914 92.816,18.925l-0.357,0.606z" fill="#FEFEFE"/>
  <path id="svg_75" d="m630.27825,517.50295c0.942,0.02 2.176,-0.004 3.072,0.305c1.741,0.6 2.911,2.193 3.584,3.839c4.967,12.147 -3.758,39.078 -8.514,50.935c-3.047,0.295 -6.428,0.515 -9.451,0.041c-1.265,-4.705 11.631,-30.058 10.278,-33.639l-1.935,-0.791q-7.447,16.919 -12.778,34.618l-7.599,0.056c3.841,-15.482 9.535,-46.371 23.343,-55.364z" fill="#FEFEFE"/>
  <path id="svg_76" d="m422.19625,631.90195c25.789,-12.632 68.01,-25.118 95.954,-15.397c6.417,2.233 12.638,5.923 17.431,10.761l-61.764,-0.101c-11.48,-0.009 -23.73,-0.838 -35.087,0.688c-5.436,0.73 -10.068,2.473 -15.042,4.727l-1.492,-0.678z" fill="#FEFEFE"/>
  <path id="svg_77" d="m298.98025,591.25595c0.56,-0.036 1.091,-0.064 1.652,-0.046c32.057,1.036 64.24,24.667 85.708,46.968c-10.623,-4.78 -20.256,-11.241 -31.209,-15.348c-8.096,-2.744 -16.202,-5.635 -24.474,-7.8c-18.615,-4.872 -40.425,-8.882 -58.769,-1.158c-2.941,1.239 -5.778,3.034 -8.533,4.642c-0.322,-2.946 3.091,-7.129 4.875,-9.446c7.805,-10.139 18.083,-16.119 30.75,-17.812z" fill="#FEFEFE"/>
  <path id="svg_78" d="m483.42425,591.78695c8.44,-0.473 16.859,0.605 24.682,3.921c11.476,4.865 19.668,12.993 24.268,24.504c-1.655,-1.094 -3.323,-2.146 -5.071,-3.085c-24.38,-13.083 -56.291,-6.188 -81.509,1.29c-7.859,2.687 -15.707,5.523 -23.106,9.328c-6.172,3.174 -11.908,7.094 -18.215,10.023c19.268,-22.74 48.498,-43.197 78.951,-45.981z" fill="#FEFEFE"/>
  <path id="svg_79" d="m599.76325,480.02795c2.636,-0.136 4.547,0.372 6.573,2.125c8.334,7.212 13.525,28.898 14.58,39.429c-3.999,6.7 -6.732,13.256 -9.322,20.568c-1.8,-6.136 -5.6,-26.146 -8.873,-30.275l-1.217,0.15c-0.533,0.887 -0.685,1.189 -0.591,2.275c0.445,5.112 4.545,17.968 5.984,23.912c0.842,3.255 1.83,6.301 3.093,9.417c-2.46,8.377 -3.942,17.077 -6.765,25.331l-11.473,-0.06c-1.768,-20.616 -5.656,-41.567 -3.817,-62.297c0.947,-10.67 3.232,-23.33 11.828,-30.575z" fill="#FEFEFE"/>
  <path id="svg_80" d="m579.65025,575.83595c20.257,-0.405 40.648,0.159 60.91,0.364c-1.06,22.922 -4.35,45.882 -6.013,68.792c-1.996,1.838 -44.915,0.596 -51.179,0.451c-1.852,-11.173 -2.82,-22.601 -4.248,-33.85c-1.008,-7.939 -4.653,-27.542 -3.779,-34.71c1.178,-1.035 2.815,-0.922 4.309,-1.047z" fill="#FEFEFE"/>
  <path id="svg_81" d="m535.39625,630.91995c1.46,0.41 3.11,0.774 4.367,1.655c1.783,1.249 3.657,3.978 3.898,6.176c0.279,2.559 -0.882,4.984 -2.574,6.84c-2.379,2.612 -5.726,3.553 -9.166,3.652c-4.565,0.131 -9.173,-0.2 -13.742,-0.231l-30.594,0.041l-113.916,0.075l-74.636,-0.035c-12.709,0.021 -25.782,0.691 -38.458,-0.003c-2.982,-0.163 -5.713,-0.44 -7.905,-2.669c-2.11,-2.145 -3.436,-5.382 -3.368,-8.398c0.055,-2.461 1.37,-4.843 3.214,-6.443c2.782,-2.417 6.159,-2.039 9.565,-1.72l0.564,0.043c7.509,0.513 15.211,0.24 22.743,0.274l39.382,0.19c9.497,0.053 19.415,-0.435 28.773,1.37c5.011,0.966 11.248,2.913 14.613,6.933q1.131,1.337 1.917,2.902c0.9,0.086 1.687,0.046 2.586,-0.012c0.609,-0.873 0.805,-1.447 0.515,-2.496c-0.524,-1.892 -1.387,-3.4 -3.071,-4.403l0.357,-0.606c3.225,1.53 6.447,3.179 9.754,4.524c8.579,3.491 21.066,3.674 29.555,-0.033c4.144,-1.809 7.772,-4.677 11.96,-6.453c0.155,-0.065 0.311,-0.127 0.467,-0.191l1.492,0.678c-3.228,2.18 -6.04,4.351 -6.847,8.404c1.074,0.866 1.374,0.552 2.7,0.484c1.342,-2.034 2.909,-3.738 4.876,-5.19c3.778,-2.787 8.486,-4.615 13.127,-5.302c6.752,-0.999 14.016,-0.625 20.833,-0.628l30.356,0.032l28.546,0.06c5.987,0.015 12.184,-0.317 18.117,0.48z" fill="#FEAD44"/>
  <path id="svg_82" d="m262.08125,629.85995l0.564,0.043c7.509,0.513 15.211,0.24 22.743,0.274l39.382,0.19c9.497,0.053 19.415,-0.435 28.773,1.37c5.011,0.966 11.248,2.913 14.613,6.933q1.131,1.337 1.917,2.902c-0.3,0.097 -0.725,0.249 -1.052,0.315c-3.794,0.77 -8.603,0.263 -12.511,0.262l-24.807,-0.018l-42.394,0.011c-8.446,0.034 -17.009,0.36 -25.444,-0.008c-1.606,-0.07 -3.673,-0.076 -5.007,-1.114c-0.894,-0.697 -1.48,-1.844 -1.555,-2.966c-0.211,-3.145 2.767,-6.141 4.778,-8.194z" fill="#FEFEFE"/>
  <path id="svg_83" d="m419.54125,641.46795c1.342,-2.034 2.909,-3.738 4.876,-5.19c3.778,-2.787 8.486,-4.615 13.127,-5.302c6.752,-0.999 14.016,-0.625 20.833,-0.628l30.356,0.032l28.546,0.06c5.987,0.015 12.184,-0.317 18.117,0.48c0.582,2.468 1.626,6.608 0.466,9.029c-0.501,1.047 -1.072,1.52 -2.185,1.723c-6.015,1.096 -110.637,0.757 -114.136,-0.204z" fill="#FEFEFE"/>
  <path id="svg_84" d="m315.97625,524.80195c2.264,-0.198 4.618,-0.194 6.887,-0.106c20.212,0.79 39.933,11.14 53.521,25.903c17.672,19.201 16.707,34.254 16.697,58.353c-0.004,10.018 0.23,20.113 -0.22,30.12c-5.188,-4.147 -9.866,-9.273 -14.722,-13.828c-6.98,-6.548 -14.306,-12.213 -22.284,-17.48c-15.645,-10.001 -38.204,-20.913 -57.169,-19.697c-14.542,0.932 -24.261,9.19 -33.415,19.649l25.777,-75.831c7.918,-4.187 16.03,-6.31 24.928,-7.083z" fill="#FEFEFE"/>
  <path id="svg_85" d="m464.82625,525.27695c12.99,-1.709 24.944,1.195 36.731,6.488c3.69,6.843 5.942,15.18 8.574,22.497l18.323,52.018c-6.537,-7.066 -14.599,-12.61 -23.891,-15.324c-21.943,-6.408 -44.034,0.961 -63.297,11.596q-7.867,4.685 -15.195,10.175q-7.328,5.489 -14.037,11.72c-4.954,4.665 -9.424,11.231 -15.274,14.67q-0.598,-18.405 -0.544,-36.82c-0.021,-7.376 -0.761,-15.57 0.952,-22.789c2.103,-8.864 6.722,-17.422 12.277,-24.588c13.413,-17.302 34.036,-26.949 55.381,-29.643z" fill="#FEFEFE"/>
  <path id="svg_86" d="m427.98025,327.00995c2.616,2.79 4.343,10.695 5.813,14.454c3.512,8.98 7.988,17.667 12.89,25.96c0.087,9.547 -3.204,26.269 -1.091,34.63c2.297,9.09 -4.955,26.427 -9.591,34.499c-1.572,2.737 -5.752,7.6 -6.108,10.563c1.235,1.642 4.168,2.12 5.958,3.143c1.326,0.757 2.532,1.989 2.808,3.547c0.323,1.831 -0.511,3.815 -1.399,5.365c-5.622,9.806 -17.936,16.819 -28.629,19.409c-14.291,3.461 -27.274,0.464 -39.586,-7.144c-5.066,-3.936 -8.963,-7.702 -11.502,-13.706c4.908,-2.93 8.818,-6.748 14.351,-8.537c-27.092,-27.146 -25.641,-57.924 -27.523,-93.455c10.897,-0.036 21.881,0.074 32.731,-1.076c22.221,-2.354 36.796,-10.298 50.878,-27.652z" fill="#FEFEFE"/>
  <path id="svg_87" d="m423.27525,364.04395c0.326,0.037 0.653,0.065 0.977,0.112c2.285,0.328 4.01,1.432 5.237,3.39q0.186,0.298 0.34,0.613q0.154,0.316 0.273,0.647q0.119,0.33 0.203,0.671q0.083,0.341 0.13,0.689q0.047,0.348 0.057,0.699q0.01,0.351 -0.017,0.701q-0.028,0.35 -0.092,0.695q-0.064,0.346 -0.165,0.682c-0.722,2.487 -2.327,3.671 -4.548,4.782c-0.881,-0.01 -1.739,-0.013 -2.603,-0.209c-1.929,-0.438 -3.488,-1.561 -4.42,-3.321c-0.894,-1.687 -0.93,-3.636 -0.265,-5.409c0.956,-2.544 2.53,-3.596 4.893,-4.742z"/>
  <path id="svg_88" d="m366.07325,365.11495c1.073,-0.073 2.254,-0.185 3.316,0.01c1.648,0.303 3.172,1.491 4.115,2.844c1.113,1.597 1.449,3.491 0.999,5.384c-0.559,2.351 -2.086,3.771 -4.08,4.973c-1.01,0.177 -1.917,0.288 -2.945,0.179c-1.715,-0.181 -3.214,-0.92 -4.252,-2.326c-1.158,-1.568 -1.455,-3.561 -1.08,-5.444c0.537,-2.689 1.706,-4.103 3.927,-5.62z"/>
  <path id="svg_89" d="m417.61725,347.68995c4.403,-0.35 8.842,-0.222 12.94,1.643c2.742,1.248 5.468,3.477 6.409,6.445c0.466,1.467 0.316,2.642 -0.337,4.034c-1.126,0.734 -1.133,0.615 -2.48,0.396c-7.73,-7.162 -17.019,-3.483 -20.949,-7.285c-0.141,-0.817 -0.351,-1.209 -0.015,-2.01c0.845,-2.017 2.535,-2.508 4.432,-3.223z"/>
  <path id="svg_90" d="m389.57225,368.22595c0.34,0.107 0.702,0.202 1.007,0.396c0.241,0.152 0.451,0.349 0.67,0.531c2.229,1.862 0.717,11.089 1.154,14.251c0.656,4.753 3.661,8.975 5.395,13.344q0.33,0.854 0.61,1.725c-0.399,1.218 -0.505,1.187 -1.598,1.891c-3.582,-0.821 -4.054,-7.267 -6.497,-9.955c-0.652,-0.209 -1.024,-0.511 -1.698,-0.213c-2.698,1.191 -5.488,6.883 -6.64,9.542q-0.333,0.759 -0.588,1.548q-0.256,0.789 -0.431,1.599q-0.175,0.811 -0.269,1.634q-0.093,0.824 -0.104,1.653q-0.011,0.829 0.062,1.655q0.072,0.826 0.226,1.641q0.155,0.814 0.39,1.609q0.235,0.795 0.548,1.563c0.96,2.323 2.85,5.092 5.312,5.987c2.717,0.988 5.332,0.016 7.757,-1.233c1.812,-1.684 2.74,-4.281 5.166,-5.048l1.277,0.735c0.331,0.596 0.749,1.025 0.666,1.738c-0.175,1.505 -1.422,2.598 -2.519,3.516c-2.685,2.248 -7.971,5.179 -11.636,4.392c-3.752,-0.805 -7.222,-3.595 -8.945,-6.978c-2.63,-5.167 -2.567,-11.72 -0.638,-17.097c2.016,-5.62 5.264,-9.568 10.694,-12.029c-0.661,-6.063 -1.881,-12.62 0.629,-18.397z"/>
  <path id="svg_91" d="m236.23525,646.02895c1.482,-8.454 4.132,-16.864 6.295,-25.175c5.65,-21.71 12.017,-43.137 18.135,-64.711q7.134,-25.872 14.778,-51.599c2.471,-8.271 4.58,-16.99 8.029,-24.905c1.988,-4.56 5.581,-8.448 9.243,-11.739c12.042,-10.819 26.123,-12.057 41.568,-12.069q9.901,-0.084 19.794,0.344q0.399,1.431 0.854,2.846c2.78,8.558 10.614,14.931 18.42,18.801c12.574,6.236 27.855,6.917 41.086,2.424c12.131,-4.121 21.92,-11.756 27.571,-23.334c16.531,-0.447 36.995,-1.156 51.466,7.845c4.615,2.87 9.432,7.501 11.882,12.389c3.139,6.262 4.974,13.607 7.108,20.274l11.611,36.316l23.483,71.247c4.366,13.348 9.405,26.797 12.644,40.461l-15.329,-0.038c0.48,-1.243 1.027,-2.527 1.365,-3.816c1.513,-5.768 -3.809,-9.66 -6.628,-14.003c-4.241,-6.533 -6.187,-15.511 -8.662,-22.902q-8.577,-25.689 -17.648,-51.208c-2.805,-7.888 -5.194,-17.129 -9.39,-24.319c-2.088,-1.019 -4.287,-1.877 -6.455,-2.712c-19.786,-7.622 -41.549,-5.479 -60.629,3.202c-20.129,9.159 -34.377,24.934 -42.166,45.499c-2.234,-6.221 -4.852,-12.041 -8.552,-17.544c-12.108,-18.012 -32.285,-31.153 -53.593,-35.191c-14.696,-2.786 -32.11,-0.638 -44.688,7.896l-17.81,52.393c-2.955,8.836 -6.277,17.755 -8.45,26.821c-1.322,5.515 -1.954,11.227 -2.865,16.825c-1.664,0.234 -3.447,0.465 -5.011,1.106c-2.488,1.019 -4.765,3.246 -5.821,5.714c-1.802,4.209 -0.458,8.448 1.025,12.488c-4.078,0.072 -8.655,-0.272 -12.66,0.374z" fill="#FEFEFE"/>
 </g>
</svg>